<?xml version="1.0" standalone="no"?>
<!DOCTYPE svg PUBLIC "-//W3C//DTD SVG 1.1//EN" "http://www.w3.org/Graphics/SVG/1.1/DTD/svg11.dtd" >
<svg>
<metadata>
Created by FontForge 20090622 at Tue Aug  9 22:28:28 2016
 By deploy user
Copyright (c) 2010 by Emmanuel Rey, distributed by B&#38;P Foundry S&#194;&#136;rl, Switzerland, http://www.bpfoundry.com. All rights reserved.
</metadata>
<defs>
<font id="SimplonBPMono-RegularItalic" horiz-adv-x="608" >
  <font-face 
    font-family="Simplon BP Mono Regular"
    font-weight="400"
    font-style="italic"
    font-stretch="normal"
    units-per-em="1000"
    panose-1="2 0 0 9 0 0 0 0 0 0"
    ascent="750"
    descent="-250"
    x-height="516"
    cap-height="700"
    bbox="-163 -210 709 1001"
    underline-thickness="50"
    underline-position="-50"
    unicode-range="U+0020-U+FB02"
  />
<missing-glyph 
 />
    <glyph glyph-name="fi" unicode="fi" 
d="M402 629h-79q-27 0 -40 -10.5t-18 -35.5l-14 -67h329l-110 -516h-75l95 445h-255l-94 -445h-75l94 445h-73l16 71h73l13 61q14 71 42.5 97t106.5 26h79zM496 590l23 110h110l-23 -110h-110z" />
    <glyph glyph-name="fl" unicode="fl" 
d="M470 0h-75l134 629h-206q-27 0 -40 -10.5t-18 -35.5l-14 -67h127l-16 -71h-127l-94 -445h-75l94 445h-73l16 71h73l13 61q14 71 42.5 97t106.5 26h281z" />
    <glyph glyph-name=".notdef" 
 />
    <glyph glyph-name=".null" horiz-adv-x="0" 
 />
    <glyph glyph-name="nonmarkingreturn" 
 />
    <glyph glyph-name="space" unicode=" " 
 />
    <glyph glyph-name="exclam" unicode="!" 
d="M434 700l-99 -470h-75l99 470h75zM196 0l22 105h105l-22 -105h-105z" />
    <glyph glyph-name="quotedbl" unicode="&#x22;" 
d="M516 476h-53v224h53v-224zM273 476h-53v224h53v-224z" />
    <glyph glyph-name="numbersign" unicode="#" 
d="M538 216h-93l-53 -216h-47l53 216h-211l-53 -216h-47l53 216h-71v45h82l44 178h-81v45h92l54 216h47l-54 -216h211l54 216h47l-54 -216h72v-45h-83l-44 -178h82v-45zM242 439l-44 -178h211l44 178h-211z" />
    <glyph glyph-name="dollar" unicode="$" 
d="M206 -100l20 96q-67 13 -108.5 62t-41.5 127q0 16 1 22h75v-15q0 -58 35 -94.5t100 -36.5q55 0 94 34t39 89q0 45 -21.5 75t-73.5 50l-66 29q-55 24 -81.5 64.5t-26.5 104.5q0 90 58.5 146.5t156.5 56.5q2 0 6 -0.5t6 -0.5l19 91h43l-20 -96q58 -14 95.5 -55t39.5 -106
q0 -14 -2 -20h-75v13q0 46 -32.5 74.5t-82.5 28.5q-60 0 -98 -36.5t-38 -88.5q0 -43 18 -69t58 -44l66 -29q127 -48 127 -176q0 -91 -57 -148.5t-158 -57.5q-2 0 -6.5 0.5t-6.5 0.5l-19 -91h-43z" />
    <glyph glyph-name="percent" unicode="%" 
d="M75 567q0 57 40 97.5t97 40.5t97.5 -40.5t40.5 -97.5t-40.5 -97t-97.5 -40t-97 40t-40 97zM137 567q0 -32 21.5 -54t53.5 -22t54 22t22 54t-22 54.5t-54 22.5t-53.5 -22.5t-21.5 -54.5zM300 132q0 57 40 97.5t97 40.5t97.5 -40.5t40.5 -97.5t-40.5 -97t-97.5 -40t-97 40
t-40 97zM362 132q0 -32 21.5 -54t53.5 -22t54 22t22 54t-22 54.5t-54 22.5t-53.5 -22.5t-21.5 -54.5zM92 150l434 435l32 -32l-434 -435z" />
    <glyph glyph-name="ampersand" unicode="&#x26;" 
d="M210 700h338l-15 -71h-263l141 -405l112 144l61 -40l-144 -186l39 -114l-63 -33l-28 80q-72 -85 -176 -85q-83 0 -136 52.5t-53 125.5q0 95 62.5 165.5t182.5 70.5h5l-78 225zM99 180q0 -53 33 -86t86 -33q77 0 142 97l-60 168q-16 7 -37 7q-69 0 -116.5 -43t-47.5 -110z
" />
    <glyph glyph-name="quotesingle" unicode="'" 
d="M400 476h-53v224h53v-224z" />
    <glyph glyph-name="parenleft" unicode="(" 
d="M333 597q12 54 37.5 78.5t86.5 24.5h123l-9 -42h-119q-35 0 -52 -15.5t-25 -51.5q-127 -595 -127 -605q0 -36 47 -36h125l-9 -42h-125q-81 0 -81 75q0 14 128 614z" />
    <glyph glyph-name="parenright" unicode=")" 
d="M295 11q-12 -54 -37.5 -78.5t-86.5 -24.5h-123l9 42h119q35 0 52 15.5t25 51.5q127 595 127 605q0 36 -47 36h-125l9 42h125q81 0 81 -75q0 -14 -128 -614z" />
    <glyph glyph-name="asterisk" unicode="*" 
d="M339 467l-122 -127l-34 27l125 131l-145 50l20 40l143 -50l35 162h45l-35 -162l165 50l4 -46l-164 -49l67 -129l-40 -24z" />
    <glyph glyph-name="plus" unicode="+" 
d="M287 82v176h-176v45h176v175h45v-175h175v-45h-175v-176h-45z" />
    <glyph glyph-name="comma" unicode="," 
d="M153 -166l-55 55l204 203l55 -55z" />
    <glyph glyph-name="hyphen" unicode="-" 
d="M445 258h-290l9 45h290z" />
    <glyph glyph-name="period" unicode="." 
d="M197 0l22 105h105l-22 -105h-105z" />
    <glyph glyph-name="slash" unicode="/" 
d="M558 705l37 -26l-472 -684l-37 26z" />
    <glyph glyph-name="zero" unicode="0" 
d="M490 183q-19 -87 -76.5 -140t-148.5 -53q-77 0 -127.5 49.5t-50.5 115.5q0 26 7.5 64.5t43.5 208.5l19 89q19 87 76.5 140t148.5 53q77 0 127.5 -49.5t50.5 -115.5q0 -26 -7.5 -64.5t-43.5 -208.5zM417 192l53 251l-308 -255q-3 -13 -3 -22q0 -45 30.5 -75t82.5 -30
q53 0 93 36.5t52 94.5zM230 508l-23 -106.5l-19.5 -90t-11.5 -54.5l309 256q3 12 3 21q0 45 -30.5 75t-82.5 30q-53 0 -93 -36.5t-52 -94.5z" />
    <glyph glyph-name="one" unicode="1" 
d="M61 71h182l110 516l-128 -105l-43 57l195 161h75l-134 -629h182l-15 -71h-439z" />
    <glyph glyph-name="two" unicode="2" 
d="M261 407l-53 -48q-52 49 -52 116q0 101 62.5 168t163.5 67q77 0 127.5 -49.5t50.5 -115.5q0 -116 -113 -218l-279 -256h299l-15 -71h-404l15 71l333 306q92 84 92 157q0 45 -30.5 74.5t-82.5 29.5q-63 0 -105 -49.5t-42 -104.5q0 -47 33 -77z" />
    <glyph glyph-name="three" unicode="3" 
d="M231 515h-72q10 88 68 141.5t150 53.5q77 0 124.5 -46.5t47.5 -112.5q0 -72 -31 -126.5t-87 -81.5q52 -50 52 -120q0 -101 -62.5 -167t-163.5 -66q-77 0 -127.5 48.5t-50.5 114.5q0 19 3 39h72q-3 -15 -3 -30q0 -45 30 -73t83 -28q64 0 105.5 48t41.5 103
q0 43 -27.5 74.5t-75.5 34.5l16 70h12q63 0 102 47t39 102q0 45 -27.5 72t-79.5 27q-56 0 -93 -37t-46 -87z" />
    <glyph glyph-name="four" unicode="4" 
d="M530 658l-375 -398h223l34 159h75l-34 -159h73l-15 -71h-73l-40 -189h-75l40 189h-321l15 71l419 445z" />
    <glyph glyph-name="five" unicode="5" 
d="M331 629l-88 -203q34 18 82 18q77 0 127.5 -49.5t50.5 -115.5q0 -27 -14 -96q-18 -87 -76 -140t-149 -53q-77 0 -127.5 49.5t-50.5 115.5q0 16 3 37h73q-4 -17 -4 -26q0 -45 30 -74t83 -29t93 36t52 93q15 75 15 76q0 45 -30.5 75t-82.5 30q-79 0 -124 -75l-67 45
l154 357h278l-15 -71h-213z" />
    <glyph glyph-name="six" unicode="6" 
d="M512 658l-201 -214h4q75 0 125.5 -49.5t50.5 -115.5q0 -27 -14 -96q-18 -87 -76 -140t-149 -53q-77 0 -127.5 49.5t-50.5 115.5q0 27 14 96q18 82 63 128l308 326zM161 242q-15 -75 -15 -76q0 -45 30.5 -75t82.5 -30q53 0 93 36.5t52 94.5q15 75 15 76q0 45 -30.5 75
t-82.5 30q-53 0 -93.5 -37t-51.5 -94z" />
    <glyph glyph-name="seven" unicode="7" 
d="M582 629l-358 -634l-67 26l343 608h-241l-25 -117h-75l40 188h398z" />
    <glyph glyph-name="eight" unicode="8" 
d="M555 551q0 -72 -31.5 -126t-85.5 -82q54 -49 54 -118q0 -101 -62.5 -168t-163.5 -67q-77 0 -127.5 49.5t-50.5 115.5q0 71 32.5 127t88.5 84q-46 44 -46 112q0 103 62.5 167.5t157.5 64.5q77 0 124.5 -46.5t47.5 -112.5zM420 214q0 45 -30.5 75t-82.5 30q-63 0 -105 -50
t-42 -105q0 -45 30 -74t83 -29q63 0 105 49t42 104zM342 390q63 0 102 47t39 103q0 45 -27.5 72t-79.5 27q-63 0 -102 -47t-39 -103q0 -45 27.5 -72t79.5 -27z" />
    <glyph glyph-name="nine" unicode="9" 
d="M135 42l201 214h-4q-75 0 -125.5 49.5t-50.5 115.5q0 27 14 96q18 87 76 140t149 53q77 0 127.5 -49.5t50.5 -115.5q0 -27 -14 -96q-18 -82 -63 -128l-308 -326zM486 458q15 75 15 76q0 45 -30.5 75t-82.5 30q-53 0 -93 -36.5t-52 -94.5q-15 -75 -15 -76q0 -45 30.5 -75
t82.5 -30q53 0 93.5 37t51.5 94z" />
    <glyph glyph-name="colon" unicode=":" 
d="M268 335l22 105h105l-22 -105h-105zM197 0l22 105h105l-22 -105h-105z" />
    <glyph glyph-name="semicolon" unicode=";" 
d="M105 -166l-55 55l204 203l55 -55zM268 335l22 105h105l-22 -105h-105z" />
    <glyph glyph-name="less" unicode="&#x3c;" 
d="M454 499l-239 -239l239 -239l-32 -31l-270 270l270 270z" />
    <glyph glyph-name="equal" unicode="=" 
d="M507 155h-396v45h396v-45zM507 350h-396v45h396v-45z" />
    <glyph glyph-name="greater" unicode="&#x3e;" 
d="M393 260l-239 239l32 31l270 -270l-270 -270l-32 31z" />
    <glyph glyph-name="question" unicode="?" 
d="M283 379h49q63 0 105 50t42 105q0 45 -30.5 74.5t-82.5 29.5q-56 0 -96 -39.5t-49 -90.5h-72q11 89 72 145.5t152 56.5q77 0 127.5 -49.5t50.5 -115.5q0 -96 -57.5 -162t-150.5 -73l-17 -80h-75zM187 0l22 105h105l-22 -105h-105z" />
    <glyph glyph-name="at" unicode="@" 
d="M409 40q-36 -50 -107 -50q-68 0 -106.5 39t-38.5 106v30q0 67 38.5 106t106.5 39h70v75q0 34 -18.5 53.5t-51.5 19.5t-51.5 -19.5t-18.5 -53.5v-27h-75v27q0 67 38.5 106t106.5 39t106.5 -39t38.5 -106v-312q0 -18 10.5 -29.5t28.5 -11.5t28.5 11.5t10.5 29.5v378
q0 98 -58.5 157.5t-162.5 59.5t-162.5 -59.5t-58.5 -157.5v-381q0 -98 58.5 -157.5t162.5 -59.5v-42q-124 0 -194 70.5t-70 188.5v381q0 118 70 188.5t194 70.5t194 -70.5t70 -188.5v-378q0 -39 -23 -61t-59 -22q-62 0 -77 50zM232 165v-30q0 -34 18.5 -53.5t51.5 -19.5
t51.5 19.5t18.5 53.5v103h-70q-33 0 -51.5 -19.5t-18.5 -53.5z" />
    <glyph glyph-name="A" unicode="A" 
d="M446 0l-21 198h-258l-105 -198h-81l373 700h88l76 -700h-72zM417 267l-36 333l-177 -333h213z" />
    <glyph glyph-name="B" unicode="B" 
d="M475 346q27 -19 42.5 -53t15.5 -69q0 -96 -65 -160t-183 -64h-250l149 700h220q85 0 131.5 -49.5t46.5 -117.5q0 -52 -26.5 -104.5t-80.5 -82.5zM352 317h-173l-51 -243h163q73 0 118.5 39.5t45.5 106.5q0 43 -27.5 70t-75.5 27zM195 391h171q60 0 98.5 39.5t38.5 98.5
q0 45 -28 71t-78 26h-152z" />
    <glyph glyph-name="C" unicode="C" 
d="M394 710q83 0 138 -45.5t55 -133.5q0 -23 -2 -38h-78q3 18 3 32q0 111 -127 111q-68 0 -114 -42t-64 -121q-60 -270 -60 -298q0 -111 127 -111q131 0 173 143h77q-28 -109 -90.5 -163t-170.5 -54q-83 0 -138 45.5t-55 133.5q0 9 0.5 15l1 12.5t2.5 17.5l4 22.5t7.5 35
l10.5 47l14.5 67l19.5 87.5q26 119 89.5 178t176.5 59z" />
    <glyph glyph-name="D" unicode="D" 
d="M120 74h153q68 0 114 42t64 121q56 252 56 278q0 111 -127 111h-143zM262 0h-235l149 700h215q83 0 138 -45.5t55 -133.5q0 -19 -6 -54.5t-12.5 -65.5t-19 -83.5l-18.5 -80.5q-26 -119 -89.5 -178t-176.5 -59z" />
    <glyph glyph-name="E" unicode="E" 
d="M205 317l-52 -243h321l-16 -74h-398l149 700h398l-16 -74h-321l-50 -235h251l-16 -74h-250z" />
    <glyph glyph-name="F" unicode="F" 
d="M223 317l-68 -317h-77l149 700h398l-16 -74h-321l-50 -235h251l-16 -74h-250z" />
    <glyph glyph-name="G" unicode="G" 
d="M463 297h-148l16 74h226q-9 -43 -32 -144q-26 -119 -89.5 -178t-176.5 -59q-83 0 -138 45.5t-55 133.5q0 9 0.5 15l1 12.5t2.5 17.5l4 22.5t7.5 35l10.5 47l14.5 67l19.5 87.5q26 119 89.5 178t176.5 59q83 0 138 -45.5t55 -133.5q0 -23 -2 -38h-78q3 18 3 32
q0 111 -127 111q-68 0 -114 -42t-64 -121q-60 -270 -60 -298q0 -111 127 -111q68 0 114 42t64 121l8 37.5z" />
    <glyph glyph-name="H" unicode="H" 
d="M481 391l66 309h77l-149 -700h-77l67 317h-297l-68 -317h-77l149 700h77l-66 -309h298z" />
    <glyph glyph-name="I" unicode="I" 
d="M582 626h-161l-117 -552h161l-16 -74h-399l16 74h161l117 552h-161l16 74h399z" />
    <glyph glyph-name="J" unicode="J" 
d="M56 200h78q-3 -17 -3 -25q0 -111 127 -111q69 0 115 42t63 121l85 399h-322l16 74h399l-101 -473q-25 -119 -89 -178t-177 -59q-83 0 -138 45.5t-55 133.5q0 21 2 31z" />
    <glyph glyph-name="K" unicode="K" 
d="M139 206l-44 -206h-77l149 700h77l-80 -376l400 376h101l-307 -288l184 -412h-81l-160 359z" />
    <glyph glyph-name="L" unicode="L" 
d="M67 0l149 700h77l-133 -626h321l-16 -74h-398z" />
    <glyph glyph-name="M" unicode="M" 
d="M303 264l242 436h79l-149 -700h-74l110 516l-183 -328h-78l-41 338l-112 -526h-74l149 700h79z" />
    <glyph glyph-name="N" unicode="N" 
d="M624 700l-149 -700h-77l-178 565l-120 -565h-77l149 700h77l178 -565l120 565h77z" />
    <glyph glyph-name="O" unicode="O" 
d="M524 227q-26 -119 -89.5 -178t-176.5 -59q-83 0 -138 45.5t-55 133.5q0 9 0.5 15l1 12.5t2.5 17.5l4 22.5t7.5 35l10.5 47l14.5 67l19.5 87.5q26 119 89.5 178t176.5 59q83 0 138 -45.5t55 -133.5v-12.5t-0.5 -10t-1.5 -12l-2 -13.5t-4 -20t-5.5 -25.5t-7.5 -35.5
l-10 -44.5l-13 -58.5zM142 175q0 -111 127 -111q68 0 114 42t64 121q60 270 60 298q0 111 -127 111q-68 0 -114 -42t-64 -121q-60 -270 -60 -298z" />
    <glyph glyph-name="P" unicode="P" 
d="M607 511q0 -104 -70 -171t-195 -67h-160l-58 -273h-77l149 700h226q82 0 133.5 -55.5t51.5 -133.5zM354 347q74 0 124 45t50 113q0 50 -28.5 85.5t-93.5 35.5h-149l-59 -279h156z" />
    <glyph glyph-name="Q" unicode="Q" 
d="M461 -45l-55 72q-58 -37 -148 -37q-83 0 -138 45.5t-55 133.5q0 9 0.5 15l1 12.5t2.5 17.5l4 22.5t7.5 35l10.5 47l14.5 67l19.5 87.5q26 119 89.5 178t176.5 59q83 0 138 -45.5t55 -133.5v-12.5t-0.5 -10t-1.5 -12l-2 -13.5t-4 -20t-5.5 -25.5t-7.5 -35.5l-10 -44.5
l-13 -58.5l-16 -72q-21 -96 -67 -154l58 -75zM202 473q-10 -47 -11 -50l218 -287q26 39 38 91q60 270 60 298q0 111 -127 111q-68 0 -114 -42t-64 -121zM142 175q0 -111 127 -111q51 0 90 24l-188 247q-29 -136 -29 -160z" />
    <glyph glyph-name="R" unicode="R" 
d="M307 318h-120l-67 -318h-77l149 700h226q85 0 131.5 -49.5t46.5 -117.5q0 -34 -11.5 -68t-34.5 -67t-65.5 -55t-97.5 -25l119 -318h-80zM203 390h177q60 0 98.5 40t38.5 99q0 45 -28 71t-78 26h-158z" />
    <glyph glyph-name="S" unicode="S" 
d="M506 194q0 -89 -56 -146.5t-169 -57.5q-86 0 -150.5 51.5t-64.5 143.5q0 16 1 22h78q-1 -8 -1 -15q0 -62 40 -95t103 -33q66 0 104 33t38 89q0 84 -76 113l-81 31q-131 51 -131 179q0 91 57 146t158 55q83 0 139 -45.5t58 -128.5q0 -13 -1 -20h-77q1 8 1 13
q0 48 -33 77.5t-90 29.5q-63 0 -99 -34t-36 -86q0 -83 80 -113l81 -31q127 -48 127 -178z" />
    <glyph glyph-name="T" unicode="T" 
d="M343 626h-187l16 74h451l-16 -74h-187l-133 -626h-77z" />
    <glyph glyph-name="U" unicode="U" 
d="M141 175q0 -111 127 -111q69 0 115 42t63 121l104 473h77l-104 -473q-26 -119 -89.5 -178t-176.5 -59q-83 0 -138 45.5t-55 133.5q0 12 5.5 43.5t17 87.5l23 108l31.5 141l33 151h77q-110 -495 -110 -525z" />
    <glyph glyph-name="V" unicode="V" 
d="M268 105l318 595h81l-374 -700h-88l-76 700h74z" />
    <glyph glyph-name="W" unicode="W" 
d="M408 600l1 -440l184 540h79l-249 -700h-69l-5 457l-205 -457h-69l49 700h75l-44 -532l191 432h62z" />
    <glyph glyph-name="X" unicode="X" 
d="M330 421l225 279h91l-282 -344l132 -356h-80l-105 291l-235 -291h-91l291 355l-128 345h79z" />
    <glyph glyph-name="Y" unicode="Y" 
d="M347 278l-59 -278h-77l59 279l-141 421h75l115 -346l263 346h86z" />
    <glyph glyph-name="Z" unicode="Z" 
d="M473 0h-456l16 74l473 552h-352l16 74h447l-16 -74l-473 -552h361z" />
    <glyph glyph-name="bracketleft" unicode="[" 
d="M185 -92l169 792h225l-9 -42h-182l-151 -708h182l-9 -42h-225z" />
    <glyph glyph-name="backslash" unicode="\" 
d="M63 679l37 26l472 -684l-37 -26z" />
    <glyph glyph-name="bracketright" unicode="]" 
d="M442 700l-169 -792h-225l9 42h182l151 708h-182l9 42h225z" />
    <glyph glyph-name="asciicircum" unicode="^" 
d="M573 403l-239 239l-239 -239l-31 32l270 270l270 -270z" />
    <glyph glyph-name="underscore" unicode="_" 
d="M423 -114h-396l9 45h396z" />
    <glyph glyph-name="grave" unicode="`" 
d="M511 585l-264 72l10 48l264 -72z" />
    <glyph glyph-name="a" unicode="a" 
d="M412 191l13 61q-92 -5 -137 -11t-84 -22q-61 -25 -61 -84q0 -33 27 -53.5t79 -20.5q62 0 106 33t57 97zM195 358h-76q26 91 82.5 131.5t147.5 40.5q71 0 122 -39.5t51 -107.5q0 -24 -35 -191l-3 -14.5l-7.5 -35l-10 -47.5l-9.5 -45l-8 -36l-3 -14h-75l12 55
q-20 -30 -60.5 -47.5t-89.5 -17.5q-76 0 -121 41t-45 97q0 67 30 104t103 59q63 19 239 29q7 39 7 52q0 43 -31 65t-75 22q-109 0 -145 -101z" />
    <glyph glyph-name="b" unicode="b" 
d="M268 61q59 0 99.5 33t53.5 97q34 161 34 181q0 43 -31 65t-75 22q-59 0 -99.5 -33t-53.5 -97q-34 -161 -34 -181q0 -43 31 -65t75 -22zM275 700l-50 -235q19 28 55.5 46.5t84.5 18.5q65 0 115.5 -40t50.5 -107q0 -24 -35 -191q-42 -202 -230 -202q-44 0 -77 20t-49 54
l-14 -64h-75l149 700h75z" />
    <glyph glyph-name="c" unicode="c" 
d="M527 353h-75q2 16 2 19q0 43 -31 65t-75 22q-59 0 -99.5 -33t-53.5 -97q-34 -161 -34 -181q0 -43 31 -65t75 -22q112 0 147 106h75q-26 -94 -82.5 -135.5t-148.5 -41.5q-71 0 -122 39.5t-51 107.5q0 23 35 191q23 108 81 155t156 47q71 0 122 -39.5t51 -107.5
q0 -12 -3 -30z" />
    <glyph glyph-name="d" unicode="d" 
d="M341 459q-59 0 -99.5 -33t-53.5 -97q-34 -161 -34 -181q0 -43 31 -65t75 -22q59 0 99.5 33t53.5 97q34 161 34 181q0 43 -31 65t-75 22zM372 0l12 55q-19 -28 -55.5 -46.5t-84.5 -18.5q-65 0 -115.5 40t-50.5 107q0 23 35 191q42 202 230 202q44 0 77 -20t49 -54l52 244
h75l-149 -700h-75z" />
    <glyph glyph-name="e" unicode="e" 
d="M504 241h-330q-15 -73 -15 -93q0 -43 31 -65t75 -22q109 0 145 101h76q-26 -91 -82.5 -131.5t-147.5 -40.5q-71 0 -122 39.5t-51 107.5q0 23 35 191q23 108 81 155t156 47q71 0 122 -39.5t51 -107.5q0 -30 -24 -142zM443 309q9 49 9 63q0 43 -31 65t-75 22
q-66 0 -106.5 -39.5t-50.5 -110.5h254z" />
    <glyph glyph-name="f" unicode="f" 
d="M596 629h-169q-27 0 -40 -10.5t-18 -35.5l-14 -67h217l-16 -71h-217l-94 -445h-75l94 445h-147l16 71h147l13 61q14 71 42.5 97t106.5 26h169z" />
    <glyph glyph-name="g" unicode="g" 
d="M117 -17q-1 -7 -1 -19q0 -43 31 -65t75 -22q59 0 99.5 33t53.5 97l14 68q-19 -28 -55.5 -46.5t-84.5 -18.5q-65 0 -115.5 40t-50.5 107q0 23 31 171q42 202 230 202q44 0 77 -20t49 -54l13 60h75l-108 -508q-23 -108 -81 -155t-156 -47q-71 0 -122 39.5t-51 107.5
q0 12 3 30h74zM342 459q-59 0 -99.5 -33t-53.5 -97q-30 -142 -30 -161q0 -43 31 -65t75 -22q59 0 99.5 33t53.5 97q30 143 30 161q0 43 -31 65t-75 22z" />
    <glyph glyph-name="h" unicode="h" 
d="M362 530q65 0 115.5 -40t50.5 -107q0 -24 -35 -191l-41 -192h-75l41 191q34 149 34 181q0 43 -31 65t-75 22q-59 0 -99.5 -33t-53.5 -97l-70 -329h-75l149 700h75l-50 -235q19 28 55.5 46.5t84.5 18.5z" />
    <glyph glyph-name="i" unicode="i" 
d="M177 445l16 71h207l-95 -445h182l-15 -71h-439l15 71h182l80 374h-133zM316 590l23 110h110l-23 -110h-110z" />
    <glyph glyph-name="j" unicode="j" 
d="M379 590l23 110h110l-23 -110h-110zM373 445h-217l15 71h292l-123 -577q-15 -71 -43 -97t-105 -26h-218l15 71h218q27 0 39.5 10.5t17.5 35.5z" />
    <glyph glyph-name="k" unicode="k" 
d="M290 700l-90 -421l269 237h100l-229 -202l146 -314h-80l-123 265l-106 -94l-36 -171h-75l149 700h75z" />
    <glyph glyph-name="l" unicode="l" 
d="M213 629l15 71h207l-134 -629h182l-15 -71h-439l15 71h182l119 558h-132z" />
    <glyph glyph-name="m" unicode="m" 
d="M287 0h-75q85 400 85 410q0 49 -54 49q-60 0 -76 -72l-82 -387h-75l110 516h75l-6 -29q27 43 79 43q27 0 48.5 -15t29.5 -39q32 54 100 54q63 0 95.5 -31t32.5 -82q0 -15 -85 -417h-75q85 400 85 410q0 49 -54 49q-60 0 -76 -72z" />
    <glyph glyph-name="n" unicode="n" 
d="M362 530q65 0 115.5 -40t50.5 -107q0 -24 -35 -191l-41 -192h-75l41 191q34 149 34 181q0 43 -31 65t-75 22q-59 0 -99.5 -33t-53.5 -97l-70 -329h-75l110 516h75l-11 -51q19 28 55.5 46.5t84.5 18.5z" />
    <glyph glyph-name="o" unicode="o" 
d="M492 192q-23 -108 -81 -155t-156 -47q-71 0 -122 39.5t-51 107.5q0 23 35 191q23 108 81 155t156 47q71 0 122 -39.5t51 -107.5q0 -24 -35 -191zM264 61q59 0 99.5 33t53.5 97q34 161 34 181q0 43 -31 65t-75 22q-59 0 -99.5 -33t-53.5 -97q-34 -161 -34 -181
q0 -43 31 -65t75 -22z" />
    <glyph glyph-name="p" unicode="p" 
d="M268 61q59 0 99.5 33t53.5 97q34 161 34 181q0 43 -31 65t-75 22q-59 0 -99.5 -33t-53.5 -97q-34 -161 -34 -181q0 -43 31 -65t75 -22zM236 516l-11 -51q19 28 55.5 46.5t84.5 18.5q65 0 115.5 -40t50.5 -107q0 -24 -35 -191q-42 -202 -230 -202q-44 0 -77 20t-49 54
l-53 -248h-75l149 700h75z" />
    <glyph glyph-name="q" unicode="q" 
d="M341 459q-59 0 -99.5 -33t-53.5 -97q-34 -161 -34 -181q0 -43 31 -65t75 -22q59 0 99.5 33t53.5 97q34 161 34 181q0 43 -31 65t-75 22zM333 -184l51 239q-19 -28 -55.5 -46.5t-84.5 -18.5q-65 0 -115.5 40t-50.5 107q0 23 35 191q42 202 230 202q44 0 77 -20t49 -54
l13 60h75l-149 -700h-75z" />
    <glyph glyph-name="r" unicode="r" 
d="M482 525h124l-15 -71h-125q-59 0 -99.5 -33t-53.5 -97l-54 -253h201l-15 -71h-439l15 71h163l80 374h-114l15 71h189l-12 -56q19 28 55.5 46.5t84.5 18.5z" />
    <glyph glyph-name="s" unicode="s" 
d="M510 365h-75v7q0 42 -29.5 64.5t-71.5 22.5t-72.5 -20.5t-30.5 -58.5q0 -55 58 -72l67 -20q119 -36 119 -129q0 -78 -49 -123.5t-145 -45.5q-77 0 -134 41.5t-57 117.5q0 11 1 16h75v-10q0 -47 35.5 -70.5t89.5 -23.5q42 0 75 20t33 63q0 55 -68 76l-67 20
q-50 15 -79.5 49t-29.5 82q0 71 48 115t137 44q75 0 123 -41.5t48 -106.5q0 -9 -1 -17z" />
    <glyph glyph-name="t" unicode="t" 
d="M550 445h-217q-73 -342 -73 -347q0 -27 41 -27h169l-15 -71h-169q-48 0 -73.5 23t-25.5 64q0 25 71 358h-147l15 71h147l25 117h75l-25 -117h217z" />
    <glyph glyph-name="u" unicode="u" 
d="M248 -10q-64 0 -114 40t-50 107q0 23 35 191l40 188h75l-40 -187q-34 -161 -34 -181q0 -42 30 -64.5t73 -22.5q58 0 97.5 33.5t52.5 96.5l69 325h75l-110 -516h-75l12 55q-19 -27 -55 -46t-81 -19z" />
    <glyph glyph-name="v" unicode="v" 
d="M587 516l-295 -516h-84l-77 516h73l62 -427l240 427h81z" />
    <glyph glyph-name="w" unicode="w" 
d="M378 436l22 -304l138 384h75l-192 -516h-67l-27 348l-181 -348h-67l26 516h72l-21 -370l148 290h74z" />
    <glyph glyph-name="x" unicode="x" 
d="M387 0l-91 204l-177 -204h-90l231 262l-115 254h78l90 -196l170 196h90l-226 -256l116 -260h-76z" />
    <glyph glyph-name="y" unicode="y" 
d="M169 -82l41 72l-79 526h73l62 -427l240 427h81l-370 -647q-17 -29 -45.5 -40.5t-79.5 -12.5h-47l15 71h56q36 0 53 31z" />
    <glyph glyph-name="z" unicode="z" 
d="M529 445l-363 -374h291l-15 -71h-388l15 71l363 374h-278l15 71h375z" />
    <glyph glyph-name="braceleft" unicode="{" 
d="M256 247q0 19 -12 27.5t-42 8.5h-10l9 42h10q38 0 54 14t23 47l45 211q12 54 37.5 78.5t86.5 24.5h123l-9 -42h-119q-35 0 -52 -15.5t-25 -51.5l-44 -205q-15 -70 -50 -86q18 -14 18 -45q0 -20 -25.5 -138t-25.5 -131q0 -36 47 -36h125l-9 -42h-125q-81 0 -81 75
q0 17 25.5 134t25.5 130z" />
    <glyph glyph-name="bar" unicode="|" 
d="M282 -100v800h43v-800h-43z" />
    <glyph glyph-name="braceright" unicode="}" 
d="M372 361q0 -19 12 -27.5t42 -8.5h10l-9 -42h-10q-38 0 -54 -14t-23 -47l-45 -211q-12 -54 -37.5 -78.5t-86.5 -24.5h-123l9 42h119q35 0 52 15.5t25 51.5l44 205q15 70 50 86q-18 14 -18 45q0 20 25.5 138t25.5 131q0 36 -47 36h-125l9 42h125q81 0 81 -75
q0 -17 -25.5 -134t-25.5 -130z" />
    <glyph glyph-name="asciitilde" unicode="~" 
d="M513 304l-159 -86l-102 73l-135 -73l-21 38l159 86l102 -73l135 73z" />
    <glyph glyph-name="exclamdown" unicode="&#xa1;" 
d="M174 -184l99 470h75l-99 -470h-75zM412 516l-22 -105h-105l22 105h105z" />
    <glyph glyph-name="cent" unicode="&#xa2;" 
d="M527 353h-75q2 16 2 19q0 43 -31 65t-75 22q-59 0 -99.5 -33t-53.5 -97q-34 -161 -34 -181q0 -43 31 -65t75 -22q112 0 147 106h75q-25 -91 -78.5 -132.5t-139.5 -43.5l-19 -91h-43l19 92q-62 8 -102.5 46.5t-40.5 98.5q0 23 35 191q22 104 77 151t146 50l19 91h43
l-20 -92q62 -8 103.5 -46.5t41.5 -98.5q0 -12 -3 -30z" />
    <glyph glyph-name="sterling" unicode="&#xa3;" 
d="M98 372h64l30 140q21 102 78 150t151 48q84 0 128.5 -50t44.5 -114q0 -18 -4 -38h-71q3 18 3 27q0 48 -29.5 76t-82.5 28q-51 0 -90.5 -33t-52.5 -93l-30 -141h254l-9 -43h-254l-55 -258h329l-15 -71h-467l14 71h64l55 258h-64z" />
    <glyph glyph-name="currency" unicode="&#xa4;" 
d="M581 50l-84 84q-75 -64 -175 -64t-175 64l-84 -84l-31 30l84 85q-64 75 -64 175t64 175l-84 85l31 30l84 -85q75 65 175 65t175 -65l84 85l31 -30l-85 -85q65 -75 65 -175t-65 -175l85 -85zM124 340q0 -82 58 -140t140 -58t140 58t58 140t-58 140t-140 58t-140 -58
t-58 -140z" />
    <glyph glyph-name="yen" unicode="&#xa5;" 
d="M326 185h161l-10 -43h-160l-30 -142h-75l30 142h-160l10 43h159l20 94h-160l10 43h135l-127 378h73l116 -345l264 345h86l-289 -378h137l-10 -43h-160z" />
    <glyph glyph-name="brokenbar" unicode="&#xa6;" 
d="M283 -100v339h43v-339h-43zM283 361v339h43v-339h-43z" />
    <glyph glyph-name="section" unicode="&#xa7;" 
d="M310 80l-109 40q-108 40 -108 134q0 131 141 165q-48 46 -48 116q0 80 53 127.5t139 47.5q74 0 121.5 -42t47.5 -106q0 -5 -1 -14h-45v8q0 50 -36 81t-91 31q-59 0 -100.5 -35t-41.5 -92q0 -36 18 -65.5t47 -39.5l109 -40q108 -40 108 -134q0 -130 -142 -166
q49 -46 49 -115q0 -80 -53 -127.5t-139 -47.5q-74 0 -121.5 42t-47.5 106q0 14 2 24h45l-1 -18q0 -50 36 -81t91 -31q59 0 100.5 35t41.5 92q0 36 -18 65.5t-47 39.5zM387 353l-85 31q-65 -1 -114 -33t-49 -87q0 -73 81 -101l84 -31q66 1 115 33t49 87q0 73 -81 101z" />
    <glyph glyph-name="dieresis" unicode="&#xa8;" 
d="M219 607l17 76h76l-17 -76h-76zM455 607l17 76h76l-17 -76h-76z" />
    <glyph glyph-name="copyright" unicode="&#xa9;" 
d="M544 249v202q0 98 -58.5 157.5t-162.5 59.5t-162.5 -59.5t-58.5 -157.5v-202q0 -98 58.5 -157.5t162.5 -59.5t162.5 59.5t58.5 157.5zM587 451v-202q0 -118 -70 -188.5t-194 -70.5t-194 70.5t-70 188.5v202q0 118 70 188.5t194 70.5t194 -70.5t70 -188.5zM323 135
q-69 0 -111 40.5t-42 108.5v132q0 67 42 108t111 41q66 0 107.5 -37t45.5 -100h-68q-4 34 -29 51.5t-56 17.5q-34 0 -59.5 -20.5t-25.5 -60.5v-132q0 -40 25.5 -61t59.5 -21q31 0 56 18t29 52h68q-4 -63 -46 -100t-107 -37z" />
    <glyph glyph-name="ordfeminine" unicode="&#xaa;" 
d="M310 356q46 0 80.5 24t45.5 73l8 38q-120 -6 -163 -22q-47 -18 -47 -60q0 -24 19.5 -38.5t56.5 -14.5zM298 294q-59 0 -94 31.5t-35 77.5q0 51 23.5 80t80.5 46q55 15 183 21q4 28 4 33q0 32 -22.5 49t-57.5 17q-78 0 -104 -71h-66q19 69 62.5 101t115.5 32q57 0 97 -32
t40 -87q0 -26 -25 -142l-5.5 -24.5l-10.5 -48t-12 -53.5l-4 -22h-65l10 43q-16 -23 -46.5 -37t-68.5 -14zM448 207h-326l10 45h325z" />
    <glyph glyph-name="guillemotleft" unicode="&#xab;" 
d="M229 48l-165 210l254 210l29 -34l-221 -182l137 -176zM454 48l-165 210l254 210l29 -34l-221 -182l137 -176z" />
    <glyph glyph-name="logicalnot" unicode="&#xac;" 
d="M111 258v45h396v-221h-45v176h-351z" />
    <glyph glyph-name="registered" unicode="&#xae;" 
d="M587 451v-202q0 -118 -70 -188.5t-194 -70.5t-194 70.5t-70 188.5v202q0 118 70 188.5t194 70.5t194 -70.5t70 -188.5zM544 249v202q0 98 -58.5 157.5t-162.5 59.5t-162.5 -59.5t-58.5 -157.5v-202q0 -98 58.5 -157.5t162.5 -59.5t162.5 59.5t58.5 157.5zM497 141h-76
l-104 177h-65v-177h-68v418h170q61 0 95.5 -32t34.5 -89q0 -98 -93 -117zM252 491v-107h102q28 0 44 13.5t16 39.5t-16 40t-44 14h-102z" />
    <glyph glyph-name="macron" unicode="&#xaf;" 
d="M534 620h-312l11 50h312z" />
    <glyph glyph-name="degree" unicode="&#xb0;" 
d="M212 549q0 65 46 110.5t110 45.5t110 -45.5t46 -110.5t-46 -110.5t-110 -45.5t-110 45.5t-46 110.5zM255 549q0 -47 33 -80.5t80 -33.5t80 33.5t33 80.5t-33 80.5t-80 33.5t-80 -33.5t-33 -80.5z" />
    <glyph glyph-name="plusminus" unicode="&#xb1;" 
d="M287 229v121h-176v45h176v121h45v-121h175v-45h-175v-121h-45zM507 155h-396v45h396v-45z" />
    <glyph glyph-name="two.superior" unicode="&#xb2;" 
d="M342 640l-48 -41q-26 31 -26 70q0 60 38.5 102t102.5 42q46 0 79.5 -32.5t33.5 -77.5q0 -39 -16.5 -66.5t-55.5 -61.5l-131 -113h155l-14 -61h-252l13 61l180 154q23 19 32 28t17 23.5t8 31.5q0 22 -14.5 37.5t-38.5 15.5q-33 0 -53.5 -22.5t-20.5 -56.5q0 -19 11 -33z
" />
    <glyph glyph-name="three.superior" unicode="&#xb3;" 
d="M344 395q-46 0 -81 32.5t-35 77.5q0 11 1 17h63q-1 -5 -1 -13q0 -21 16.5 -37t40.5 -16q32 0 51 22.5t19 56.5q0 22 -13.5 36.5t-36.5 15.5l13 59h4q25 0 41.5 17t16.5 45q0 17 -12 30.5t-31 13.5q-25 0 -40 -14.5t-17 -39.5h-63q3 51 35 83t89 32q42 0 72 -28.5
t30 -72.5q0 -72 -50 -105q25 -28 25 -67q0 -61 -36.5 -103t-100.5 -42z" />
    <glyph glyph-name="acute" unicode="&#xb4;" 
d="M510 651l-264 -72l12 54l264 72z" />
    <glyph glyph-name="mu" unicode="&#xb5;" 
d="M259 -10q-46 0 -83 21.5t-52 59.5l-55 -255h-53l148 700h53l-40 -187q-34 -158 -34 -177q0 -52 32 -82t90 -30q57 0 103.5 39.5t61.5 107.5l70 329h53l-110 -516h-53l14 63q-18 -29 -58 -51t-87 -22z" />
    <glyph glyph-name="mu" unicode="&#x3bc;" 
d="M259 -10q-46 0 -83 21.5t-52 59.5l-55 -255h-53l148 700h53l-40 -187q-34 -158 -34 -177q0 -52 32 -82t90 -30q57 0 103.5 39.5t61.5 107.5l70 329h53l-110 -516h-53l14 63q-18 -29 -58 -51t-87 -22z" />
    <glyph glyph-name="paragraph" unicode="&#xb6;" 
d="M286 300h-10q-70 0 -115.5 52t-45.5 124q0 98 68.5 161t177.5 63h206l-167 -787h-43l158 745h-110l-158 -745h-43z" />
    <glyph glyph-name="periodcentered" unicode="&#xb7;" 
d="M247 238l22 105h105l-22 -105h-105z" />
    <glyph glyph-name="cedilla" unicode="&#xb8;" 
d="M126 -134h84l18 84h50l-29 -134h-134z" />
    <glyph glyph-name="one.superior" unicode="&#xb9;" 
d="M314 657l-39 49l122 101h65l-74 -345h107l-14 -61h-276l14 61h104l53 246z" />
    <glyph glyph-name="ordmasculine" unicode="&#xba;" 
d="M328 356q42 0 71 24t39 69q26 113 26 134q0 32 -23 49t-57 17q-43 0 -72 -24t-39 -69q-25 -122 -25 -134q0 -32 22.5 -49t57.5 -17zM320 294q-57 0 -97 32t-40 87q0 26 25 142q17 82 61.5 119t122.5 37q57 0 97 -32t40 -87q0 -21 -26 -142q-17 -82 -61.5 -119t-121.5 -37
zM452 207h-318l10 45h317z" />
    <glyph glyph-name="guillemotright" unicode="&#xbb;" 
d="M154 468l165 -210l-254 -210l-29 34l221 182l-137 176zM379 468l165 -210l-254 -210l-29 34l221 182l-137 176z" />
    <glyph glyph-name="onequarter" unicode="&#xbc;" 
d="M71 150l434 435l32 -32l-434 -435zM439 0h42l13 63h27l9 40h-27l11 53h-42l-11 -53h-61l126 134l-30 26l-150 -160l-9 -40h115zM145 603l-25 32l79 65h42l-48 -221h69l-9 -40h-178l9 40h67l34 158z" />
    <glyph glyph-name="onehalf" unicode="&#xbd;" 
d="M71 150l434 435l32 -32l-434 -435zM394 128l31 26q-7 8 -7 21q0 21 13 35.5t34 14.5q15 0 24.5 -9.5t9.5 -23.5q0 -10 -5.5 -20t-11.5 -16t-19 -17l-116 -99l-9 -40h162l9 40h-99l84 72q46 38 46 83q0 28 -21.5 49t-50.5 21q-42 0 -66.5 -26.5t-24.5 -66.5q0 -24 17 -44z
M145 603l-25 32l79 65h42l-48 -221h69l-9 -40h-178l9 40h67l34 158z" />
    <glyph glyph-name="threequarters" unicode="&#xbe;" 
d="M153 435q-29 0 -51.5 21t-22.5 49q0 5 1 11h41q-1 -3 -1 -8q0 -14 10 -23.5t26 -9.5q21 0 33 14t12 36q0 13 -9 22.5t-23 10.5l8 38h4q17 0 27 11t10 29q0 11 -8 19.5t-20 8.5q-34 0 -37 -34h-41q2 33 23.5 53.5t57.5 20.5q27 0 46 -18.5t19 -46.5q0 -47 -32 -68
q16 -19 16 -43q0 -40 -24 -66.5t-65 -26.5zM71 150l434 435l32 -32l-434 -435zM439 0h42l13 63h27l9 40h-27l11 53h-42l-11 -53h-61l126 134l-30 26l-150 -160l-9 -40h115z" />
    <glyph glyph-name="questiondown" unicode="&#xbf;" 
d="M325 137h-56q-61 -3 -100.5 -52.5t-39.5 -102.5q0 -45 30.5 -74.5t82.5 -29.5q56 0 96 39.5t49 90.5h72q-11 -89 -72 -145.5t-152 -56.5q-77 0 -127.5 49.5t-50.5 115.5q0 96 57 162t151 73l17 80h75zM421 516l-22 -105h-105l22 105h105z" />
    <glyph glyph-name="Agrave" unicode="&#xc0;" 
d="M446 0l-21 198h-258l-105 -198h-81l373 700h88l76 -700h-72zM417 267l-36 333l-177 -333h213zM546 739l-264 72l10 48l264 -72z" />
    <glyph glyph-name="Aacute" unicode="&#xc1;" 
d="M446 0l-21 198h-258l-105 -198h-81l373 700h88l76 -700h-72zM417 267l-36 333l-177 -333h213zM545 805l-264 -72l12 54l264 72z" />
    <glyph glyph-name="Acircumflex" unicode="&#xc2;" 
d="M446 0l-21 198h-258l-105 -198h-81l373 700h88l76 -700h-72zM417 267l-36 333l-177 -333h213zM561 733l-137 72l-167 -72l13 58l157 68l145 -77z" />
    <glyph glyph-name="Atilde" unicode="&#xc3;" 
d="M446 0l-21 198h-258l-105 -198h-81l373 700h88l76 -700h-72zM417 267l-36 333l-177 -333h213zM576 797l-113 -60l-91 66l-124 -66l14 63l113 60l91 -66l124 66z" />
    <glyph glyph-name="Adieresis" unicode="&#xc4;" 
d="M446 0l-21 198h-258l-105 -198h-81l373 700h88l76 -700h-72zM417 267l-36 333l-177 -333h213zM255 761l17 76h76l-17 -76h-76zM491 761l17 76h76l-17 -76h-76z" />
    <glyph glyph-name="Aring" unicode="&#xc5;" 
d="M298 765q0 47 33.5 81t80.5 34t81 -34t34 -81q0 -38 -22.5 -68t-58.5 -41l72 -656h-72l-21 198h-258l-105 -198h-81l360 675q-43 33 -43 90zM417 267l-36 333l-177 -333h213zM347 765q0 -27 19.5 -46.5t46.5 -19.5t46 19.5t19 46.5t-19.5 46.5t-46.5 19.5t-46 -19.5
t-19 -46.5z" />
    <glyph glyph-name="AE" unicode="&#xc6;" 
d="M377 317l-51 -243h165l-16 -74h-242l42 198h-105l-106 -198h-83l373 700h270l-16 -74h-165l-50 -235h95l-16 -74h-95zM208 267h81l55 256z" />
    <glyph glyph-name="Ccedilla" unicode="&#xc7;" 
d="M394 710q83 0 138 -45.5t55 -133.5q0 -23 -2 -38h-78q3 18 3 32q0 111 -127 111q-68 0 -114 -42t-64 -121q-60 -270 -60 -298q0 -111 127 -111q131 0 173 143h77q-28 -109 -90.5 -163t-170.5 -54q-83 0 -138 45.5t-55 133.5q0 9 0.5 15l1 12.5t2.5 17.5l4 22.5t7.5 35
l10.5 47l14.5 67l19.5 87.5q26 119 89.5 178t176.5 59zM114 -134h84l18 84h50l-29 -134h-134z" />
    <glyph glyph-name="Egrave" unicode="&#xc8;" 
d="M205 317l-52 -243h321l-16 -74h-398l149 700h398l-16 -74h-321l-50 -235h251l-16 -74h-250zM556 739l-264 72l10 48l264 -72z" />
    <glyph glyph-name="Eacute" unicode="&#xc9;" 
d="M205 317l-52 -243h321l-16 -74h-398l149 700h398l-16 -74h-321l-50 -235h251l-16 -74h-250zM555 805l-264 -72l12 54l264 72z" />
    <glyph glyph-name="Ecircumflex" unicode="&#xca;" 
d="M205 317l-52 -243h321l-16 -74h-398l149 700h398l-16 -74h-321l-50 -235h251l-16 -74h-250zM572 733l-137 72l-167 -72l13 58l157 68l145 -77z" />
    <glyph glyph-name="Edieresis" unicode="&#xcb;" 
d="M205 317l-52 -243h321l-16 -74h-398l149 700h398l-16 -74h-321l-50 -235h251l-16 -74h-250zM265 761l17 76h76l-17 -76h-76zM501 761l17 76h76l-17 -76h-76z" />
    <glyph glyph-name="Igrave" unicode="&#xcc;" 
d="M582 626h-161l-117 -552h161l-16 -74h-399l16 74h161l117 552h-161l16 74h399zM546 739l-264 72l10 48l264 -72z" />
    <glyph glyph-name="Iacute" unicode="&#xcd;" 
d="M582 626h-161l-117 -552h161l-16 -74h-399l16 74h161l117 552h-161l16 74h399zM545 805l-264 -72l12 54l264 72z" />
    <glyph glyph-name="Icircumflex" unicode="&#xce;" 
d="M582 626h-161l-117 -552h161l-16 -74h-399l16 74h161l117 552h-161l16 74h399zM562 733l-137 72l-167 -72l13 58l157 68l145 -77z" />
    <glyph glyph-name="Idieresis" unicode="&#xcf;" 
d="M582 626h-161l-117 -552h161l-16 -74h-399l16 74h161l117 552h-161l16 74h399zM255 761l17 76h76l-17 -76h-76zM491 761l17 76h76l-17 -76h-76z" />
    <glyph glyph-name="Eth" unicode="&#xd0;" 
d="M275 0h-235l70 328h-70l9 45h70l70 327h215q83 0 138 -45.5t55 -133.5q0 -19 -6 -54.5t-12.5 -65.5t-19 -83.5l-18.5 -80.5q-26 -119 -89.5 -178t-176.5 -59zM133 74h153q68 0 114 42t64 121q56 252 56 278q0 111 -127 111h-143l-54 -253h149l-9 -45h-149z" />
    <glyph glyph-name="Ntilde" unicode="&#xd1;" 
d="M624 700l-149 -700h-77l-178 565l-120 -565h-77l149 700h77l178 -565l120 565h77zM574 797l-113 -60l-91 66l-124 -66l14 63l113 60l91 -66l124 66z" />
    <glyph glyph-name="Ograve" unicode="&#xd2;" 
d="M524 227q-26 -119 -89.5 -178t-176.5 -59q-83 0 -138 45.5t-55 133.5q0 9 0.5 15l1 12.5t2.5 17.5l4 22.5t7.5 35l10.5 47l14.5 67l19.5 87.5q26 119 89.5 178t176.5 59q83 0 138 -45.5t55 -133.5v-12.5t-0.5 -10t-1.5 -12l-2 -13.5t-4 -20t-5.5 -25.5t-7.5 -35.5
l-10 -44.5l-13 -58.5zM142 175q0 -111 127 -111q68 0 114 42t64 121q60 270 60 298q0 111 -127 111q-68 0 -114 -42t-64 -121q-60 -270 -60 -298zM547 739l-264 72l10 48l264 -72z" />
    <glyph glyph-name="Oacute" unicode="&#xd3;" 
d="M524 227q-26 -119 -89.5 -178t-176.5 -59q-83 0 -138 45.5t-55 133.5q0 9 0.5 15l1 12.5t2.5 17.5l4 22.5t7.5 35l10.5 47l14.5 67l19.5 87.5q26 119 89.5 178t176.5 59q83 0 138 -45.5t55 -133.5v-12.5t-0.5 -10t-1.5 -12l-2 -13.5t-4 -20t-5.5 -25.5t-7.5 -35.5
l-10 -44.5l-13 -58.5zM142 175q0 -111 127 -111q68 0 114 42t64 121q60 270 60 298q0 111 -127 111q-68 0 -114 -42t-64 -121q-60 -270 -60 -298zM545 805l-264 -72l12 54l264 72z" />
    <glyph glyph-name="Ocircumflex" unicode="&#xd4;" 
d="M524 227q-26 -119 -89.5 -178t-176.5 -59q-83 0 -138 45.5t-55 133.5q0 9 0.5 15l1 12.5t2.5 17.5l4 22.5t7.5 35l10.5 47l14.5 67l19.5 87.5q26 119 89.5 178t176.5 59q83 0 138 -45.5t55 -133.5v-12.5t-0.5 -10t-1.5 -12l-2 -13.5t-4 -20t-5.5 -25.5t-7.5 -35.5
l-10 -44.5l-13 -58.5zM142 175q0 -111 127 -111q68 0 114 42t64 121q60 270 60 298q0 111 -127 111q-68 0 -114 -42t-64 -121q-60 -270 -60 -298zM561 733l-137 72l-167 -72l13 58l157 68l145 -77z" />
    <glyph glyph-name="Otilde" unicode="&#xd5;" 
d="M524 227q-26 -119 -89.5 -178t-176.5 -59q-83 0 -138 45.5t-55 133.5q0 9 0.5 15l1 12.5t2.5 17.5l4 22.5t7.5 35l10.5 47l14.5 67l19.5 87.5q26 119 89.5 178t176.5 59q83 0 138 -45.5t55 -133.5v-12.5t-0.5 -10t-1.5 -12l-2 -13.5t-4 -20t-5.5 -25.5t-7.5 -35.5
l-10 -44.5l-13 -58.5zM142 175q0 -111 127 -111q68 0 114 42t64 121q60 270 60 298q0 111 -127 111q-68 0 -114 -42t-64 -121q-60 -270 -60 -298zM577 797l-113 -60l-91 66l-124 -66l14 63l113 60l91 -66l124 66z" />
    <glyph glyph-name="Odieresis" unicode="&#xd6;" 
d="M524 227q-26 -119 -89.5 -178t-176.5 -59q-83 0 -138 45.5t-55 133.5q0 9 0.5 15l1 12.5t2.5 17.5l4 22.5t7.5 35l10.5 47l14.5 67l19.5 87.5q26 119 89.5 178t176.5 59q83 0 138 -45.5t55 -133.5v-12.5t-0.5 -10t-1.5 -12l-2 -13.5t-4 -20t-5.5 -25.5t-7.5 -35.5
l-10 -44.5l-13 -58.5zM142 175q0 -111 127 -111q68 0 114 42t64 121q60 270 60 298q0 111 -127 111q-68 0 -114 -42t-64 -121q-60 -270 -60 -298zM255 761l17 76h76l-17 -76h-76zM491 761l17 76h76l-17 -76h-76z" />
    <glyph glyph-name="multiply" unicode="&#xd7;" 
d="M481 419l-140 -139l140 -139l-32 -32l-140 139l-139 -139l-32 32l139 139l-139 139l32 32l139 -139l140 139z" />
    <glyph glyph-name="Oslash" unicode="&#xd8;" 
d="M524 227q-26 -119 -89.5 -178t-176.5 -59q-99 0 -151 58l-65 -81l-34 26l74 92q-17 36 -17 84q0 9 0.5 15l1 12.5t2.5 17.5l4 22.5t7.5 35l10.5 47l14.5 67l19.5 87.5q26 119 89.5 178t176.5 59q96 0 150 -58l65 81l35 -26l-75 -92q18 -39 18 -84v-12.5t-0.5 -10
t-1.5 -12l-2 -13.5t-4 -20t-5.5 -25.5t-7.5 -35.5l-10 -44.5l-13 -58.5zM507 525q0 10 -1 15l-348 -430q31 -46 111 -46q68 0 114 42t64 121q60 270 60 298zM142 175v-16l348 431q-29 46 -110 46q-68 0 -114 -42t-64 -121q-60 -270 -60 -298z" />
    <glyph glyph-name="Ugrave" unicode="&#xd9;" 
d="M141 175q0 -111 127 -111q69 0 115 42t63 121l104 473h77l-104 -473q-26 -119 -89.5 -178t-176.5 -59q-83 0 -138 45.5t-55 133.5q0 12 5.5 43.5t17 87.5l23 108l31.5 141l33 151h77q-110 -495 -110 -525zM548 739l-264 72l10 48l264 -72z" />
    <glyph glyph-name="Uacute" unicode="&#xda;" 
d="M141 175q0 -111 127 -111q69 0 115 42t63 121l104 473h77l-104 -473q-26 -119 -89.5 -178t-176.5 -59q-83 0 -138 45.5t-55 133.5q0 12 5.5 43.5t17 87.5l23 108l31.5 141l33 151h77q-110 -495 -110 -525zM547 805l-264 -72l12 54l264 72z" />
    <glyph glyph-name="Ucircumflex" unicode="&#xdb;" 
d="M141 175q0 -111 127 -111q69 0 115 42t63 121l104 473h77l-104 -473q-26 -119 -89.5 -178t-176.5 -59q-83 0 -138 45.5t-55 133.5q0 12 5.5 43.5t17 87.5l23 108l31.5 141l33 151h77q-110 -495 -110 -525zM564 733l-137 72l-167 -72l13 58l157 68l145 -77z" />
    <glyph glyph-name="Udieresis" unicode="&#xdc;" 
d="M141 175q0 -111 127 -111q69 0 115 42t63 121l104 473h77l-104 -473q-26 -119 -89.5 -178t-176.5 -59q-83 0 -138 45.5t-55 133.5q0 12 5.5 43.5t17 87.5l23 108l31.5 141l33 151h77q-110 -495 -110 -525zM493 761l17 76h76l-17 -76h-76zM257 761l17 76h76l-17 -76h-76z
" />
    <glyph glyph-name="Yacute" unicode="&#xdd;" 
d="M288 0l59 278l321 422h-86l-263 -346l-115 346h-75l141 -421l-59 -279h77zM545 805l-264 -72l12 54l264 72z" />
    <glyph glyph-name="Thorn" unicode="&#xde;" 
d="M578 374q0 -104 -70 -171t-195 -67h-160l-29 -136h-77l149 700h77l-29 -137h149q82 0 133.5 -55.5t51.5 -133.5zM325 210q74 0 124 45t50 113q0 50 -28.5 85.5t-93.5 35.5h-149l-59 -279h156z" />
    <glyph glyph-name="germandbls" unicode="&#xdf;" 
d="M71 0l123 577q15 71 43 97t106 26h16l-15 -71h-16q-27 0 -40 -10.5t-18 -35.5l-14 -67h258l-15 -71l-145 -154q56 -21 89 -69.5t33 -111.5q0 -123 -85 -211t-221 -88l15 71q80 0 147.5 65.5t67.5 146.5q0 62 -35 101t-105 39l15 71l131 140h-165l-95 -445h-75z" />
    <glyph glyph-name="agrave" unicode="&#xe0;" 
d="M412 191l13 61q-92 -5 -137 -11t-84 -22q-61 -25 -61 -84q0 -33 27 -53.5t79 -20.5q62 0 106 33t57 97zM195 358h-76q26 91 82.5 131.5t147.5 40.5q71 0 122 -39.5t51 -107.5q0 -24 -35 -191l-3 -14.5l-7.5 -35l-10 -47.5l-9.5 -45l-8 -36l-3 -14h-75l12 55
q-20 -30 -60.5 -47.5t-89.5 -17.5q-76 0 -121 41t-45 97q0 67 30 104t103 59q63 19 239 29q7 39 7 52q0 43 -31 65t-75 22q-109 0 -145 -101zM510 585l-264 72l10 48l264 -72z" />
    <glyph glyph-name="aacute" unicode="&#xe1;" 
d="M412 191l13 61q-92 -5 -137 -11t-84 -22q-61 -25 -61 -84q0 -33 27 -53.5t79 -20.5q62 0 106 33t57 97zM195 358h-76q26 91 82.5 131.5t147.5 40.5q71 0 122 -39.5t51 -107.5q0 -24 -35 -191l-3 -14.5l-7.5 -35l-10 -47.5l-9.5 -45l-8 -36l-3 -14h-75l12 55
q-20 -30 -60.5 -47.5t-89.5 -17.5q-76 0 -121 41t-45 97q0 67 30 104t103 59q63 19 239 29q7 39 7 52q0 43 -31 65t-75 22q-109 0 -145 -101zM511 651l-264 -72l12 54l264 72z" />
    <glyph glyph-name="acircumflex" unicode="&#xe2;" 
d="M195 358h-76q26 91 82.5 131.5t147.5 40.5q71 0 122 -39.5t51 -107.5q0 -24 -35 -191l-3 -14.5l-7.5 -35l-10 -47.5l-9.5 -45l-8 -36l-3 -14h-75l12 55q-20 -30 -60.5 -47.5t-89.5 -17.5q-76 0 -121 41t-45 97q0 67 30 104t103 59q63 19 239 29q7 39 7 52q0 43 -31 65
t-75 22q-109 0 -145 -101zM412 191l13 61q-92 -5 -137 -11t-84 -22q-61 -25 -61 -84q0 -33 27 -53.5t79 -20.5q62 0 106 33t57 97zM526 579l-137 72l-167 -72l13 58l157 68l145 -77z" />
    <glyph glyph-name="atilde" unicode="&#xe3;" 
d="M195 358h-76q26 91 82.5 131.5t147.5 40.5q71 0 122 -39.5t51 -107.5q0 -24 -35 -191l-3 -14.5l-7.5 -35l-10 -47.5l-9.5 -45l-8 -36l-3 -14h-75l12 55q-20 -30 -60.5 -47.5t-89.5 -17.5q-76 0 -121 41t-45 97q0 67 30 104t103 59q63 19 239 29q7 39 7 52q0 43 -31 65
t-75 22q-109 0 -145 -101zM412 191l13 61q-92 -5 -137 -11t-84 -22q-61 -25 -61 -84q0 -33 27 -53.5t79 -20.5q62 0 106 33t57 97zM541 640l-113 -60l-91 66l-124 -66l14 63l113 60l91 -66l124 66z" />
    <glyph glyph-name="adieresis" unicode="&#xe4;" 
d="M412 191l13 61q-92 -5 -137 -11t-84 -22q-61 -25 -61 -84q0 -33 27 -53.5t79 -20.5q62 0 106 33t57 97zM195 358h-76q26 91 82.5 131.5t147.5 40.5q71 0 122 -39.5t51 -107.5q0 -24 -35 -191l-3 -14.5l-7.5 -35l-10 -47.5l-9.5 -45l-8 -36l-3 -14h-75l12 55
q-20 -30 -60.5 -47.5t-89.5 -17.5q-76 0 -121 41t-45 97q0 67 30 104t103 59q63 19 239 29q7 39 7 52q0 43 -31 65t-75 22q-109 0 -145 -101zM220 607l17 76h76l-17 -76h-76zM456 607l17 76h76l-17 -76h-76z" />
    <glyph glyph-name="aring" unicode="&#xe5;" 
d="M257 595q0 47 33.5 81t80.5 34t81 -34t34 -81q0 -52 -42 -87q78 -41 78 -125q0 -24 -35 -191l-3 -14.5l-7.5 -35l-10 -47.5l-9.5 -45l-8 -36l-3 -14h-75l12 55q-20 -30 -60.5 -47.5t-89.5 -17.5q-76 0 -121 41t-45 97q0 67 30 104t103 59q63 19 239 29q7 39 7 52
q0 43 -31 65t-75 22q-109 0 -145 -101h-76q40 140 163 165q-25 31 -25 72zM412 191l13 61q-92 -5 -137 -11t-84 -22q-61 -25 -61 -84q0 -33 27 -53.5t79 -20.5q62 0 106 33t57 97zM306 595q0 -27 19 -46t46 -19t46.5 19t19.5 46t-19.5 46.5t-46.5 19.5t-46 -19.5t-19 -46.5z
" />
    <glyph glyph-name="ae" unicode="&#xe6;" 
d="M296 401q0 26 -15.5 42t-45.5 16q-38 0 -59 -29.5t-27 -71.5h-75q15 86 52 129t119 43q30 0 56.5 -15t39.5 -35q41 50 118 50q55 0 89.5 -35.5t34.5 -83.5q0 -18 -30 -170h-214q-24 -120 -24 -122q0 -26 15.5 -42t45.5 -16q69 0 86 101h75q-16 -88 -52.5 -130t-118.5 -42
q-30 0 -56.5 15t-39.5 35q-41 -50 -118 -50q-55 0 -89.5 35.5t-34.5 83.5q0 13 8 56q15 74 53.5 109.5t111.5 35.5h78q17 89 17 91zM265 241h-74q-61 0 -80 -76q-10 -44 -10 -46q0 -26 15.5 -42t45.5 -16q62 0 80 74zM354 310h139q17 80 17 91q0 26 -15.5 42t-45.5 16
q-15 0 -27.5 -4.5t-21.5 -15t-15 -19t-11.5 -27t-7.5 -26.5t-6.5 -30z" />
    <glyph glyph-name="ccedilla" unicode="&#xe7;" 
d="M527 353h-75q2 16 2 19q0 43 -31 65t-75 22q-59 0 -99.5 -33t-53.5 -97q-34 -161 -34 -181q0 -43 31 -65t75 -22q112 0 147 106h75q-26 -94 -82.5 -135.5t-148.5 -41.5q-71 0 -122 39.5t-51 107.5q0 23 35 191q23 108 81 155t156 47q71 0 122 -39.5t51 -107.5
q0 -12 -3 -30zM114 -134h84l18 84h50l-29 -134h-134z" />
    <glyph glyph-name="egrave" unicode="&#xe8;" 
d="M504 241h-330q-15 -73 -15 -93q0 -43 31 -65t75 -22q109 0 145 101h76q-26 -91 -82.5 -131.5t-147.5 -40.5q-71 0 -122 39.5t-51 107.5q0 23 35 191q23 108 81 155t156 47q71 0 122 -39.5t51 -107.5q0 -30 -24 -142zM443 309q9 49 9 63q0 43 -31 65t-75 22
q-66 0 -106.5 -39.5t-50.5 -110.5h254zM515 585l-264 72l10 48l264 -72z" />
    <glyph glyph-name="eacute" unicode="&#xe9;" 
d="M504 241h-330q-15 -73 -15 -93q0 -43 31 -65t75 -22q109 0 145 101h76q-26 -91 -82.5 -131.5t-147.5 -40.5q-71 0 -122 39.5t-51 107.5q0 23 35 191q23 108 81 155t156 47q71 0 122 -39.5t51 -107.5q0 -30 -24 -142zM443 309q9 49 9 63q0 43 -31 65t-75 22
q-66 0 -106.5 -39.5t-50.5 -110.5h254zM513 651l-264 -72l12 54l264 72z" />
    <glyph glyph-name="ecircumflex" unicode="&#xea;" 
d="M504 241h-330q-15 -73 -15 -93q0 -43 31 -65t75 -22q109 0 145 101h76q-26 -91 -82.5 -131.5t-147.5 -40.5q-71 0 -122 39.5t-51 107.5q0 23 35 191q23 108 81 155t156 47q71 0 122 -39.5t51 -107.5q0 -30 -24 -142zM443 309q9 49 9 63q0 43 -31 65t-75 22
q-66 0 -106.5 -39.5t-50.5 -110.5h254zM530 579l-137 72l-167 -72l13 58l157 68l145 -77z" />
    <glyph glyph-name="edieresis" unicode="&#xeb;" 
d="M504 241h-330q-15 -73 -15 -93q0 -43 31 -65t75 -22q109 0 145 101h76q-26 -91 -82.5 -131.5t-147.5 -40.5q-71 0 -122 39.5t-51 107.5q0 23 35 191q23 108 81 155t156 47q71 0 122 -39.5t51 -107.5q0 -30 -24 -142zM443 309q9 49 9 63q0 43 -31 65t-75 22
q-66 0 -106.5 -39.5t-50.5 -110.5h254zM223 607l17 76h76l-17 -76h-76zM459 607l17 76h76l-17 -76h-76z" />
    <glyph glyph-name="igrave" unicode="&#xec;" 
d="M177 445l16 71h207l-95 -445h182l-15 -71h-439l15 71h182l80 374h-133zM515 585l-264 72l10 48l264 -72z" />
    <glyph glyph-name="iacute" unicode="&#xed;" 
d="M177 445l16 71h207l-95 -445h182l-15 -71h-439l15 71h182l80 374h-133zM515 651l-264 -72l12 54l264 72z" />
    <glyph glyph-name="icircumflex" unicode="&#xee;" 
d="M177 445l16 71h207l-95 -445h182l-15 -71h-439l15 71h182l80 374h-133zM531 579l-137 72l-167 -72l13 58l157 68l145 -77z" />
    <glyph glyph-name="idieresis" unicode="&#xef;" 
d="M177 445l16 71h207l-95 -445h182l-15 -71h-439l15 71h182l80 374h-133zM225 607l17 76h76l-17 -76h-76zM461 607l17 76h76l-17 -76h-76z" />
    <glyph glyph-name="eth" unicode="&#xf0;" 
d="M492 192q-23 -108 -81 -155t-156 -47q-71 0 -122 39.5t-51 107.5q0 23 35 191q23 108 81 155t156 47q18 0 37 -4l-31 59h-136l9 43h105l-37 72h79l37 -72h81l-9 -43h-50l68 -131q20 -38 20 -71q0 -24 -35 -191zM264 61q59 0 99.5 33t53.5 97q34 161 34 181q0 43 -31 65
t-75 22q-59 0 -99.5 -33t-53.5 -97q-34 -161 -34 -181q0 -43 31 -65t75 -22z" />
    <glyph glyph-name="ntilde" unicode="&#xf1;" 
d="M362 530q65 0 115.5 -40t50.5 -107q0 -24 -35 -191l-41 -192h-75l41 191q34 149 34 181q0 43 -31 65t-75 22q-59 0 -99.5 -33t-53.5 -97l-70 -329h-75l110 516h75l-11 -51q19 28 55.5 46.5t84.5 18.5zM544 640l-113 -60l-91 66l-124 -66l14 63l113 60l91 -66l124 66z" />
    <glyph glyph-name="ograve" unicode="&#xf2;" 
d="M492 192q-23 -108 -81 -155t-156 -47q-71 0 -122 39.5t-51 107.5q0 23 35 191q23 108 81 155t156 47q71 0 122 -39.5t51 -107.5q0 -24 -35 -191zM264 61q59 0 99.5 33t53.5 97q34 161 34 181q0 43 -31 65t-75 22q-59 0 -99.5 -33t-53.5 -97q-34 -161 -34 -181
q0 -43 31 -65t75 -22zM513 585l-264 72l10 48l264 -72z" />
    <glyph glyph-name="oacute" unicode="&#xf3;" 
d="M492 192q-23 -108 -81 -155t-156 -47q-71 0 -122 39.5t-51 107.5q0 23 35 191q23 108 81 155t156 47q71 0 122 -39.5t51 -107.5q0 -24 -35 -191zM264 61q59 0 99.5 33t53.5 97q34 161 34 181q0 43 -31 65t-75 22q-59 0 -99.5 -33t-53.5 -97q-34 -161 -34 -181
q0 -43 31 -65t75 -22zM512 651l-264 -72l12 54l264 72z" />
    <glyph glyph-name="ocircumflex" unicode="&#xf4;" 
d="M492 192q-23 -108 -81 -155t-156 -47q-71 0 -122 39.5t-51 107.5q0 23 35 191q23 108 81 155t156 47q71 0 122 -39.5t51 -107.5q0 -24 -35 -191zM264 61q59 0 99.5 33t53.5 97q34 161 34 181q0 43 -31 65t-75 22q-59 0 -99.5 -33t-53.5 -97q-34 -161 -34 -181
q0 -43 31 -65t75 -22zM530 579l-137 72l-167 -72l13 58l157 68l145 -77z" />
    <glyph glyph-name="otilde" unicode="&#xf5;" 
d="M492 192q-23 -108 -81 -155t-156 -47q-71 0 -122 39.5t-51 107.5q0 23 35 191q23 108 81 155t156 47q71 0 122 -39.5t51 -107.5q0 -24 -35 -191zM264 61q59 0 99.5 33t53.5 97q34 161 34 181q0 43 -31 65t-75 22q-59 0 -99.5 -33t-53.5 -97q-34 -161 -34 -181
q0 -43 31 -65t75 -22zM543 640l-113 -60l-91 66l-124 -66l14 63l113 60l91 -66l124 66z" />
    <glyph glyph-name="odieresis" unicode="&#xf6;" 
d="M492 192q-23 -108 -81 -155t-156 -47q-71 0 -122 39.5t-51 107.5q0 23 35 191q23 108 81 155t156 47q71 0 122 -39.5t51 -107.5q0 -24 -35 -191zM264 61q59 0 99.5 33t53.5 97q34 161 34 181q0 43 -31 65t-75 22q-59 0 -99.5 -33t-53.5 -97q-34 -161 -34 -181
q0 -43 31 -65t75 -22zM222 607l17 76h76l-17 -76h-76zM458 607l17 76h76l-17 -76h-76z" />
    <glyph glyph-name="divide" unicode="&#xf7;" 
d="M267 479q0 17 12.5 29.5t29.5 12.5t29.5 -12.5t12.5 -29.5t-12.5 -29.5t-29.5 -12.5t-29.5 12.5t-12.5 29.5zM267 82q0 17 12.5 29.5t29.5 12.5t29.5 -12.5t12.5 -29.5t-12.5 -29.5t-29.5 -12.5t-29.5 12.5t-12.5 29.5zM507 258h-396v45h396v-45z" />
    <glyph glyph-name="oslash" unicode="&#xf8;" 
d="M492 192q-23 -108 -81 -155t-156 -47q-67 0 -114 33l-46 -56l-36 27l49 61q-26 36 -26 82q0 23 35 191q23 108 81 155t156 47q66 0 113 -33l45 56l36 -27l-49 -60q28 -34 28 -83q0 -24 -35 -191zM264 61q59 0 99.5 33t53.5 97q34 161 34 181q0 14 -5 29l-257 -318
q29 -22 75 -22zM158 148q0 -16 4 -27l256 317q-30 21 -73 21q-59 0 -99.5 -33t-53.5 -97q-34 -161 -34 -181z" />
    <glyph glyph-name="ugrave" unicode="&#xf9;" 
d="M248 -10q-64 0 -114 40t-50 107q0 23 35 191l40 188h75l-40 -187q-34 -161 -34 -181q0 -42 30 -64.5t73 -22.5q58 0 97.5 33.5t52.5 96.5l69 325h75l-110 -516h-75l12 55q-19 -27 -55 -46t-81 -19zM512 585l-264 72l10 48l264 -72z" />
    <glyph glyph-name="uacute" unicode="&#xfa;" 
d="M248 -10q-64 0 -114 40t-50 107q0 23 35 191l40 188h75l-40 -187q-34 -161 -34 -181q0 -42 30 -64.5t73 -22.5q58 0 97.5 33.5t52.5 96.5l69 325h75l-110 -516h-75l12 55q-19 -27 -55 -46t-81 -19zM511 651l-264 -72l12 54l264 72z" />
    <glyph glyph-name="ucircumflex" unicode="&#xfb;" 
d="M248 -10q-64 0 -114 40t-50 107q0 23 35 191l40 188h75l-40 -187q-34 -161 -34 -181q0 -42 30 -64.5t73 -22.5q58 0 97.5 33.5t52.5 96.5l69 325h75l-110 -516h-75l12 55q-19 -27 -55 -46t-81 -19zM529 579l-137 72l-167 -72l13 58l157 68l145 -77z" />
    <glyph glyph-name="udieresis" unicode="&#xfc;" 
d="M248 -10q-64 0 -114 40t-50 107q0 23 35 191l40 188h75l-40 -187q-34 -161 -34 -181q0 -42 30 -64.5t73 -22.5q58 0 97.5 33.5t52.5 96.5l69 325h75l-110 -516h-75l12 55q-19 -27 -55 -46t-81 -19zM221 607l17 76h76l-17 -76h-76zM457 607l17 76h76l-17 -76h-76z" />
    <glyph glyph-name="yacute" unicode="&#xfd;" 
d="M210 -10l-41 -72q-17 -31 -53 -31h-56l-15 -71h47q51 1 79.5 12.5t45.5 40.5l370 647h-81l-240 -427l-62 427h-73zM512 651l-264 -72l12 54l264 72z" />
    <glyph glyph-name="thorn" unicode="&#xfe;" 
d="M268 61q59 0 99.5 33t53.5 97q34 161 34 181q0 43 -31 65t-75 22q-59 0 -99.5 -33t-53.5 -97q-34 -161 -34 -181q0 -43 31 -65t75 -22zM275 700l-50 -235q19 28 55.5 46.5t84.5 18.5q65 0 115.5 -40t50.5 -107q0 -24 -35 -191q-42 -202 -230 -202q-44 0 -77 20t-49 54
l-53 -248h-75l188 884h75z" />
    <glyph glyph-name="ydieresis" unicode="&#xff;" 
d="M210 -10l-41 -72q-17 -31 -53 -31h-56l-15 -71h47q51 1 79.5 12.5t45.5 40.5l370 647h-81l-240 -427l-62 427h-73zM222 607l17 76h76l-17 -76h-76zM458 607l17 76h76l-17 -76h-76z" />
    <glyph glyph-name="Amacron" unicode="&#x100;" 
d="M446 0l-21 198h-258l-105 -198h-81l373 700h88l76 -700h-72zM417 267l-36 333l-177 -333h213zM569 774h-312l11 50h312z" />
    <glyph glyph-name="amacron" unicode="&#x101;" 
d="M412 191l13 61q-92 -5 -137 -11t-84 -22q-61 -25 -61 -84q0 -33 27 -53.5t79 -20.5q62 0 106 33t57 97zM195 358h-76q26 91 82.5 131.5t147.5 40.5q71 0 122 -39.5t51 -107.5q0 -24 -35 -191l-3 -14.5l-7.5 -35l-10 -47.5l-9.5 -45l-8 -36l-3 -14h-75l12 55
q-20 -30 -60.5 -47.5t-89.5 -17.5q-76 0 -121 41t-45 97q0 67 30 104t103 59q63 19 239 29q7 39 7 52q0 43 -31 65t-75 22q-109 0 -145 -101zM535 620h-312l11 50h312z" />
    <glyph glyph-name="Abreve" unicode="&#x102;" 
d="M446 0l-21 198h-258l-105 -198h-81l373 700h88l76 -700h-72zM417 267l-36 333l-177 -333h213zM437 743h-60q-39 0 -64.5 25t-25.5 63q0 15 2 23h47q-1 -5 -1 -13q0 -21 14 -35t36 -14h55q29 0 51.5 19.5t27.5 42.5h52q-10 -48 -46.5 -79.5t-87.5 -31.5z" />
    <glyph glyph-name="abreve" unicode="&#x103;" 
d="M195 358h-76q26 91 82.5 131.5t147.5 40.5q71 0 122 -39.5t51 -107.5q0 -24 -35 -191l-3 -14.5l-7.5 -35l-10 -47.5l-9.5 -45l-8 -36l-3 -14h-75l12 55q-20 -30 -60.5 -47.5t-89.5 -17.5q-76 0 -121 41t-45 97q0 67 30 104t103 59q63 19 239 29q7 39 7 52q0 43 -31 65
t-75 22q-109 0 -145 -101zM412 191l13 61q-92 -5 -137 -11t-84 -22q-61 -25 -61 -84q0 -33 27 -53.5t79 -20.5q62 0 106 33t57 97zM403 589h-60q-39 0 -64.5 25t-25.5 63q0 15 2 23h47q-1 -5 -1 -13q0 -21 14 -35t36 -14h55q29 0 51.5 19.5t27.5 42.5h52
q-10 -48 -46.5 -79.5t-87.5 -31.5z" />
    <glyph glyph-name="Aogonek" unicode="&#x104;" 
d="M442 700l76 -700q-100 -38 -100 -96q0 -44 46 -44q12 0 24 3l-10 -49q-12 -3 -26 -3q-36 0 -59.5 26t-23.5 60q0 74 77 103l-21 198h-258l-105 -198h-81l373 700h88zM417 267l-36 333l-177 -333h213z" />
    <glyph glyph-name="aogonek" unicode="&#x105;" 
d="M416 -137l-10 -49q-12 -3 -26 -3q-36 0 -59.5 26t-23.5 60q0 37 20.5 64t53.5 39l12 55q-20 -30 -60.5 -47.5t-89.5 -17.5q-76 0 -121 41t-45 97q0 67 30 104t103 59q63 19 239 29q7 39 7 52q0 43 -31 65t-75 22q-109 0 -145 -101h-76q26 91 82.5 131.5t147.5 40.5
q71 0 122 -39.5t51 -107.5q0 -24 -35 -191l-3 -14.5l-7.5 -35l-10 -47.5l-9.5 -45l-8 -36l-3 -14q-100 -38 -100 -96q0 -44 46 -44q12 0 24 3zM412 191l13 61q-92 -5 -137 -11t-84 -22q-61 -25 -61 -84q0 -33 27 -53.5t79 -20.5q62 0 106 33t57 97z" />
    <glyph glyph-name="Cacute" unicode="&#x106;" 
d="M394 710q-113 0 -176.5 -59t-89.5 -178l-19.5 -87.5l-14.5 -67l-10.5 -47t-7.5 -35l-4 -22.5t-2.5 -17.5l-1 -12.5t-0.5 -15q0 -88 55 -133.5t138 -45.5q108 0 170.5 54t90.5 163h-77q-42 -143 -173 -143q-127 0 -127 111q0 28 60 298q18 79 64 121t114 42
q127 0 127 -111q0 -14 -3 -32h78q2 15 2 38q0 88 -55 133.5t-138 45.5zM547 805l-264 -72l12 54l264 72z" />
    <glyph glyph-name="cacute" unicode="&#x107;" 
d="M527 353q3 18 3 30q0 68 -51 107.5t-122 39.5q-98 0 -156 -47t-81 -155q-35 -168 -35 -191q0 -68 51 -107.5t122 -39.5q92 0 148.5 41.5t82.5 135.5h-75q-35 -106 -147 -106q-44 0 -75 22t-31 65q0 20 34 181q13 64 53.5 97t99.5 33q44 0 75 -22t31 -65q0 -3 -2 -19h75z
M515 651l-264 -72l12 54l264 72z" />
    <glyph glyph-name="Ccircumflex" unicode="&#x108;" 
d="M394 710q-113 0 -176.5 -59t-89.5 -178l-19.5 -87.5l-14.5 -67l-10.5 -47t-7.5 -35l-4 -22.5t-2.5 -17.5l-1 -12.5t-0.5 -15q0 -88 55 -133.5t138 -45.5q108 0 170.5 54t90.5 163h-77q-42 -143 -173 -143q-127 0 -127 111q0 28 60 298q18 79 64 121t114 42
q127 0 127 -111q0 -14 -3 -32h78q2 15 2 38q0 88 -55 133.5t-138 45.5zM563 733l-137 72l-167 -72l13 58l157 68l145 -77z" />
    <glyph glyph-name="ccircumflex" unicode="&#x109;" 
d="M527 353q3 18 3 30q0 68 -51 107.5t-122 39.5q-98 0 -156 -47t-81 -155q-35 -168 -35 -191q0 -68 51 -107.5t122 -39.5q92 0 148.5 41.5t82.5 135.5h-75q-35 -106 -147 -106q-44 0 -75 22t-31 65q0 20 34 181q13 64 53.5 97t99.5 33q44 0 75 -22t31 -65q0 -3 -2 -19h75z
M532 579l-137 72l-167 -72l13 58l157 68l145 -77z" />
    <glyph glyph-name="Cdotaccent" unicode="&#x10a;" 
d="M394 710q-113 0 -176.5 -59t-89.5 -178l-19.5 -87.5l-14.5 -67l-10.5 -47t-7.5 -35l-4 -22.5t-2.5 -17.5l-1 -12.5t-0.5 -15q0 -88 55 -133.5t138 -45.5q108 0 170.5 54t90.5 163h-77q-42 -143 -173 -143q-127 0 -127 111q0 28 60 298q18 79 64 121t114 42
q127 0 127 -111q0 -14 -3 -32h78q2 15 2 38q0 88 -55 133.5t-138 45.5zM375 761l17 76h76l-17 -76h-76z" />
    <glyph glyph-name="cdotaccent" unicode="&#x10b;" 
d="M527 353q3 18 3 30q0 68 -51 107.5t-122 39.5q-98 0 -156 -47t-81 -155q-35 -168 -35 -191q0 -68 51 -107.5t122 -39.5q92 0 148.5 41.5t82.5 135.5h-75q-35 -106 -147 -106q-44 0 -75 22t-31 65q0 20 34 181q13 64 53.5 97t99.5 33q44 0 75 -22t31 -65q0 -3 -2 -19h75z
M342 607l17 76h76l-17 -76h-76z" />
    <glyph glyph-name="Ccaron" unicode="&#x10c;" 
d="M394 710q-113 0 -176.5 -59t-89.5 -178l-19.5 -87.5l-14.5 -67l-10.5 -47t-7.5 -35l-4 -22.5t-2.5 -17.5l-1 -12.5t-0.5 -15q0 -88 55 -133.5t138 -45.5q108 0 170.5 54t90.5 163h-77q-42 -143 -173 -143q-127 0 -127 111q0 28 60 298q18 79 64 121t114 42
q127 0 127 -111q0 -14 -3 -32h78q2 15 2 38q0 88 -55 133.5t-138 45.5zM279 859l137 -72l167 72l-13 -58l-157 -68l-145 77z" />
    <glyph glyph-name="ccaron" unicode="&#x10d;" 
d="M527 353q3 18 3 30q0 68 -51 107.5t-122 39.5q-98 0 -156 -47t-81 -155q-35 -168 -35 -191q0 -68 51 -107.5t122 -39.5q92 0 148.5 41.5t82.5 135.5h-75q-35 -106 -147 -106q-44 0 -75 22t-31 65q0 20 34 181q13 64 53.5 97t99.5 33q44 0 75 -22t31 -65q0 -3 -2 -19h75z
M246 705l137 -72l167 72l-13 -58l-157 -68l-145 77z" />
    <glyph glyph-name="Dcaron" unicode="&#x10e;" 
d="M120 74h153q68 0 114 42t64 121q56 252 56 278q0 111 -127 111h-143zM262 0h-235l149 700h215q83 0 138 -45.5t55 -133.5q0 -19 -6 -54.5t-12.5 -65.5t-19 -83.5l-18.5 -80.5q-26 -119 -89.5 -178t-176.5 -59zM259 859l137 -72l167 72l-13 -58l-157 -68l-145 77z" />
    <glyph glyph-name="dcaron" unicode="&#x10f;" 
d="M693 700l-27 -126l-87 -116l-43 25l85 113l22 104h50zM297 459q-59 0 -99.5 -33t-53.5 -97q-34 -161 -34 -181q0 -43 31 -65t75 -22q59 0 99.5 33t53.5 97q34 161 34 181q0 43 -31 65t-75 22zM328 0l12 55q-19 -28 -55.5 -46.5t-84.5 -18.5q-65 0 -115.5 40t-50.5 107
q0 23 35 191q42 202 230 202q44 0 77 -20t49 -54l52 244h75l-149 -700h-75z" />
    <glyph glyph-name="Dcroat" unicode="&#x110;" 
d="M274 0h-235l70 328h-70l9 45h70l70 327h215q83 0 138 -45.5t55 -133.5q0 -19 -6 -54.5t-12.5 -65.5t-19 -83.5l-18.5 -80.5q-26 -119 -89.5 -178t-176.5 -59zM132 74h153q68 0 114 42t64 121q56 252 56 278q0 111 -127 111h-143l-54 -253h149l-9 -45h-149z" />
    <glyph glyph-name="dcroat" unicode="&#x111;" 
d="M372 0l12 55q-19 -28 -55.5 -46.5t-84.5 -18.5q-65 0 -115.5 40t-50.5 107q0 23 35 191q42 202 230 202q44 0 77 -20t49 -54l29 135h-127l9 43h127l14 66h75l-14 -66h70l-9 -43h-70l-126 -591h-75zM341 459q-59 0 -99.5 -33t-53.5 -97q-34 -161 -34 -181q0 -43 31 -65
t75 -22q59 0 99.5 33t53.5 97q34 161 34 181q0 43 -31 65t-75 22z" />
    <glyph glyph-name="Emacron" unicode="&#x112;" 
d="M205 317l-52 -243h321l-16 -74h-398l149 700h398l-16 -74h-321l-50 -235h251l-16 -74h-250zM579 774h-312l11 50h312z" />
    <glyph glyph-name="emacron" unicode="&#x113;" 
d="M504 241h-330q-15 -73 -15 -93q0 -43 31 -65t75 -22q109 0 145 101h76q-26 -91 -82.5 -131.5t-147.5 -40.5q-71 0 -122 39.5t-51 107.5q0 23 35 191q23 108 81 155t156 47q71 0 122 -39.5t51 -107.5q0 -30 -24 -142zM443 309q9 49 9 63q0 43 -31 65t-75 22
q-66 0 -106.5 -39.5t-50.5 -110.5h254zM538 620h-312l11 50h312z" />
    <glyph glyph-name="Ebreve" unicode="&#x114;" 
d="M205 317l-52 -243h321l-16 -74h-398l149 700h398l-16 -74h-321l-50 -235h251l-16 -74h-250zM447 743h-60q-39 0 -64.5 25t-25.5 63q0 15 2 23h47q-1 -5 -1 -13q0 -21 14 -35t36 -14h55q29 0 51.5 19.5t27.5 42.5h52q-10 -48 -46.5 -79.5t-87.5 -31.5z" />
    <glyph glyph-name="ebreve" unicode="&#x115;" 
d="M504 241h-330q-15 -73 -15 -93q0 -43 31 -65t75 -22q109 0 145 101h76q-26 -91 -82.5 -131.5t-147.5 -40.5q-71 0 -122 39.5t-51 107.5q0 23 35 191q23 108 81 155t156 47q71 0 122 -39.5t51 -107.5q0 -30 -24 -142zM443 309q9 49 9 63q0 43 -31 65t-75 22
q-66 0 -106.5 -39.5t-50.5 -110.5h254zM406 589h-60q-39 0 -64.5 25t-25.5 63q0 15 2 23h47q-1 -5 -1 -13q0 -21 14 -35t36 -14h55q29 0 51.5 19.5t27.5 42.5h52q-10 -48 -46.5 -79.5t-87.5 -31.5z" />
    <glyph glyph-name="Edotaccent" unicode="&#x116;" 
d="M205 317l-52 -243h321l-16 -74h-398l149 700h398l-16 -74h-321l-50 -235h251l-16 -74h-250zM383 761l17 76h76l-17 -76h-76z" />
    <glyph glyph-name="edotaccent" unicode="&#x117;" 
d="M504 241h-330q-15 -73 -15 -93q0 -43 31 -65t75 -22q109 0 145 101h76q-26 -91 -82.5 -131.5t-147.5 -40.5q-71 0 -122 39.5t-51 107.5q0 23 35 191q23 108 81 155t156 47q71 0 122 -39.5t51 -107.5q0 -30 -24 -142zM443 309q9 49 9 63q0 43 -31 65t-75 22
q-66 0 -106.5 -39.5t-50.5 -110.5h254zM341 607l17 76h76l-17 -76h-76z" />
    <glyph glyph-name="Eogonek" unicode="&#x118;" 
d="M428 -137l-10 -49q-12 -3 -26 -3q-36 0 -59.5 26t-23.5 60q0 37 19 64t47 39h-315l149 700h398l-16 -74h-321l-50 -235h251l-16 -74h-250l-52 -243h321l-16 -74q-100 -38 -100 -96q0 -44 46 -44q12 0 24 3z" />
    <glyph glyph-name="eogonek" unicode="&#x119;" 
d="M320 -137l-10 -49q-12 -3 -26 -3q-36 0 -59.5 26t-23.5 60q0 61 48 93q-69 2 -117.5 41.5t-48.5 105.5q0 23 35 191q23 108 81 155t156 47q71 0 122 -39.5t51 -107.5q0 -30 -24 -142h-330q-15 -73 -15 -93q0 -43 31 -65t75 -22q109 0 145 101h76q-31 -111 -115 -151
q-1 -1 -22 -10.5t-28 -13t-24.5 -14.5t-25 -19.5t-14.5 -22t-7 -27.5q0 -44 46 -44q12 0 24 3zM443 309q9 49 9 63q0 43 -31 65t-75 22q-66 0 -106.5 -39.5t-50.5 -110.5h254z" />
    <glyph glyph-name="Ecaron" unicode="&#x11a;" 
d="M205 317l-52 -243h321l-16 -74h-398l149 700h398l-16 -74h-321l-50 -235h251l-16 -74h-250zM286 859l137 -72l167 72l-13 -58l-157 -68l-145 77z" />
    <glyph glyph-name="ecaron" unicode="&#x11b;" 
d="M504 241h-330q-15 -73 -15 -93q0 -43 31 -65t75 -22q109 0 145 101h76q-26 -91 -82.5 -131.5t-147.5 -40.5q-71 0 -122 39.5t-51 107.5q0 23 35 191q23 108 81 155t156 47q71 0 122 -39.5t51 -107.5q0 -30 -24 -142zM443 309q9 49 9 63q0 43 -31 65t-75 22
q-66 0 -106.5 -39.5t-50.5 -110.5h254zM245 705l137 -72l167 72l-13 -58l-157 -68l-145 77z" />
    <glyph glyph-name="Gcircumflex" unicode="&#x11c;" 
d="M463 297h-148l16 74h226q-9 -43 -32 -144q-26 -119 -89.5 -178t-176.5 -59q-83 0 -138 45.5t-55 133.5q0 9 0.5 15l1 12.5t2.5 17.5l4 22.5t7.5 35l10.5 47l14.5 67l19.5 87.5q26 119 89.5 178t176.5 59q83 0 138 -45.5t55 -133.5q0 -23 -2 -38h-78q3 18 3 32
q0 111 -127 111q-68 0 -114 -42t-64 -121q-60 -270 -60 -298q0 -111 127 -111q68 0 114 42t64 121l8 37.5zM562 733l-137 72l-167 -72l13 58l157 68l145 -77z" />
    <glyph glyph-name="gcircumflex" unicode="&#x11d;" 
d="M117 -17q-1 -7 -1 -19q0 -43 31 -65t75 -22q59 0 99.5 33t53.5 97l14 68q-19 -28 -55.5 -46.5t-84.5 -18.5q-65 0 -115.5 40t-50.5 107q0 23 31 171q42 202 230 202q44 0 77 -20t49 -54l13 60h75l-108 -508q-23 -108 -81 -155t-156 -47q-71 0 -122 39.5t-51 107.5
q0 12 3 30h74zM342 459q-59 0 -99.5 -33t-53.5 -97q-30 -142 -30 -161q0 -43 31 -65t75 -22q59 0 99.5 33t53.5 97q30 143 30 161q0 43 -31 65t-75 22zM526 579l-137 72l-167 -72l13 58l157 68l145 -77z" />
    <glyph glyph-name="Gbreve" unicode="&#x11e;" 
d="M463 297h-148l16 74h226q-9 -43 -32 -144q-26 -119 -89.5 -178t-176.5 -59q-83 0 -138 45.5t-55 133.5q0 9 0.5 15l1 12.5t2.5 17.5l4 22.5t7.5 35l10.5 47l14.5 67l19.5 87.5q26 119 89.5 178t176.5 59q83 0 138 -45.5t55 -133.5q0 -23 -2 -38h-78q3 18 3 32
q0 111 -127 111q-68 0 -114 -42t-64 -121q-60 -270 -60 -298q0 -111 127 -111q68 0 114 42t64 121l8 37.5zM439 743h-60q-39 0 -64.5 25t-25.5 63q0 15 2 23h47q-1 -5 -1 -13q0 -21 14 -35t36 -14h55q29 0 51.5 19.5t27.5 42.5h52q-10 -48 -46.5 -79.5t-87.5 -31.5z" />
    <glyph glyph-name="gbreve" unicode="&#x11f;" 
d="M117 -17q-1 -7 -1 -19q0 -43 31 -65t75 -22q59 0 99.5 33t53.5 97l14 68q-19 -28 -55.5 -46.5t-84.5 -18.5q-65 0 -115.5 40t-50.5 107q0 23 31 171q42 202 230 202q44 0 77 -20t49 -54l13 60h75l-108 -508q-23 -108 -81 -155t-156 -47q-71 0 -122 39.5t-51 107.5
q0 12 3 30h74zM342 459q-59 0 -99.5 -33t-53.5 -97q-30 -142 -30 -161q0 -43 31 -65t75 -22q59 0 99.5 33t53.5 97q30 143 30 161q0 43 -31 65t-75 22zM403 589h-60q-39 0 -64.5 25t-25.5 63q0 15 2 23h47q-1 -5 -1 -13q0 -21 14 -35t36 -14h55q29 0 51.5 19.5t27.5 42.5h52
q-10 -48 -46.5 -79.5t-87.5 -31.5z" />
    <glyph glyph-name="Gdotaccent" unicode="&#x120;" 
d="M463 297h-148l16 74h226q-9 -43 -32 -144q-26 -119 -89.5 -178t-176.5 -59q-83 0 -138 45.5t-55 133.5q0 9 0.5 15l1 12.5t2.5 17.5l4 22.5t7.5 35l10.5 47l14.5 67l19.5 87.5q26 119 89.5 178t176.5 59q83 0 138 -45.5t55 -133.5q0 -23 -2 -38h-78q3 18 3 32
q0 111 -127 111q-68 0 -114 -42t-64 -121q-60 -270 -60 -298q0 -111 127 -111q68 0 114 42t64 121l8 37.5zM375 761l17 76h76l-17 -76h-76z" />
    <glyph glyph-name="gdotaccent" unicode="&#x121;" 
d="M117 -17q-1 -7 -1 -19q0 -43 31 -65t75 -22q59 0 99.5 33t53.5 97l14 68q-19 -28 -55.5 -46.5t-84.5 -18.5q-65 0 -115.5 40t-50.5 107q0 23 31 171q42 202 230 202q44 0 77 -20t49 -54l13 60h75l-108 -508q-23 -108 -81 -155t-156 -47q-71 0 -122 39.5t-51 107.5
q0 12 3 30h74zM342 459q-59 0 -99.5 -33t-53.5 -97q-30 -142 -30 -161q0 -43 31 -65t75 -22q59 0 99.5 33t53.5 97q30 143 30 161q0 43 -31 65t-75 22zM338 607l17 76h76l-17 -76h-76z" />
    <glyph glyph-name="Gcommaaccent" unicode="&#x122;" 
d="M463 297h-148l16 74h226q-9 -43 -32 -144q-26 -119 -89.5 -178t-176.5 -59q-83 0 -138 45.5t-55 133.5q0 9 0.5 15l1 12.5t2.5 17.5l4 22.5t7.5 35l10.5 47l14.5 67l19.5 87.5q26 119 89.5 178t176.5 59q83 0 138 -45.5t55 -133.5q0 -23 -2 -38h-78q3 18 3 32
q0 111 -127 111q-68 0 -114 -42t-64 -121q-60 -270 -60 -298q0 -111 127 -111q68 0 114 42t64 121l8 37.5zM294 -89l-100 -100l-36 37l100 99z" />
    <glyph glyph-name="gcommaaccent" unicode="&#x123;" 
d="M117 -17q-1 -7 -1 -19q0 -43 31 -65t75 -22q59 0 99.5 33t53.5 97l14 68q-19 -28 -55.5 -46.5t-84.5 -18.5q-65 0 -115.5 40t-50.5 107q0 23 31 171q42 202 230 202q44 0 77 -20t49 -54l13 60h75l-108 -508q-23 -108 -81 -155t-156 -47q-71 0 -122 39.5t-51 107.5
q0 12 3 30h74zM342 459q-59 0 -99.5 -33t-53.5 -97q-30 -142 -30 -161q0 -43 31 -65t75 -22q59 0 99.5 33t53.5 97q30 143 30 161q0 43 -31 65t-75 22zM317 620l100 100l36 -37l-100 -99z" />
    <glyph glyph-name="Hcircumflex" unicode="&#x124;" 
d="M481 391l66 309h77l-149 -700h-77l67 317h-297l-68 -317h-77l149 700h77l-66 -309h298zM561 733l-137 72l-167 -72l13 58l157 68l145 -77z" />
    <glyph glyph-name="hcircumflex" unicode="&#x125;" 
d="M362 530q65 0 115.5 -40t50.5 -107q0 -24 -35 -191l-41 -192h-75l41 191q34 149 34 181q0 43 -31 65t-75 22q-59 0 -99.5 -33t-53.5 -97l-70 -329h-75l149 700h75l-50 -235q19 28 55.5 46.5t84.5 18.5zM563 733l-137 72l-167 -72l13 58l157 68l145 -77z" />
    <glyph glyph-name="Hbar" unicode="&#x126;" 
d="M658 523h-72l-111 -523h-77l67 317h-297l-68 -317h-77l111 523h-68l9 45h69l28 132h77l-29 -132h298l29 132h77l-28 -132h71zM481 391l28 132h-298l-28 -132h298z" />
    <glyph glyph-name="hbar" unicode="&#x127;" 
d="M362 530q65 0 115.5 -40t50.5 -107q0 -24 -35 -191l-41 -192h-75l41 191q34 149 34 181q0 43 -31 65t-75 22q-59 0 -99.5 -33t-53.5 -97l-70 -329h-75l126 591h-70l9 43h70l14 66h75l-14 -66h127l-9 -43h-127l-27 -126q19 28 55.5 46.5t84.5 18.5z" />
    <glyph glyph-name="Itilde" unicode="&#x128;" 
d="M582 626h-161l-117 -552h161l-16 -74h-399l16 74h161l117 552h-161l16 74h399zM576 797l-113 -60l-91 66l-124 -66l14 63l113 60l91 -66l124 66z" />
    <glyph glyph-name="itilde" unicode="&#x129;" 
d="M177 445l16 71h207l-95 -445h182l-15 -71h-439l15 71h182l80 374h-133zM546 640l-113 -60l-91 66l-124 -66l14 63l113 60l91 -66l124 66z" />
    <glyph glyph-name="Imacron" unicode="&#x12a;" 
d="M582 626h-161l-117 -552h161l-16 -74h-399l16 74h161l117 552h-161l16 74h399zM569 774h-312l11 50h312z" />
    <glyph glyph-name="imacron" unicode="&#x12b;" 
d="M177 445l16 71h207l-95 -445h182l-15 -71h-439l15 71h182l80 374h-133zM540 620h-312l11 50h312z" />
    <glyph glyph-name="Ibreve" unicode="&#x12c;" 
d="M582 626h-161l-117 -552h161l-16 -74h-399l16 74h161l117 552h-161l16 74h399zM438 743h-60q-39 0 -64.5 25t-25.5 63q0 15 2 23h47q-1 -5 -1 -13q0 -21 14 -35t36 -14h55q29 0 51.5 19.5t27.5 42.5h52q-10 -48 -46.5 -79.5t-87.5 -31.5z" />
    <glyph glyph-name="ibreve" unicode="&#x12d;" 
d="M177 445l16 71h207l-95 -445h182l-15 -71h-439l15 71h182l80 374h-133zM408 589h-60q-39 0 -64.5 25t-25.5 63q0 15 2 23h47q-1 -5 -1 -13q0 -21 14 -35t36 -14h55q29 0 51.5 19.5t27.5 42.5h52q-10 -48 -46.5 -79.5t-87.5 -31.5z" />
    <glyph glyph-name="Iogonek" unicode="&#x12e;" 
d="M419 -137l-10 -49q-12 -3 -26 -3q-36 0 -59.5 26t-23.5 60q0 37 19 64t47 39h-316l16 74h161l117 552h-161l16 74h399l-16 -74h-161l-117 -552h161l-16 -74q-100 -38 -100 -96q0 -44 46 -44q12 0 24 3z" />
    <glyph glyph-name="iogonek" unicode="&#x12f;" 
d="M442 -137l-10 -49q-12 -3 -26 -3q-36 0 -59.5 26t-23.5 60q0 37 19 64t47 39h-356l15 71h182l80 374h-133l16 71h207l-95 -445h182l-15 -71q-100 -38 -100 -96q0 -44 46 -44q12 0 24 3zM316 590l23 110h110l-23 -110h-110z" />
    <glyph glyph-name="Idotaccent" unicode="&#x130;" 
d="M582 626h-161l-117 -552h161l-16 -74h-399l16 74h161l117 552h-161l16 74h399zM373 761l17 76h76l-17 -76h-76z" />
    <glyph glyph-name="dotlessi" unicode="&#x131;" 
d="M177 445l16 71h207l-95 -445h182l-15 -71h-439l15 71h182l80 374h-133z" />
    <glyph glyph-name="Jcircumflex" unicode="&#x134;" 
d="M134 200h-78q-2 -10 -2 -31q0 -88 55 -133.5t138 -45.5q113 0 177 59t89 178l101 473h-399l-16 -74h322l-85 -399q-17 -79 -63 -121t-115 -42q-127 0 -127 111q0 9 3 25zM578 733l-137 72l-167 -72l13 58l157 68l145 -77z" />
    <glyph glyph-name="jcircumflex" unicode="&#x135;" 
d="M595 579l-137 72l-167 -72l13 58l157 68l145 -77zM463 516l-123 -577q-15 -71 -43 -97t-106 -26h-218l15 71h218q27 0 40 10.5t18 35.5l109 512h-217l15 71h292z" />
    <glyph glyph-name="Kcommaaccent" unicode="&#x136;" 
d="M139 206l-44 -206h-77l149 700h77l-80 -376l400 376h101l-307 -288l184 -412h-81l-160 359zM306 -89l-100 -100l-36 37l100 99z" />
    <glyph glyph-name="kcommaaccent" unicode="&#x137;" 
d="M290 700l-90 -421l269 237h100l-229 -202l146 -314h-80l-123 265l-106 -94l-36 -171h-75l149 700h75zM311 -89l-100 -100l-36 37l100 99z" />
    <glyph glyph-name="kgreenlandic" unicode="&#x138;" 
d="M251 516l-53 -249l269 237h100l-232 -205l148 -299h-80l-124 250l-104 -92l-33 -158h-75l109 516h75z" />
    <glyph glyph-name="Lacute" unicode="&#x139;" 
d="M67 0l149 700h77l-133 -626h321l-16 -74h-398zM401 805l-264 -72l12 54l264 72z" />
    <glyph glyph-name="lacute" unicode="&#x13a;" 
d="M213 629l15 71h207l-134 -629h182l-15 -71h-439l15 71h182l119 558h-132zM544 805l-264 -72l12 54l264 72z" />
    <glyph glyph-name="Lcommaaccent" unicode="&#x13b;" 
d="M67 0l149 700h77l-133 -626h321l-16 -74h-398zM309 -89l-100 -100l-36 37l100 99z" />
    <glyph glyph-name="lcommaaccent" unicode="&#x13c;" 
d="M213 629l15 71h207l-134 -629h182l-15 -71h-439l15 71h182l119 558h-132zM291 -89l-100 -100l-36 37l100 99z" />
    <glyph glyph-name="Lcaron" unicode="&#x13d;" 
d="M504 700l-27 -126l-87 -116l-43 25l85 113l22 104h50zM67 0l149 700h77l-133 -626h321l-16 -74h-398z" />
    <glyph glyph-name="lcaron" unicode="&#x13e;" 
d="M576 700l-27 -126l-87 -116l-43 25l85 113l22 104h50zM213 629l15 71h207l-134 -629h182l-15 -71h-439l15 71h182l119 558h-132z" />
    <glyph glyph-name="Ldot" unicode="&#x13f;" 
d="M67 0l149 700h77l-133 -626h321l-16 -74h-398zM464 350l17 76h76l-17 -76h-76z" />
    <glyph glyph-name="ldot" unicode="&#x140;" 
d="M213 629l15 71h207l-134 -629h182l-15 -71h-439l15 71h182l119 558h-132zM466 348l17 76h76l-17 -76h-76z" />
    <glyph glyph-name="Lslash" unicode="&#x141;" 
d="M98 0l57 270l-65 -32l-14 41l91 45l80 376h77l-71 -334l174 86l13 -41l-198 -98l-51 -239h321l-16 -74h-398z" />
    <glyph glyph-name="lslash" unicode="&#x142;" 
d="M213 629l15 71h207l-60 -282l57 28l15 -41l-84 -41l-62 -293h182l-15 -71h-439l15 71h182l54 252l-58 -28l-15 41l84 41l54 252h-132z" />
    <glyph glyph-name="Nacute" unicode="&#x143;" 
d="M624 700l-149 -700h-77l-178 565l-120 -565h-77l149 700h77l178 -565l120 565h77zM545 805l-264 -72l12 54l264 72z" />
    <glyph glyph-name="nacute" unicode="&#x144;" 
d="M362 530q65 0 115.5 -40t50.5 -107q0 -24 -35 -191l-41 -192h-75l41 191q34 149 34 181q0 43 -31 65t-75 22q-59 0 -99.5 -33t-53.5 -97l-70 -329h-75l110 516h75l-11 -51q19 28 55.5 46.5t84.5 18.5zM514 651l-264 -72l12 54l264 72z" />
    <glyph glyph-name="Ncommaaccent" unicode="&#x145;" 
d="M624 700l-149 -700h-77l-178 565l-120 -565h-77l149 700h77l178 -565l120 565h77zM292 -89l-100 -100l-36 37l100 99z" />
    <glyph glyph-name="ncommaaccent" unicode="&#x146;" 
d="M362 530q65 0 115.5 -40t50.5 -107q0 -24 -35 -191l-41 -192h-75l41 191q34 149 34 181q0 43 -31 65t-75 22q-59 0 -99.5 -33t-53.5 -97l-70 -329h-75l110 516h75l-11 -51q19 28 55.5 46.5t84.5 18.5zM293 -89l-100 -100l-36 37l100 99z" />
    <glyph glyph-name="Ncaron" unicode="&#x147;" 
d="M624 700l-149 -700h-77l-178 565l-120 -565h-77l149 700h77l178 -565l120 565h77zM276 859l137 -72l167 72l-13 -58l-157 -68l-145 77z" />
    <glyph glyph-name="ncaron" unicode="&#x148;" 
d="M362 530q65 0 115.5 -40t50.5 -107q0 -24 -35 -191l-41 -192h-75l41 191q34 149 34 181q0 43 -31 65t-75 22q-59 0 -99.5 -33t-53.5 -97l-70 -329h-75l110 516h75l-11 -51q19 28 55.5 46.5t84.5 18.5zM245 705l137 -72l167 72l-13 -58l-157 -68l-145 77z" />
    <glyph glyph-name="napostrophe" unicode="&#x149;" 
d="M394 530q65 0 115.5 -40t50.5 -107q0 -24 -35 -191l-41 -192h-75l41 191q34 149 34 181q0 43 -31 65t-75 22q-59 0 -99.5 -33t-53.5 -97l-70 -329h-75l110 516h75l-11 -51q19 28 55.5 46.5t84.5 18.5zM212 686l-87 -219l-46 19l87 219z" />
    <glyph glyph-name="Eng" unicode="&#x14a;" 
d="M624 700l-149 -700q-20 -96 -69 -140t-139 -44h-55l16 75h50q91 0 120 109l-178 565l-120 -565h-77l149 700h77l178 -565l120 565h77z" />
    <glyph glyph-name="eng" unicode="&#x14b;" 
d="M452 372q0 43 -31 65t-75 22q-59 0 -99.5 -33t-53.5 -97l-70 -329h-75l110 516h75l-11 -51q19 28 55.5 46.5t84.5 18.5q65 0 115.5 -40t50.5 -107q0 -24 -35 -191l-54 -253q-15 -71 -43 -97t-106 -26h-15l15 71h15q27 0 39.5 10.5t17.5 35.5l56 258q34 161 34 181z" />
    <glyph glyph-name="Omacron" unicode="&#x14c;" 
d="M524 227q-26 -119 -89.5 -178t-176.5 -59q-83 0 -138 45.5t-55 133.5q0 9 0.5 15l1 12.5t2.5 17.5l4 22.5t7.5 35l10.5 47l14.5 67l19.5 87.5q26 119 89.5 178t176.5 59q83 0 138 -45.5t55 -133.5v-12.5t-0.5 -10t-1.5 -12l-2 -13.5t-4 -20t-5.5 -25.5t-7.5 -35.5
l-10 -44.5l-13 -58.5zM142 175q0 -111 127 -111q68 0 114 42t64 121q60 270 60 298q0 111 -127 111q-68 0 -114 -42t-64 -121q-60 -270 -60 -298zM571 774h-312l11 50h312z" />
    <glyph glyph-name="omacron" unicode="&#x14d;" 
d="M492 192q-23 -108 -81 -155t-156 -47q-71 0 -122 39.5t-51 107.5q0 23 35 191q23 108 81 155t156 47q71 0 122 -39.5t51 -107.5q0 -24 -35 -191zM264 61q59 0 99.5 33t53.5 97q34 161 34 181q0 43 -31 65t-75 22q-59 0 -99.5 -33t-53.5 -97q-34 -161 -34 -181
q0 -43 31 -65t75 -22zM537 620h-312l11 50h312z" />
    <glyph glyph-name="Obreve" unicode="&#x14e;" 
d="M524 227q-26 -119 -89.5 -178t-176.5 -59q-83 0 -138 45.5t-55 133.5q0 9 0.5 15l1 12.5t2.5 17.5l4 22.5t7.5 35l10.5 47l14.5 67l19.5 87.5q26 119 89.5 178t176.5 59q83 0 138 -45.5t55 -133.5v-12.5t-0.5 -10t-1.5 -12l-2 -13.5t-4 -20t-5.5 -25.5t-7.5 -35.5
l-10 -44.5l-13 -58.5zM142 175q0 -111 127 -111q68 0 114 42t64 121q60 270 60 298q0 111 -127 111q-68 0 -114 -42t-64 -121q-60 -270 -60 -298zM438 743h-60q-39 0 -64.5 25t-25.5 63q0 15 2 23h47q-1 -5 -1 -13q0 -21 14 -35t36 -14h55q29 0 51.5 19.5t27.5 42.5h52
q-10 -48 -46.5 -79.5t-87.5 -31.5z" />
    <glyph glyph-name="obreve" unicode="&#x14f;" 
d="M492 192q-23 -108 -81 -155t-156 -47q-71 0 -122 39.5t-51 107.5q0 23 35 191q23 108 81 155t156 47q71 0 122 -39.5t51 -107.5q0 -24 -35 -191zM264 61q59 0 99.5 33t53.5 97q34 161 34 181q0 43 -31 65t-75 22q-59 0 -99.5 -33t-53.5 -97q-34 -161 -34 -181
q0 -43 31 -65t75 -22zM405 589h-60q-39 0 -64.5 25t-25.5 63q0 15 2 23h47q-1 -5 -1 -13q0 -21 14 -35t36 -14h55q29 0 51.5 19.5t27.5 42.5h52q-10 -48 -46.5 -79.5t-87.5 -31.5z" />
    <glyph glyph-name="Ohungarumlaut" unicode="&#x150;" 
d="M524 227q-26 -119 -89.5 -178t-176.5 -59q-83 0 -138 45.5t-55 133.5q0 9 0.5 15l1 12.5t2.5 17.5l4 22.5t7.5 35l10.5 47l14.5 67l19.5 87.5q26 119 89.5 178t176.5 59q83 0 138 -45.5t55 -133.5v-12.5t-0.5 -10t-1.5 -12l-2 -13.5t-4 -20t-5.5 -25.5t-7.5 -35.5
l-10 -44.5l-13 -58.5zM142 175q0 -111 127 -111q68 0 114 42t64 121q60 270 60 298q0 111 -127 111q-68 0 -114 -42t-64 -121q-60 -270 -60 -298zM384 788l-126 -35l12 54l126 35zM570 788l-126 -35l12 54l126 35z" />
    <glyph glyph-name="ohungarumlaut" unicode="&#x151;" 
d="M492 192q-23 -108 -81 -155t-156 -47q-71 0 -122 39.5t-51 107.5q0 23 35 191q23 108 81 155t156 47q71 0 122 -39.5t51 -107.5q0 -24 -35 -191zM264 61q59 0 99.5 33t53.5 97q34 161 34 181q0 43 -31 65t-75 22q-59 0 -99.5 -33t-53.5 -97q-34 -161 -34 -181
q0 -43 31 -65t75 -22zM351 634l-126 -35l12 54l126 35zM537 634l-126 -35l12 54l126 35z" />
    <glyph glyph-name="OE" unicode="&#x152;" 
d="M393 317l-51 -243h165l-16 -74h-232q-83 0 -138 45.5t-55 133.5q0 27 56 284q26 119 89.5 178t176.5 59h252l-16 -74h-165l-50 -235h95l-16 -74h-95zM143 185q0 -110 122 -111l117 552h-5q-68 0 -114 -42t-64 -121q-56 -252 -56 -278z" />
    <glyph glyph-name="oe" unicode="&#x153;" 
d="M151 -10q-55 0 -89.5 35.5t-34.5 83.5q0 18 22 128.5t30 147.5q16 75 54 110t111 35q30 0 56.5 -15t39.5 -35q41 50 118 50q55 0 89.5 -35.5t34.5 -83.5q0 -18 -30 -170h-214q-24 -120 -24 -122q0 -26 15.5 -42t45.5 -16q69 0 86 101h75q-16 -88 -52.5 -130t-118.5 -42
q-30 0 -56.5 15t-39.5 35q-41 -50 -118 -50zM154 385q-4 -12 -29 -135t-25 -131q0 -26 15.5 -42t45.5 -16q62 0 80 74q3 12 28.5 135t25.5 131q0 26 -15.5 42t-45.5 16q-58 0 -80 -74zM353 310h139q17 80 17 91q0 26 -15.5 42t-45.5 16q-15 0 -27.5 -4.5t-21.5 -15t-15 -19
t-11.5 -27t-7.5 -26.5t-6.5 -30z" />
    <glyph glyph-name="Racute" unicode="&#x154;" 
d="M187 318h120l119 -318h80l-119 318q55 3 97.5 25t65.5 55t34.5 67t11.5 68q0 68 -46.5 117.5t-131.5 49.5h-226l-149 -700h77zM380 390h-177l50 236h158q50 0 78 -26t28 -71q0 -59 -38.5 -99t-98.5 -40zM550 805l-264 -72l12 54l264 72z" />
    <glyph glyph-name="racute" unicode="&#x155;" 
d="M606 525h-124q-48 0 -84.5 -18.5t-55.5 -46.5l12 56h-189l-15 -71h114l-80 -374h-163l-15 -71h439l15 71h-201l54 253q13 64 53.5 97t99.5 33h125zM513 651l-264 -72l12 54l264 72z" />
    <glyph glyph-name="Rcommaaccent" unicode="&#x156;" 
d="M307 318h-120l-67 -318h-77l149 700h226q85 0 131.5 -49.5t46.5 -117.5q0 -34 -11.5 -68t-34.5 -67t-65.5 -55t-97.5 -25l119 -318h-80zM203 390h177q60 0 98.5 40t38.5 99q0 45 -28 71t-78 26h-158zM300 -89l-100 -100l-36 37l100 99z" />
    <glyph glyph-name="rcommaaccent" unicode="&#x157;" 
d="M482 525h124l-15 -71h-125q-59 0 -99.5 -33t-53.5 -97l-54 -253h201l-15 -71h-439l15 71h163l80 374h-114l15 71h189l-12 -56q19 28 55.5 46.5t84.5 18.5zM293 -89l-100 -100l-36 37l100 99z" />
    <glyph glyph-name="Rcaron" unicode="&#x158;" 
d="M187 318h120l119 -318h80l-119 318q55 3 97.5 25t65.5 55t34.5 67t11.5 68q0 68 -46.5 117.5t-131.5 49.5h-226l-149 -700h77zM380 390h-177l50 236h158q50 0 78 -26t28 -71q0 -59 -38.5 -99t-98.5 -40zM280 859l137 -72l167 72l-13 -58l-157 -68l-145 77z" />
    <glyph glyph-name="rcaron" unicode="&#x159;" 
d="M606 525h-124q-48 0 -84.5 -18.5t-55.5 -46.5l12 56h-189l-15 -71h114l-80 -374h-163l-15 -71h439l15 71h-201l54 253q13 64 53.5 97t99.5 33h125zM244 705l137 -72l167 72l-13 -58l-157 -68l-145 77z" />
    <glyph glyph-name="Sacute" unicode="&#x15a;" 
d="M506 194q0 130 -127 178l-81 31q-80 30 -80 113q0 52 36 86t99 34q57 0 90 -29.5t33 -77.5q0 -5 -1 -13h77q1 7 1 20q-2 83 -58 128.5t-139 45.5q-101 0 -158 -55t-57 -146q0 -128 131 -179l81 -31q76 -29 76 -113q0 -56 -38 -89t-104 -33q-63 0 -103 33t-40 95q0 7 1 15
h-78q-1 -6 -1 -22q0 -92 64.5 -143.5t150.5 -51.5q113 0 169 57.5t56 146.5zM527 805l-264 -72l12 54l264 72z" />
    <glyph glyph-name="sacute" unicode="&#x15b;" 
d="M435 365h75q1 8 1 17q0 65 -48 106.5t-123 41.5q-89 0 -137 -44t-48 -115q0 -48 29.5 -82t79.5 -49l67 -20q68 -21 68 -76q0 -43 -33 -63t-75 -20q-54 0 -89.5 23.5t-35.5 70.5v10h-75q-1 -5 -1 -16q0 -76 57 -117.5t134 -41.5q96 0 145 45.5t49 123.5q0 93 -119 129
l-67 20q-58 17 -58 72q0 38 30.5 58.5t72.5 20.5t71.5 -22.5t29.5 -64.5v-7zM513 651l-264 -72l12 54l264 72z" />
    <glyph glyph-name="Scircumflex" unicode="&#x15c;" 
d="M506 194q0 130 -127 178l-81 31q-80 30 -80 113q0 52 36 86t99 34q57 0 90 -29.5t33 -77.5q0 -5 -1 -13h77q1 7 1 20q-2 83 -58 128.5t-139 45.5q-101 0 -158 -55t-57 -146q0 -128 131 -179l81 -31q76 -29 76 -113q0 -56 -38 -89t-104 -33q-63 0 -103 33t-40 95q0 7 1 15
h-78q-1 -6 -1 -22q0 -92 64.5 -143.5t150.5 -51.5q113 0 169 57.5t56 146.5zM543 733l-137 72l-167 -72l13 58l157 68l145 -77z" />
    <glyph glyph-name="scircumflex" unicode="&#x15d;" 
d="M435 365h75q1 8 1 17q0 65 -48 106.5t-123 41.5q-89 0 -137 -44t-48 -115q0 -48 29.5 -82t79.5 -49l67 -20q68 -21 68 -76q0 -43 -33 -63t-75 -20q-54 0 -89.5 23.5t-35.5 70.5v10h-75q-1 -5 -1 -16q0 -76 57 -117.5t134 -41.5q96 0 145 45.5t49 123.5q0 93 -119 129
l-67 20q-58 17 -58 72q0 38 30.5 58.5t72.5 20.5t71.5 -22.5t29.5 -64.5v-7zM528 579l-137 72l-167 -72l13 58l157 68l145 -77z" />
    <glyph glyph-name="Scedilla" unicode="&#x15e;" 
d="M506 194q0 -89 -56 -146.5t-169 -57.5q-86 0 -150.5 51.5t-64.5 143.5q0 16 1 22h78q-1 -8 -1 -15q0 -62 40 -95t103 -33q66 0 104 33t38 89q0 84 -76 113l-81 31q-131 51 -131 179q0 91 57 146t158 55q83 0 139 -45.5t58 -128.5q0 -13 -1 -20h-77q1 8 1 13
q0 48 -33 77.5t-90 29.5q-63 0 -99 -34t-36 -86q0 -83 80 -113l81 -31q127 -48 127 -178zM141 -134h84l18 84h50l-29 -134h-134z" />
    <glyph glyph-name="scedilla" unicode="&#x15f;" 
d="M510 365h-75v7q0 42 -29.5 64.5t-71.5 22.5t-72.5 -20.5t-30.5 -58.5q0 -55 58 -72l67 -20q119 -36 119 -129q0 -78 -49 -123.5t-145 -45.5q-77 0 -134 41.5t-57 117.5q0 11 1 16h75v-10q0 -47 35.5 -70.5t89.5 -23.5q42 0 75 20t33 63q0 55 -68 76l-67 20
q-50 15 -79.5 49t-29.5 82q0 71 48 115t137 44q75 0 123 -41.5t48 -106.5q0 -9 -1 -17zM144 -134h84l18 84h50l-29 -134h-134z" />
    <glyph glyph-name="Scaron" unicode="&#x160;" 
d="M506 194q0 130 -127 178l-81 31q-80 30 -80 113q0 52 36 86t99 34q57 0 90 -29.5t33 -77.5q0 -5 -1 -13h77q1 7 1 20q-2 83 -58 128.5t-139 45.5q-101 0 -158 -55t-57 -146q0 -128 131 -179l81 -31q76 -29 76 -113q0 -56 -38 -89t-104 -33q-63 0 -103 33t-40 95q0 7 1 15
h-78q-1 -6 -1 -22q0 -92 64.5 -143.5t150.5 -51.5q113 0 169 57.5t56 146.5zM260 859l137 -72l167 72l-13 -58l-157 -68l-145 77z" />
    <glyph glyph-name="scaron" unicode="&#x161;" 
d="M435 365h75q1 8 1 17q0 65 -48 106.5t-123 41.5q-89 0 -137 -44t-48 -115q0 -48 29.5 -82t79.5 -49l67 -20q68 -21 68 -76q0 -43 -33 -63t-75 -20q-54 0 -89.5 23.5t-35.5 70.5v10h-75q-1 -5 -1 -16q0 -76 57 -117.5t134 -41.5q96 0 145 45.5t49 123.5q0 93 -119 129
l-67 20q-58 17 -58 72q0 38 30.5 58.5t72.5 20.5t71.5 -22.5t29.5 -64.5v-7zM245 705l137 -72l167 72l-13 -58l-157 -68l-145 77z" />
    <glyph glyph-name="Tcommaaccent" unicode="&#x162;" 
d="M343 626h-187l16 74h451l-16 -74h-187l-133 -626h-77zM291 -89l-100 -100l-36 37l100 99z" />
    <glyph glyph-name="tcommaaccent" unicode="&#x163;" 
d="M550 445h-217q-73 -342 -73 -347q0 -27 41 -27h169l-15 -71h-169q-48 0 -73.5 23t-25.5 64q0 25 71 358h-147l15 71h147l25 117h75l-25 -117h217zM352 -89l-100 -100l-36 37l100 99z" />
    <glyph glyph-name="Tcaron" unicode="&#x164;" 
d="M343 626h-187l16 74h451l-16 -74h-187l-133 -626h-77zM275 859l137 -72l167 72l-13 -58l-157 -68l-145 77z" />
    <glyph glyph-name="tcaron" unicode="&#x165;" 
d="M520 700l-21 -97l-24 -32h-62l41 54l16 75h50zM333 445h217l15 71h-217l25 117h-75l-25 -117h-147l-15 -71h147q-71 -333 -71 -358q0 -41 25.5 -64t73.5 -23h169l15 71h-169q-41 0 -41 27q0 5 73 347z" />
    <glyph glyph-name="Tbar" unicode="&#x166;" 
d="M343 626h-187l16 74h451l-16 -74h-187l-54 -253h127l-9 -45h-128l-69 -328h-77l69 328h-106l9 45h107z" />
    <glyph glyph-name="tbar" unicode="&#x167;" 
d="M550 445h-217l-28 -128h217l-9 -43h-217q-36 -170 -36 -176q0 -27 41 -27h169l-15 -71h-169q-48 0 -73.5 23t-25.5 64q0 27 34 187h-147l9 43h147l28 128h-147l15 71h147l25 117h75l-25 -117h217z" />
    <glyph glyph-name="Utilde" unicode="&#x168;" 
d="M141 175q0 -111 127 -111q69 0 115 42t63 121l104 473h77l-104 -473q-26 -119 -89.5 -178t-176.5 -59q-83 0 -138 45.5t-55 133.5q0 12 5.5 43.5t17 87.5l23 108l31.5 141l33 151h77q-110 -495 -110 -525zM578 797l-113 -60l-91 66l-124 -66l14 63l113 60l91 -66l124 66z
" />
    <glyph glyph-name="utilde" unicode="&#x169;" 
d="M248 -10q-64 0 -114 40t-50 107q0 23 35 191l40 188h75l-40 -187q-34 -161 -34 -181q0 -42 30 -64.5t73 -22.5q58 0 97.5 33.5t52.5 96.5l69 325h75l-110 -516h-75l12 55q-19 -27 -55 -46t-81 -19zM542 640l-113 -60l-91 66l-124 -66l14 63l113 60l91 -66l124 66z" />
    <glyph glyph-name="Umacron" unicode="&#x16a;" 
d="M141 175q0 -111 127 -111q69 0 115 42t63 121l104 473h77l-104 -473q-26 -119 -89.5 -178t-176.5 -59q-83 0 -138 45.5t-55 133.5q0 12 5.5 43.5t17 87.5l23 108l31.5 141l33 151h77q-110 -495 -110 -525zM555 774h-312l11 50h312z" />
    <glyph glyph-name="umacron" unicode="&#x16b;" 
d="M248 -10q-64 0 -114 40t-50 107q0 23 35 191l40 188h75l-40 -187q-34 -161 -34 -181q0 -42 30 -64.5t73 -22.5q58 0 97.5 33.5t52.5 96.5l69 325h75l-110 -516h-75l12 55q-19 -27 -55 -46t-81 -19zM532 620h-312l11 50h312z" />
    <glyph glyph-name="Ubreve" unicode="&#x16c;" 
d="M141 175q0 -111 127 -111q69 0 115 42t63 121l104 473h77l-104 -473q-26 -119 -89.5 -178t-176.5 -59q-83 0 -138 45.5t-55 133.5q0 12 5.5 43.5t17 87.5l23 108l31.5 141l33 151h77q-110 -495 -110 -525zM439 743h-60q-39 0 -64.5 25t-25.5 63q0 15 2 23h47
q-1 -5 -1 -13q0 -21 14 -35t36 -14h55q29 0 51.5 19.5t27.5 42.5h52q-10 -48 -46.5 -79.5t-87.5 -31.5z" />
    <glyph glyph-name="ubreve" unicode="&#x16d;" 
d="M248 -10q-64 0 -114 40t-50 107q0 23 35 191l40 188h75l-40 -187q-34 -161 -34 -181q0 -42 30 -64.5t73 -22.5q58 0 97.5 33.5t52.5 96.5l69 325h75l-110 -516h-75l12 55q-19 -27 -55 -46t-81 -19zM404 589h-60q-39 0 -64.5 25t-25.5 63q0 15 2 23h47q-1 -5 -1 -13
q0 -21 14 -35t36 -14h55q29 0 51.5 19.5t27.5 42.5h52q-10 -48 -46.5 -79.5t-87.5 -31.5z" />
    <glyph glyph-name="Uring" unicode="&#x16e;" 
d="M141 175q0 -111 127 -111q69 0 115 42t63 121l104 473h77l-104 -473q-26 -119 -89.5 -178t-176.5 -59q-83 0 -138 45.5t-55 133.5q0 12 5.5 43.5t17 87.5l23 108l31.5 141l33 151h77q-110 -495 -110 -525zM285 765q0 47 33.5 81t80.5 34t81 -34t34 -81t-34 -80.5
t-81 -33.5t-80.5 33.5t-33.5 80.5zM334 765q0 -27 19 -46t46 -19t46.5 19t19.5 46t-19.5 46.5t-46.5 19.5t-46 -19.5t-19 -46.5z" />
    <glyph glyph-name="uring" unicode="&#x16f;" 
d="M248 -10q-64 0 -114 40t-50 107q0 23 35 191l40 188h75l-40 -187q-34 -161 -34 -181q0 -42 30 -64.5t73 -22.5q58 0 97.5 33.5t52.5 96.5l69 325h75l-110 -516h-75l12 55q-19 -27 -55 -46t-81 -19zM246 595q0 47 33.5 81t80.5 34t81 -34t34 -81t-34 -80.5t-81 -33.5
t-80.5 33.5t-33.5 80.5zM295 595q0 -27 19 -46t46 -19t46.5 19t19.5 46t-19.5 46.5t-46.5 19.5t-46 -19.5t-19 -46.5z" />
    <glyph glyph-name="Uhungarumlaut" unicode="&#x170;" 
d="M141 175q0 -111 127 -111q69 0 115 42t63 121l104 473h77l-104 -473q-26 -119 -89.5 -178t-176.5 -59q-83 0 -138 45.5t-55 133.5q0 12 5.5 43.5t17 87.5l23 108l31.5 141l33 151h77q-110 -495 -110 -525zM571 788l-126 -35l12 54l126 35zM385 788l-126 -35l12 54l126 35
z" />
    <glyph glyph-name="uhungarumlaut" unicode="&#x171;" 
d="M248 -10q-64 0 -114 40t-50 107q0 23 35 191l40 188h75l-40 -187q-34 -161 -34 -181q0 -42 30 -64.5t73 -22.5q58 0 97.5 33.5t52.5 96.5l69 325h75l-110 -516h-75l12 55q-19 -27 -55 -46t-81 -19zM536 634l-126 -35l12 54l126 35zM350 634l-126 -35l12 54l126 35z" />
    <glyph glyph-name="Uogonek" unicode="&#x172;" 
d="M323 -137l-10 -49q-12 -3 -26 -3q-36 0 -59.5 26t-23.5 60q0 61 48 93q-81 2 -134.5 47.5t-53.5 131.5q0 12 5.5 43.5t17 87.5l23 108l31.5 141l33 151h77q-110 -495 -110 -525q0 -111 127 -111q69 0 115 42t63 121l104 473h77l-104 -473q-36 -161 -138 -211
q-4 -2 -26 -12t-31 -14.5t-27 -16t-26 -20t-15 -22t-7 -27.5q0 -44 46 -44q12 0 24 3z" />
    <glyph glyph-name="uogonek" unicode="&#x173;" 
d="M248 -10q-64 0 -114 40t-50 107q0 23 35 191l40 188h75l-40 -187q-34 -161 -34 -181q0 -42 30 -64.5t73 -22.5q58 0 97.5 33.5t52.5 96.5l69 325h75l-110 -516q-100 -38 -100 -96q0 -44 46 -44q12 0 24 3l-10 -49q-12 -3 -26 -3q-36 0 -59.5 26t-23.5 60q0 37 20.5 64
t53.5 39l12 55q-19 -27 -55 -46t-81 -19z" />
    <glyph glyph-name="Wcircumflex" unicode="&#x174;" 
d="M408 600l1 -440l184 540h79l-249 -700h-69l-5 457l-205 -457h-69l49 700h75l-44 -532l191 432h62zM562 733l-137 72l-167 -72l13 58l157 68l145 -77z" />
    <glyph glyph-name="wcircumflex" unicode="&#x175;" 
d="M378 436l22 -304l138 384h75l-192 -516h-67l-27 348l-181 -348h-67l26 516h72l-21 -370l148 290h74zM530 579l-137 72l-167 -72l13 58l157 68l145 -77z" />
    <glyph glyph-name="Ycircumflex" unicode="&#x176;" 
d="M288 0l59 278l321 422h-86l-263 -346l-115 346h-75l141 -421l-59 -279h77zM561 733l-137 72l-167 -72l13 58l157 68l145 -77z" />
    <glyph glyph-name="ycircumflex" unicode="&#x177;" 
d="M210 -10l-41 -72q-17 -31 -53 -31h-56l-15 -71h47q51 1 79.5 12.5t45.5 40.5l370 647h-81l-240 -427l-62 427h-73zM529 579l-137 72l-167 -72l13 58l157 68l145 -77z" />
    <glyph glyph-name="Ydieresis" unicode="&#x178;" 
d="M288 0l59 278l321 422h-86l-263 -346l-115 346h-75l141 -421l-59 -279h77zM255 761l17 76h76l-17 -76h-76zM491 761l17 76h76l-17 -76h-76z" />
    <glyph glyph-name="Zacute" unicode="&#x179;" 
d="M473 0h-456l16 74l473 552h-352l16 74h447l-16 -74l-473 -552h361zM540 805l-264 -72l12 54l264 72z" />
    <glyph glyph-name="zacute" unicode="&#x17a;" 
d="M529 445l-363 -374h291l-15 -71h-388l15 71l363 374h-278l15 71h375zM509 651l-264 -72l12 54l264 72z" />
    <glyph glyph-name="Zdotaccent" unicode="&#x17b;" 
d="M473 0h-456l16 74l473 552h-352l16 74h447l-16 -74l-473 -552h361zM368 761l17 76h76l-17 -76h-76z" />
    <glyph glyph-name="zdotaccent" unicode="&#x17c;" 
d="M529 445l-363 -374h291l-15 -71h-388l15 71l363 374h-278l15 71h375zM337 607l17 76h76l-17 -76h-76z" />
    <glyph glyph-name="Zcaron" unicode="&#x17d;" 
d="M473 0h-456l16 74l473 552h-352l16 74h447l-16 -74l-473 -552h361zM271 859l137 -72l167 72l-13 -58l-157 -68l-145 77z" />
    <glyph glyph-name="zcaron" unicode="&#x17e;" 
d="M529 445l-363 -374h291l-15 -71h-388l15 71l363 374h-278l15 71h375zM241 705l137 -72l167 72l-13 -58l-157 -68l-145 77z" />
    <glyph glyph-name="longs" unicode="&#x17f;" 
d="M595 629h-169q-27 0 -40 -10.5t-18 -35.5l-124 -583h-75l123 577q15 71 43 97t106 26h169z" />
    <glyph glyph-name="uni0186" unicode="&#x186;" 
d="M254 -10q-83 0 -138 45.5t-55 133.5q0 23 2 38h78q-3 -18 -3 -32q0 -111 127 -111q68 0 114 42t64 121q60 270 60 298q0 111 -127 111q-131 0 -173 -143h-77q28 109 90.5 163t170.5 54q83 0 138 -45.5t55 -133.5q0 -9 -0.5 -15l-1 -12.5t-2.5 -17.5l-4 -22.5t-7.5 -35
l-10.5 -47l-14.5 -67l-19.5 -87.5q-26 -119 -89.5 -178t-176.5 -59z" />
    <glyph glyph-name="uni018F" unicode="&#x18f;" 
d="M205 493h-77q28 109 90.5 163t170.5 54q83 0 138 -45.5t55 -133.5v-12.5t-0.5 -10t-1.5 -12l-2 -13.5t-4 -20t-5.5 -25.5t-7.5 -35.5l-10 -44.5l-13 -58.5l-16 -72q-26 -119 -89.5 -178t-176.5 -59q-83 0 -138 45.5t-55 133.5q0 27 4.5 51.5t37.5 171.5h376
q24 108 24 133q0 111 -127 111q-131 0 -173 -143zM445 227l20 90h-299q-26 -119 -26 -142q0 -111 127 -111q68 0 114 42t64 121z" />
    <glyph glyph-name="uni0190" unicode="&#x190;" 
d="M579 626h-189q-63 0 -102.5 -34t-39.5 -93q0 -45 27 -76.5t76 -31.5h179l-17 -74h-196q-67 0 -110 -36t-43 -99q0 -47 31.5 -77.5t90.5 -30.5h176q0 -1 -0.5 -3t-2 -8.5t-2.5 -12.5t-3 -13.5t-3 -13.5t-2.5 -11.5t-2.5 -8.5v-3h-176q-91 0 -137.5 51t-46.5 122
q0 140 130 204q-47 39 -47 112q0 103 62.5 157t174.5 54h189z" />
    <glyph glyph-name="florin" unicode="&#x192;" 
d="M358 473l-109 -534q-14 -67 -46 -95t-103 -28h-25l15 72h25q27 0 39.5 10t17.5 35l111 540h-73l10 43h73l12 61q13 67 45.5 95t103.5 28h79l-15 -72h-79q-27 0 -39.5 -10t-17.5 -35l-14 -67h127l-10 -43h-127z" />
    <glyph glyph-name="uni019D" unicode="&#x19d;" 
d="M220 565l-120 -565q-20 -96 -69 -140t-139 -44h-55l16 74h50q97 0 120 110l149 700h77l178 -565l120 565h77l-149 -700h-77z" />
    <glyph glyph-name="uni019F" unicode="&#x19f;" 
d="M524 227q-26 -119 -89.5 -178t-176.5 -59q-83 0 -138 45.5t-55 133.5q0 9 0.5 15l1 12.5t2.5 17.5l4 22.5t7.5 35l10.5 47l14.5 67l19.5 87.5q26 119 89.5 178t176.5 59q83 0 138 -45.5t55 -133.5v-12.5t-0.5 -10t-1.5 -12l-2 -13.5t-4 -20t-5.5 -25.5t-7.5 -35.5
l-10 -44.5l-13 -58.5zM142 175q0 -111 127 -111q68 0 114 42t64 121l11 51.5t10 44.5h-299q-27 -121 -27 -148zM202 473l-21 -95h299q27 120 27 147q0 111 -127 111q-68 0 -114 -42t-64 -121z" />
    <glyph glyph-name="Ohorn" unicode="&#x1a0;" 
d="M524 227q-26 -119 -89.5 -178t-176.5 -59q-83 0 -138 45.5t-55 133.5q0 9 0.5 15l1 12.5t2.5 17.5l4 22.5t7.5 35l10.5 47l14.5 67l19.5 87.5q26 119 89.5 178t176.5 59q120 0 168 -82q20 0 33.5 13.5t13.5 33.5q0 4 -2 12l49 23q4 -16 4 -26q0 -87 -79 -104q6 -22 6 -49
v-12.5t-0.5 -10t-1.5 -12l-2 -13.5t-4 -20t-5.5 -25.5t-7.5 -35.5l-10 -44.5l-13 -58.5zM142 175q0 -111 127 -111q68 0 114 42t64 121q60 270 60 298q0 111 -127 111q-68 0 -114 -42t-64 -121q-60 -270 -60 -298z" />
    <glyph glyph-name="ohorn" unicode="&#x1a1;" 
d="M492 192q-23 -108 -81 -155t-156 -47q-71 0 -122 39.5t-51 107.5q0 23 35 191q23 108 81 155t156 47q51 0 94 -21.5t63 -60.5q20 0 33.5 13.5t13.5 33.5q0 4 -2 12l49 23q4 -16 4 -26q0 -90 -83 -104q0 -3 0.5 -8.5t0.5 -8.5q0 -24 -35 -191zM264 61q59 0 99.5 33
t53.5 97q34 161 34 181q0 43 -31 65t-75 22q-59 0 -99.5 -33t-53.5 -97q-34 -161 -34 -181q0 -43 31 -65t75 -22z" />
    <glyph glyph-name="Uhorn" unicode="&#x1af;" 
d="M600 578l-77 -351q-26 -119 -89.5 -178t-176.5 -59q-83 0 -138 45.5t-55 133.5q0 12 5.5 43.5t17 87.5l23 108l31.5 141l33 151h77q-110 -495 -110 -525q0 -111 127 -111q69 0 115 42t63 121l104 473h77l-16 -72q20 0 33.5 13.5t13.5 33.5q0 4 -2 12l49 23q4 -16 4 -26
q0 -46 -26.5 -76t-82.5 -30z" />
    <glyph glyph-name="uhorn" unicode="&#x1b0;" 
d="M248 -10q-64 0 -114 40t-50 107q0 23 35 191l40 188h75l-40 -187q-34 -161 -34 -181q0 -42 30 -64.5t73 -22.5q58 0 97.5 33.5t52.5 96.5l69 325h75l-15 -68q20 0 33.5 13.5t13.5 33.5q0 4 -2 12l49 23q4 -16 4 -26q0 -46 -26 -76t-82 -30l-85 -398h-75l12 55
q-19 -27 -55 -46t-81 -19z" />
    <glyph glyph-name="Aringacute" unicode="&#x1fa;" 
d="M298 765q0 47 33.5 81t80.5 34t81 -34t34 -81q0 -38 -22.5 -68t-58.5 -41l72 -656h-72l-21 198h-258l-105 -198h-81l360 675q-43 33 -43 90zM417 267l-36 333l-177 -333h213zM347 765q0 -27 19.5 -46.5t46.5 -19.5t46 19.5t19 46.5t-19.5 46.5t-46.5 19.5t-46 -19.5
t-19 -46.5zM576 947l-264 -72l12 54l264 72z" />
    <glyph glyph-name="aringacute" unicode="&#x1fb;" 
d="M257 595q0 47 33.5 81t80.5 34t81 -34t34 -81q0 -52 -42 -87q78 -41 78 -125q0 -24 -35 -191l-3 -14.5l-7.5 -35l-10 -47.5l-9.5 -45l-8 -36l-3 -14h-75l12 55q-20 -30 -60.5 -47.5t-89.5 -17.5q-76 0 -121 41t-45 97q0 67 30 104t103 59q63 19 239 29q7 39 7 52
q0 43 -31 65t-75 22q-109 0 -145 -101h-76q40 140 163 165q-25 31 -25 72zM412 191l13 61q-92 -5 -137 -11t-84 -22q-61 -25 -61 -84q0 -33 27 -53.5t79 -20.5q62 0 106 33t57 97zM306 595q0 -27 19 -46t46 -19t46.5 19t19.5 46t-19.5 46.5t-46.5 19.5t-46 -19.5t-19 -46.5z
M540 805l-264 -72l12 54l264 72z" />
    <glyph glyph-name="AEacute" unicode="&#x1fc;" 
d="M377 317l-51 -243h165l-16 -74h-242l42 198h-105l-106 -198h-83l373 700h270l-16 -74h-165l-50 -235h95l-16 -74h-95zM636 805l-264 -72l12 54l264 72zM208 267h81l55 256z" />
    <glyph glyph-name="aeacute" unicode="&#x1fd;" 
d="M296 401q0 -2 -17 -91h-78q-73 0 -111.5 -35.5t-53.5 -109.5q-8 -43 -8 -56q0 -48 34.5 -83.5t89.5 -35.5q77 0 118 50q13 -20 39.5 -35t56.5 -15q82 0 118.5 42t52.5 130h-75q-17 -101 -86 -101q-30 0 -45.5 16t-15.5 42q0 2 24 122h214q30 152 30 170q0 48 -34.5 83.5
t-89.5 35.5q-77 0 -118 -50q-13 20 -39.5 35t-56.5 15q-82 0 -119 -43t-52 -129h75q6 42 27 71.5t59 29.5q30 0 45.5 -16t15.5 -42zM191 241h74l-23 -106q-18 -74 -80 -74q-30 0 -45.5 16t-15.5 42q0 2 10 46q19 76 80 76zM493 310h-139l5.5 27t6.5 30t7.5 26.5t11.5 27
t15 19t21.5 15t27.5 4.5q30 0 45.5 -16t15.5 -42q0 -11 -17 -91zM513 651l-264 -72l12 54l264 72z" />
    <glyph glyph-name="Oslashacute" unicode="&#x1fe;" 
d="M524 227q-26 -119 -89.5 -178t-176.5 -59q-99 0 -151 58l-65 -81l-34 26l74 92q-17 36 -17 84q0 9 0.5 15l1 12.5t2.5 17.5l4 22.5t7.5 35l10.5 47l14.5 67l19.5 87.5q26 119 89.5 178t176.5 59q96 0 150 -58l65 81l35 -26l-75 -92q18 -39 18 -84v-12.5t-0.5 -10
t-1.5 -12l-2 -13.5t-4 -20t-5.5 -25.5t-7.5 -35.5l-10 -44.5l-13 -58.5zM507 525q0 10 -1 15l-348 -430q31 -46 111 -46q68 0 114 42t64 121q60 270 60 298zM142 175v-16l348 431q-29 46 -110 46q-68 0 -114 -42t-64 -121q-60 -270 -60 -298zM545 805l-264 -72l12 54l264 72
z" />
    <glyph glyph-name="oslashacute" unicode="&#x1ff;" 
d="M492 192q-23 -108 -81 -155t-156 -47q-67 0 -114 33l-46 -56l-36 27l49 61q-26 36 -26 82q0 23 35 191q23 108 81 155t156 47q66 0 113 -33l45 56l36 -27l-49 -60q28 -34 28 -83q0 -24 -35 -191zM264 61q59 0 99.5 33t53.5 97q34 161 34 181q0 14 -5 29l-257 -318
q29 -22 75 -22zM158 148q0 -16 4 -27l256 317q-30 21 -73 21q-59 0 -99.5 -33t-53.5 -97q-34 -161 -34 -181zM512 651l-264 -72l12 54l264 72z" />
    <glyph glyph-name="Scommaaccent" unicode="&#x218;" 
d="M506 194q0 -89 -56 -146.5t-169 -57.5q-86 0 -150.5 51.5t-64.5 143.5q0 16 1 22h78q-1 -8 -1 -15q0 -62 40 -95t103 -33q66 0 104 33t38 89q0 84 -76 113l-81 31q-131 51 -131 179q0 91 57 146t158 55q83 0 139 -45.5t58 -128.5q0 -13 -1 -20h-77q1 8 1 13
q0 48 -33 77.5t-90 29.5q-63 0 -99 -34t-36 -86q0 -83 80 -113l81 -31q127 -48 127 -178zM313 -89l-100 -100l-36 37l100 99z" />
    <glyph glyph-name="scommaaccent" unicode="&#x219;" 
d="M510 365h-75v7q0 42 -29.5 64.5t-71.5 22.5t-72.5 -20.5t-30.5 -58.5q0 -55 58 -72l67 -20q119 -36 119 -129q0 -78 -49 -123.5t-145 -45.5q-77 0 -134 41.5t-57 117.5q0 11 1 16h75v-10q0 -47 35.5 -70.5t89.5 -23.5q42 0 75 20t33 63q0 55 -68 76l-67 20
q-50 15 -79.5 49t-29.5 82q0 71 48 115t137 44q75 0 123 -41.5t48 -106.5q0 -9 -1 -17zM311 -89l-100 -100l-36 37l100 99z" />
    <glyph glyph-name="uni021C" unicode="&#x21c;" 
d="M115 493q28 109 90 163t173 54q80 0 135.5 -46t55.5 -133q0 -91 -55 -158t-118 -92q86 -42 86 -140q0 -77 -39.5 -139.5t-106 -102t-151 -61t-177.5 -22.5l4 18l8 38l4 19q91 0 176 26.5t144 82t59 128.5q0 51 -32 80.5t-87 29.5q-37 0 -68 -10l16 74q36 4 76 18t83.5 39
t72 68.5t28.5 97.5q0 111 -127 111q-131 0 -173 -143h-77z" />
    <glyph glyph-name="uni021D" unicode="&#x21d;" 
d="M169 353h-75q26 94 82.5 135.5t150.5 41.5q70 0 120.5 -40.5t50.5 -106.5q0 -75 -39.5 -124.5t-99.5 -73.5q33 -15 51.5 -49t18.5 -73q0 -63 -36.5 -112t-97 -77.5t-131 -43t-147.5 -14.5l15 72q74 2 144 19t123.5 57t53.5 95q0 42 -32.5 65.5t-78.5 23.5q-28 0 -51 -8
l16 72q28 3 59.5 12t69 26.5t62 49t24.5 72.5q0 43 -31 65t-75 22q-112 0 -147 -106z" />
    <glyph glyph-name="uni0226" unicode="&#x226;" 
d="M446 0l-21 198h-258l-105 -198h-81l373 700h88l76 -700h-72zM417 267l-36 333l-177 -333h213zM373 761l17 76h76l-17 -76h-76z" />
    <glyph glyph-name="uni0227" unicode="&#x227;" 
d="M412 191l13 61q-92 -5 -137 -11t-84 -22q-61 -25 -61 -84q0 -33 27 -53.5t79 -20.5q62 0 106 33t57 97zM195 358h-76q26 91 82.5 131.5t147.5 40.5q71 0 122 -39.5t51 -107.5q0 -24 -35 -191l-3 -14.5l-7.5 -35l-10 -47.5l-9.5 -45l-8 -36l-3 -14h-75l12 55
q-20 -30 -60.5 -47.5t-89.5 -17.5q-76 0 -121 41t-45 97q0 67 30 104t103 59q63 19 239 29q7 39 7 52q0 43 -31 65t-75 22q-109 0 -145 -101zM338 607l17 76h76l-17 -76h-76z" />
    <glyph glyph-name="uni0232" unicode="&#x232;" 
d="M288 0l59 278l321 422h-86l-263 -346l-115 346h-75l141 -421l-59 -279h77zM569 774h-312l11 50h312z" />
    <glyph glyph-name="uni0233" unicode="&#x233;" 
d="M210 -10l-41 -72q-17 -31 -53 -31h-56l-15 -71h47q51 1 79.5 12.5t45.5 40.5l370 647h-81l-240 -427l-62 427h-73zM537 620h-312l11 50h312z" />
    <glyph glyph-name="dotlessj" unicode="&#x237;" 
d="M463 516l-123 -577q-15 -71 -43 -97t-106 -26h-218l15 71h218q27 0 40 10.5t18 35.5l109 512h-217l15 71h292z" />
    <glyph glyph-name="uni0254" unicode="&#x254;" 
d="M82 167h75q-2 -16 -2 -19q0 -43 31 -65t75 -22q59 0 99.5 33t53.5 97q34 161 34 181q0 43 -31 65t-75 22q-112 0 -147 -106h-75q26 94 82.5 135.5t148.5 41.5q71 0 122 -39.5t51 -107.5q0 -24 -35 -191q-23 -108 -81 -155t-156 -47q-71 0 -122 39.5t-51 107.5q0 12 3 30z
" />
    <glyph glyph-name="uni0259" unicode="&#x259;" 
d="M105 279h330q15 73 15 93q0 43 -31 65t-75 22q-109 0 -145 -101h-76q26 91 82.5 131.5t147.5 40.5q71 0 122 -39.5t51 -107.5q0 -24 -35 -191q-23 -108 -81 -155t-156 -47q-71 0 -122 39.5t-51 107.5q0 30 24 142zM166 211q-9 -49 -9 -63q0 -43 31 -65t75 -22
q66 0 106.5 39.5t50.5 110.5h-254z" />
    <glyph glyph-name="uni025B" unicode="&#x25b;" 
d="M507 445h-193q-39 -2 -62.5 -22.5t-23.5 -56.5q0 -28 17 -48.5t48 -20.5h183l-16 -71h-196q-42 0 -70 -24t-28 -61q0 -30 17 -50t49 -20h196l-15 -71h-196q-64 0 -95 39t-31 92q0 108 97 146q-35 35 -35 82q0 76 48 116.5t128 40.5h193z" />
    <glyph glyph-name="uni0272" unicode="&#x272;" 
d="M158 516h75l-11 -51q19 28 55.5 46.5t84.5 18.5q65 0 115.5 -40t50.5 -107q0 -24 -35 -191l-41 -192h-75l41 191q34 149 34 181q0 43 -31 65t-75 22q-59 0 -99.5 -33t-53.5 -97l-83 -390q-15 -71 -43 -97t-106 -26h-15l15 71h15q27 0 40 10.5t18 35.5z" />
    <glyph glyph-name="uni0275" unicode="&#x275;" 
d="M492 192q-23 -108 -81 -155t-156 -47q-71 0 -122 39.5t-51 107.5q0 23 35 191q23 108 81 155t156 47q71 0 122 -39.5t51 -107.5q0 -24 -35 -191zM264 61q59 0 99.5 33t53.5 97q1 7 4.5 21.5t4.5 21.5h-255q-13 -67 -13 -86q0 -43 31 -65t75 -22zM192 329l-10 -42h256
q13 65 13 85q0 43 -31 65t-75 22q-59 0 -99.5 -33t-53.5 -97z" />
    <glyph glyph-name="circumflex" unicode="&#x2c6;" 
d="M527 579l-137 72l-167 -72l13 58l157 68l145 -77z" />
    <glyph glyph-name="caron" unicode="&#x2c7;" 
d="M237 705l137 -72l167 72l-13 -58l-157 -68l-145 77z" />
    <glyph glyph-name="breve" unicode="&#x2d8;" 
d="M392 589h-60q-39 0 -64.5 25t-25.5 63q0 15 2 23h47q-1 -5 -1 -13q0 -21 14 -35t36 -14h55q29 0 51.5 19.5t27.5 42.5h52q-10 -48 -46.5 -79.5t-87.5 -31.5z" />
    <glyph glyph-name="dotaccent" unicode="&#x2d9;" 
d="M337 607l17 76h76l-17 -76h-76z" />
    <glyph glyph-name="ring" unicode="&#x2da;" 
d="M270 595q0 47 33.5 81t80.5 34t81 -34t34 -81t-34 -80.5t-81 -33.5t-80.5 33.5t-33.5 80.5zM319 595q0 -27 19 -46t46 -19t46.5 19t19.5 46t-19.5 46.5t-46.5 19.5t-46 -19.5t-19 -46.5z" />
    <glyph glyph-name="ogonek" unicode="&#x2db;" 
d="M272 -137l-10 -49q-12 -3 -26 -3q-36 0 -59.5 26t-23.5 60q0 37 19 64t47 39h83q-100 -38 -100 -96q0 -44 46 -44q12 0 24 3z" />
    <glyph glyph-name="tilde" unicode="&#x2dc;" 
d="M540 640l-113 -60l-91 66l-124 -66l14 63l113 60l91 -66l124 66z" />
    <glyph glyph-name="hungarumlaut" unicode="&#x2dd;" 
d="M348 634l-126 -35l12 54l126 35zM534 634l-126 -35l12 54l126 35z" />
    <glyph glyph-name="uni032C" unicode="&#x32c;" 
d="M91 -5l137 -72l167 72l-13 -58l-157 -68l-145 77z" />
    <glyph glyph-name="pi" unicode="&#x3c0;" 
d="M150 466h-73l11 50h542l-11 -50h-73l-98 -466h-53l98 466h-290l-98 -466h-53z" />
    <glyph glyph-name="Wgrave" unicode="&#x1e80;" 
d="M408 600l1 -440l184 540h79l-249 -700h-69l-5 457l-205 -457h-69l49 700h75l-44 -532l191 432h62zM546 739l-264 72l10 48l264 -72z" />
    <glyph glyph-name="wgrave" unicode="&#x1e81;" 
d="M378 436l22 -304l138 384h75l-192 -516h-67l-27 348l-181 -348h-67l26 516h72l-21 -370l148 290h74zM513 585l-264 72l10 48l264 -72z" />
    <glyph glyph-name="Wacute" unicode="&#x1e82;" 
d="M408 600l1 -440l184 540h79l-249 -700h-69l-5 457l-205 -457h-69l49 700h75l-44 -532l191 432h62zM545 805l-264 -72l12 54l264 72z" />
    <glyph glyph-name="wacute" unicode="&#x1e83;" 
d="M378 436l22 -304l138 384h75l-192 -516h-67l-27 348l-181 -348h-67l26 516h72l-21 -370l148 290h74zM512 651l-264 -72l12 54l264 72z" />
    <glyph glyph-name="Wdieresis" unicode="&#x1e84;" 
d="M408 600l1 -440l184 540h79l-249 -700h-69l-5 457l-205 -457h-69l49 700h75l-44 -532l191 432h62zM255 761l17 76h76l-17 -76h-76zM491 761l17 76h76l-17 -76h-76z" />
    <glyph glyph-name="wdieresis" unicode="&#x1e85;" 
d="M378 436l22 -304l138 384h75l-192 -516h-67l-27 348l-181 -348h-67l26 516h72l-21 -370l148 290h74zM222 607l17 76h76l-17 -76h-76zM458 607l17 76h76l-17 -76h-76z" />
    <glyph glyph-name="uni1EA0" unicode="&#x1ea0;" 
d="M446 0l-21 198h-258l-105 -198h-81l373 700h88l76 -700h-72zM417 267l-36 333l-177 -333h213zM176 -163l17 76h76l-17 -76h-76z" />
    <glyph glyph-name="uni1EA1" unicode="&#x1ea1;" 
d="M412 191l13 61q-92 -5 -137 -11t-84 -22q-61 -25 -61 -84q0 -33 27 -53.5t79 -20.5q62 0 106 33t57 97zM195 358h-76q26 91 82.5 131.5t147.5 40.5q71 0 122 -39.5t51 -107.5q0 -24 -35 -191l-3 -14.5l-7.5 -35l-10 -47.5l-9.5 -45l-8 -36l-3 -14h-75l12 55
q-20 -30 -60.5 -47.5t-89.5 -17.5q-76 0 -121 41t-45 97q0 67 30 104t103 59q63 19 239 29q7 39 7 52q0 43 -31 65t-75 22q-109 0 -145 -101zM169 -163l17 76h76l-17 -76h-76z" />
    <glyph glyph-name="uni1EB8" unicode="&#x1eb8;" 
d="M205 317l-52 -243h321l-16 -74h-398l149 700h398l-16 -74h-321l-50 -235h251l-16 -74h-250zM186 -163l17 76h76l-17 -76h-76z" />
    <glyph glyph-name="uni1EB9" unicode="&#x1eb9;" 
d="M504 241h-330q-15 -73 -15 -93q0 -43 31 -65t75 -22q109 0 145 101h76q-26 -91 -82.5 -131.5t-147.5 -40.5q-71 0 -122 39.5t-51 107.5q0 23 35 191q23 108 81 155t156 47q71 0 122 -39.5t51 -107.5q0 -30 -24 -142zM443 309q9 49 9 63q0 43 -31 65t-75 22
q-66 0 -106.5 -39.5t-50.5 -110.5h254zM177 -163l17 76h76l-17 -76h-76z" />
    <glyph glyph-name="uni1ECA" unicode="&#x1eca;" 
d="M582 626h-161l-117 -552h161l-16 -74h-399l16 74h161l117 552h-161l16 74h399zM175 -163l17 76h76l-17 -76h-76z" />
    <glyph glyph-name="uni1ECB" unicode="&#x1ecb;" 
d="M177 445l16 71h207l-95 -445h182l-15 -71h-439l15 71h182l80 374h-133zM316 590l23 110h110l-23 -110h-110zM178 -163l17 76h76l-17 -76h-76z" />
    <glyph glyph-name="uni1ECC" unicode="&#x1ecc;" 
d="M524 227q-26 -119 -89.5 -178t-176.5 -59q-83 0 -138 45.5t-55 133.5q0 9 0.5 15l1 12.5t2.5 17.5l4 22.5t7.5 35l10.5 47l14.5 67l19.5 87.5q26 119 89.5 178t176.5 59q83 0 138 -45.5t55 -133.5v-12.5t-0.5 -10t-1.5 -12l-2 -13.5t-4 -20t-5.5 -25.5t-7.5 -35.5
l-10 -44.5l-13 -58.5zM142 175q0 -111 127 -111q68 0 114 42t64 121q60 270 60 298q0 111 -127 111q-68 0 -114 -42t-64 -121q-60 -270 -60 -298zM176 -163l17 76h76l-17 -76h-76z" />
    <glyph glyph-name="uni1ECD" unicode="&#x1ecd;" 
d="M492 192q-23 -108 -81 -155t-156 -47q-71 0 -122 39.5t-51 107.5q0 23 35 191q23 108 81 155t156 47q71 0 122 -39.5t51 -107.5q0 -24 -35 -191zM264 61q59 0 99.5 33t53.5 97q34 161 34 181q0 43 -31 65t-75 22q-59 0 -99.5 -33t-53.5 -97q-34 -161 -34 -181
q0 -43 31 -65t75 -22zM176 -163l17 76h76l-17 -76h-76z" />
    <glyph glyph-name="uni1EE4" unicode="&#x1ee4;" 
d="M141 175q0 -111 127 -111q69 0 115 42t63 121l104 473h77l-104 -473q-26 -119 -89.5 -178t-176.5 -59q-83 0 -138 45.5t-55 133.5q0 12 5.5 43.5t17 87.5l23 108l31.5 141l33 151h77q-110 -495 -110 -525zM179 -163l17 76h76l-17 -76h-76z" />
    <glyph glyph-name="uni1EE5" unicode="&#x1ee5;" 
d="M248 -10q-64 0 -114 40t-50 107q0 23 35 191l40 188h75l-40 -187q-34 -161 -34 -181q0 -42 30 -64.5t73 -22.5q58 0 97.5 33.5t52.5 96.5l69 325h75l-110 -516h-75l12 55q-19 -27 -55 -46t-81 -19zM174 -163l17 76h76l-17 -76h-76z" />
    <glyph glyph-name="Ygrave" unicode="&#x1ef2;" 
d="M288 0l59 278l321 422h-86l-263 -346l-115 346h-75l141 -421l-59 -279h77zM546 739l-264 72l10 48l264 -72z" />
    <glyph glyph-name="ygrave" unicode="&#x1ef3;" 
d="M210 -10l-41 -72q-17 -31 -53 -31h-56l-15 -71h47q51 1 79.5 12.5t45.5 40.5l370 647h-81l-240 -427l-62 427h-73zM513 585l-264 72l10 48l264 -72z" />
    <glyph glyph-name="endash" unicode="&#x2013;" 
d="M503 258h-396l9 45h396z" />
    <glyph glyph-name="emdash" unicode="&#x2014;" 
d="M535 258h-459l9 45h459z" />
    <glyph glyph-name="quoteleft" unicode="&#x2018;" 
d="M440 686l-87 -219l-46 19l87 219z" />
    <glyph glyph-name="quoteright" unicode="&#x2019;" 
d="M440 686l-87 -219l-46 19l87 219z" />
    <glyph glyph-name="quotesinglbase" unicode="&#x201a;" 
d="M316 100l-87 -219l-46 19l87 219z" />
    <glyph glyph-name="quotedblleft" unicode="&#x201c;" 
d="M552 686l-87 -219l-46 19l87 219zM329 686l-87 -219l-46 19l87 219z" />
    <glyph glyph-name="quotedblright" unicode="&#x201d;" 
d="M552 686l-87 -219l-46 19l87 219zM329 686l-87 -219l-46 19l87 219z" />
    <glyph glyph-name="quotedblbase" unicode="&#x201e;" 
d="M427 100l-87 -219l-46 19l87 219zM204 100l-87 -219l-46 19l87 219z" />
    <glyph glyph-name="dagger" unicode="&#x2020;" 
d="M547 473h-176l-119 -560h-43l119 560h-176l9 43h176l39 184h43l-39 -184h176z" />
    <glyph glyph-name="daggerdbl" unicode="&#x2021;" 
d="M467 97h-176l-39 -184h-43l39 184h-176l9 43h176l71 333h-176l9 43h176l39 184h43l-39 -184h176l-9 -43h-176l-71 -333h176z" />
    <glyph glyph-name="bullet" unicode="&#x2022;" 
d="M155 348q0 70 49 119t119 49t119 -49t49 -119t-49 -119t-119 -49t-119 49t-49 119z" />
    <glyph glyph-name="ellipsis" unicode="&#x2026;" 
d="M35 0l23 105h105l-23 -105h-105zM238 0l23 105h105l-23 -105h-105zM441 0l23 105h105l-23 -105h-105z" />
    <glyph glyph-name="perthousand" unicode="&#x2030;" 
d="M75 567q0 57 40 97.5t97 40.5t97.5 -40.5t40.5 -97.5t-40.5 -97t-97.5 -40t-97 40t-40 97zM235 86q0 38 26.5 65t64.5 27q52 0 79 -45q27 45 78 45q38 0 65 -27t27 -65t-27 -64.5t-65 -26.5q-52 0 -78 44q-26 -44 -79 -44q-38 0 -64.5 26.5t-26.5 64.5zM92 150l434 435
l32 -32l-434 -435zM137 567q0 -32 21.5 -54t53.5 -22t54 22t22 54t-22 54.5t-54 22.5t-53.5 -22.5t-21.5 -54.5zM431 86q0 -22 15 -37t37 -15t37.5 15t15.5 37t-15.5 37.5t-37.5 15.5t-37 -15.5t-15 -37.5zM274 86q0 -22 15 -37t37 -15t37.5 15t15.5 37t-15.5 37.5
t-37.5 15.5t-37 -15.5t-15 -37.5z" />
    <glyph glyph-name="guilsinglleft" unicode="&#x2039;" 
d="M338 48l-165 210l254 210l29 -34l-221 -182l137 -176z" />
    <glyph glyph-name="guilsinglright" unicode="&#x203a;" 
d="M270 468l165 -210l-254 -210l-29 34l221 182l-137 176z" />
    <glyph glyph-name="fraction" unicode="&#x2044;" 
d="M71 150l434 435l32 -32l-434 -435z" />
    <glyph glyph-name="zero.superior" unicode="&#x2070;" 
d="M346 395q-48 0 -80.5 32t-32.5 78q0 22 34 180q27 128 141 128q47 0 79.5 -32t32.5 -78q0 -15 -34 -180q-27 -128 -140 -128zM350 456q56 0 71 66q17 77 26 124l-150 -123q-1 -8 -1 -14q0 -23 14.5 -38t39.5 -15zM457 699q0 22 -14.5 37.5t-38.5 15.5q-57 0 -72 -66
q-26 -122 -27 -125l150 123q0 3 0.5 5.5t1 4t0.5 3v2.5z" />
    <glyph glyph-name="four.superior" unicode="&#x2074;" 
d="M427 401h-65l20 98h-179l14 61l234 250l46 -40l-197 -210h96l18 84h65l-18 -84h42l-13 -61h-43z" />
    <glyph glyph-name="five.superior" unicode="&#x2075;" 
d="M344 395q-47 0 -79.5 32t-32.5 78q0 9 1 17h64q-2 -12 -2 -13q0 -22 14.5 -37.5t38.5 -15.5q57 0 72 66q5 27 5 28q0 22 -15 37t-39 15q-37 0 -56 -29l-57 51l80 183h181l-14 -61h-128l-37 -89q16 7 35 7q48 0 80.5 -32.5t32.5 -77.5q0 -16 -3 -31q-27 -128 -141 -128z
" />
    <glyph glyph-name="six.superior" unicode="&#x2076;" 
d="M345 395q-48 0 -80 32t-32 78q0 16 3 31q10 54 44 91l173 183l47 -40l-102 -109q5 0 15 -2q31 -9 53.5 -39.5t22.5 -65.5q0 -16 -3 -31q-27 -128 -141 -128zM349 456q29 0 47 18.5t24 47.5q6 24 6 28q0 22 -15 37t-39 15q-28 0 -46.5 -18t-24.5 -47q-5 -21 -5 -28
q0 -22 14.5 -37.5t38.5 -15.5z" />
    <glyph glyph-name="seven.superior" unicode="&#x2077;" 
d="M269 684l26 123h250l-13 -61l-199 -348l-59 22l187 326h-114l-13 -62h-65z" />
    <glyph glyph-name="eight.superior" unicode="&#x2078;" 
d="M345 395q-46 0 -79.5 32.5t-33.5 77.5q0 40 18 73.5t51 51.5q-17 25 -17 58q0 54 32.5 89.5t92.5 35.5q42 0 72 -28.5t30 -72.5q0 -72 -50 -105q25 -32 25 -68q0 -60 -38.5 -102t-102.5 -42zM349 456q32 0 53 22.5t21 56.5q0 22 -15 37t-39 15q-32 0 -53 -22t-21 -56
q0 -22 15 -37.5t39 -15.5zM387 648q28 0 44.5 16t16.5 44q0 17 -12 30.5t-31 13.5q-27 0 -42 -16t-15 -44q0 -18 10.5 -31t28.5 -13z" />
    <glyph glyph-name="nine.superior" unicode="&#x2079;" 
d="M300 398l-47 40l102 109q-4 0 -14 2q-32 9 -54.5 39t-22.5 66q0 16 4 31q27 128 140 128q48 0 80.5 -32t32.5 -78q0 -15 -3 -31q-12 -55 -45 -91zM381 606q57 0 71 65q5 21 5 28q0 22 -14.5 37.5t-38.5 15.5q-56 0 -71 -66q-5 -20 -5 -28q0 -22 14.5 -37t38.5 -15z" />
    <glyph glyph-name="plus.superior" unicode="&#x207a;" 
d="M355 449v102h-102v26h102v101h27v-101h101v-26h-101v-102h-27z" />
    <glyph glyph-name="minus.superior" unicode="&#x207b;" 
d="M483 551h-230v26h230v-26z" />
    <glyph glyph-name="equal.superior" unicode="&#x207c;" 
d="M483 604h-230v26h230v-26zM483 491h-230v26h230v-26z" />
    <glyph glyph-name="parenleft.superior" unicode="&#x207d;" 
d="M382 747q6 32 21.5 46t50.5 14h71l-5 -24h-69q-37 0 -44 -39q-19 -96 -38.5 -185l-27.5 -125.5t-8 -40.5q0 -21 27 -21h73l-6 -24h-72q-47 0 -47 43q0 3 0.5 7t3 14.5t5.5 24.5l9 42l13 61.5l18.5 88.5z" />
    <glyph glyph-name="parenright.superior" unicode="&#x207e;" 
d="M360 408q-6 -32 -21.5 -46t-50.5 -14h-71l5 24h69q37 0 44 39q19 96 38.5 185l27.5 125.5t8 40.5q0 21 -27 21h-73l6 24h72q47 0 47 -43q0 -3 -0.5 -7t-3 -14.5t-5.5 -24.5l-9 -42l-13 -61.5l-18.5 -88.5z" />
    <glyph glyph-name="n.superior" unicode="&#x207f;" 
d="M208 401l63 299h65l-6 -28q9 15 28 25.5t40 10.5q42 0 72 -27.5t30 -72.5q0 -22 -16 -96l-24 -111h-65l24 109q1 9 9.5 46.5t8.5 42.5q0 22 -14.5 35t-42.5 13q-25 0 -43 -15t-23 -39l-41 -192h-65z" />
    <glyph glyph-name="zero.inferior" unicode="&#x2080;" 
d="M240 -103q-48 0 -80.5 32t-32.5 78q0 22 34 180q27 128 141 128q47 0 79.5 -32t32.5 -78q0 -15 -34 -180q-27 -128 -140 -128zM244 -42q56 0 71 66q17 77 26 124l-150 -123q-1 -8 -1 -14q0 -23 14.5 -38t39.5 -15zM351 201q0 22 -14.5 37.5t-38.5 15.5q-57 0 -72 -66
q-26 -122 -27 -125l150 123q0 3 0.5 5.5t1 4t0.5 3v2.5z" />
    <glyph glyph-name="one.inferior" unicode="&#x2081;" 
d="M208 159l-39 49l122 101h65l-74 -345h107l-14 -61h-276l14 61h104l53 246z" />
    <glyph glyph-name="two.inferior" unicode="&#x2082;" 
d="M236 142l-48 -41q-26 31 -26 70q0 60 38.5 102t102.5 42q46 0 79.5 -32.5t33.5 -77.5q0 -39 -16.5 -66.5t-55.5 -61.5l-131 -113h155l-14 -61h-252l13 61l180 154q23 19 32 28t17 23.5t8 31.5q0 22 -14.5 37.5t-38.5 15.5q-33 0 -53.5 -22.5t-20.5 -56.5q0 -19 11 -33z
" />
    <glyph glyph-name="three.inferior" unicode="&#x2083;" 
d="M238 -103q-46 0 -81 32.5t-35 77.5q0 11 1 17h63q-1 -5 -1 -13q0 -21 16.5 -37t40.5 -16q32 0 51 22.5t19 56.5q0 22 -13.5 36.5t-36.5 15.5l13 59h4q25 0 41.5 17t16.5 45q0 17 -12 30.5t-31 13.5q-25 0 -40 -14.5t-17 -39.5h-63q3 51 35 83t89 32q42 0 72 -28.5
t30 -72.5q0 -72 -50 -105q25 -28 25 -67q0 -61 -36.5 -103t-100.5 -42z" />
    <glyph glyph-name="four.inferior" unicode="&#x2084;" 
d="M321 -97h-65l20 98h-179l14 61l234 250l46 -40l-197 -210h96l18 84h65l-18 -84h42l-13 -61h-43z" />
    <glyph glyph-name="five.inferior" unicode="&#x2085;" 
d="M238 -103q-47 0 -79.5 32t-32.5 78q0 9 1 17h64q-2 -12 -2 -13q0 -22 14.5 -37.5t38.5 -15.5q57 0 72 66q5 27 5 28q0 22 -15 37t-39 15q-37 0 -56 -29l-57 51l80 183h181l-14 -61h-128l-37 -89q16 7 35 7q48 0 80.5 -32.5t32.5 -77.5q0 -16 -3 -31q-27 -128 -141 -128z
" />
    <glyph glyph-name="six.inferior" unicode="&#x2086;" 
d="M239 -103q-48 0 -80 32t-32 78q0 16 3 31q10 54 44 91l173 183l47 -40l-102 -109q5 0 15 -2q31 -9 53.5 -39.5t22.5 -65.5q0 -16 -3 -31q-27 -128 -141 -128zM243 -42q29 0 47 18.5t24 47.5q6 24 6 28q0 22 -15 37t-39 15q-28 0 -46.5 -18t-24.5 -47q-5 -21 -5 -28
q0 -22 14.5 -37.5t38.5 -15.5z" />
    <glyph glyph-name="seven.inferior" unicode="&#x2087;" 
d="M163 186l26 123h250l-13 -61l-199 -348l-59 22l187 326h-114l-13 -62h-65z" />
    <glyph glyph-name="eight.inferior" unicode="&#x2088;" 
d="M239 -103q-46 0 -79.5 32.5t-33.5 77.5q0 40 18 73.5t51 51.5q-17 25 -17 58q0 54 32.5 89.5t92.5 35.5q42 0 72 -28.5t30 -72.5q0 -72 -50 -105q25 -32 25 -68q0 -60 -38.5 -102t-102.5 -42zM243 -42q32 0 53 22.5t21 56.5q0 22 -15 37t-39 15q-32 0 -53 -22t-21 -56
q0 -22 15 -37.5t39 -15.5zM281 150q28 0 44.5 16t16.5 44q0 17 -12 30.5t-31 13.5q-27 0 -42 -16t-15 -44q0 -18 10.5 -31t28.5 -13z" />
    <glyph glyph-name="nine.inferior" unicode="&#x2089;" 
d="M194 -100l-47 40l102 109q-4 0 -14 2q-32 9 -54.5 39t-22.5 66q0 16 4 31q27 128 140 128q48 0 80.5 -32t32.5 -78q0 -15 -3 -31q-12 -55 -45 -91zM275 108q57 0 71 65q5 21 5 28q0 22 -14.5 37.5t-38.5 15.5q-56 0 -71 -66q-5 -20 -5 -28q0 -22 14.5 -37t38.5 -15z" />
    <glyph glyph-name="parenleft.inferior" unicode="&#x208d;" 
d="M276 249q6 32 21.5 46t50.5 14h71l-5 -24h-69q-37 0 -44 -39q-19 -96 -38.5 -185l-27.5 -125.5t-8 -40.5q0 -21 27 -21h73l-6 -24h-72q-47 0 -47 43q0 3 0.5 7t3 14.5t5.5 24.5l9 42l13 61.5l18.5 88.5z" />
    <glyph glyph-name="parenright.inferior" unicode="&#x208e;" 
d="M254 -90q-6 -32 -21.5 -46t-50.5 -14h-71l5 24h69q37 0 44 39q19 96 38.5 185l27.5 125.5t8 40.5q0 21 -27 21h-73l6 24h72q47 0 47 -43q0 -3 -0.5 -7t-3 -14.5t-5.5 -24.5l-9 -42l-13 -61.5l-18.5 -88.5z" />
    <glyph glyph-name="Euro" unicode="&#x20ac;" 
d="M410 710q83 0 138 -45.5t55 -133.5q0 -23 -2 -38h-78q3 18 3 32q0 111 -127 111q-68 0 -114 -42t-64 -121l-11 -47h250l-9 -43h-250l-14 -65h250l-9 -43h-251q-16 -77 -16 -100q0 -111 127 -111q131 0 173 143h77q-28 -109 -90.5 -163t-170.5 -54q-83 0 -138 45.5
t-55 133.5q0 30 16 106h-68l9 43h69l14 65h-69l9 43h70l10 47q26 119 89.5 178t176.5 59z" />
    <glyph glyph-name="afii61289" unicode="&#x2113;" 
d="M257 547q19 86 50.5 124.5t90.5 38.5q42 0 63.5 -26.5t21.5 -72.5q0 -91 -65 -195.5t-150 -165.5q-28 -131 -28 -154q0 -52 55 -52q22 0 65 9l3 -31q-66 -32 -113 -32q-39 0 -63 23t-24 68q0 30 16 107l-48 -33l-19 32l78 54zM335 558l-54 -252q67 58 116.5 139t49.5 153
q0 57 -45 57q-46 0 -67 -97z" />
    <glyph glyph-name="trademark" unicode="&#x2122;" 
d="M179 357v279h-101v64h267v-64h-101v-279h-65zM382 357v343h61l72 -171l72 171h61v-343h-64v199l-45 -107h-48l-45 107v-199h-64z" />
    <glyph glyph-name="Omega" unicode="&#x2126;" 
d="M520 521q0 65 -40.5 101t-102.5 36q-71 0 -122 -43t-70 -133q-39 -180 -39 -208q0 -46 23 -79t61 -46l-32 -149h-151l11 52h96l15 67q-78 51 -78 148q0 33 39 215q48 228 254 228q80 0 135.5 -50t55.5 -132q0 -34 -39 -215q-37 -170 -162 -212l-10 -49h96l-11 -52h-151
l30 142q56 11 96.5 53.5t56.5 117.5l12 56l11 51.5t8 40t6 36t2 24.5z" />
    <glyph glyph-name="estimated" unicode="&#x212e;" 
d="M317 609q-68 0 -127 -49q-12 -10 -12 -25v-191q0 -10 10 -10h260q10 0 10 10v191q0 15 -12 25q-58 49 -129 49zM327 -10q-121 0 -201 95.5t-80 231.5q0 129 79 228t192 99t193 -98.5t80 -228.5v-17h-402q-10 0 -10 -10v-191q0 -15 12 -25q59 -49 137 -49q90 0 159 69h50
q-87 -104 -209 -104z" />
    <glyph glyph-name="onethird" unicode="&#x2153;" 
d="M71 150l434 435l32 -32l-434 -435zM423 -4q-29 0 -51.5 21t-22.5 49q0 5 1 11h41q-1 -3 -1 -8q0 -14 10 -23.5t26 -9.5q21 0 33 14t12 36q0 13 -9 22.5t-23 10.5l8 38h4q17 0 27 11t10 29q0 11 -8 19.5t-20 8.5q-34 0 -37 -34h-41q2 33 23.5 53.5t57.5 20.5
q27 0 46 -18.5t19 -46.5q0 -47 -32 -68q16 -19 16 -43q0 -40 -24 -66.5t-65 -26.5zM145 603l-25 32l79 65h42l-48 -221h69l-9 -40h-178l9 40h67l34 158z" />
    <glyph glyph-name="twothirds" unicode="&#x2154;" 
d="M155 593l-31 -26q-17 20 -17 44q0 40 24.5 66.5t66.5 26.5q29 0 50.5 -21t21.5 -49q0 -45 -46 -83l-84 -72h99l-9 -40h-162l9 40l116 99q13 11 19 17t11.5 16t5.5 20q0 15 -9.5 24t-24.5 9q-21 0 -34 -14.5t-13 -35.5q0 -13 7 -21zM71 150l434 435l32 -32l-434 -435z
M423 -4q-29 0 -51.5 21t-22.5 49q0 5 1 11h41q-1 -3 -1 -8q0 -14 10 -23.5t26 -9.5q21 0 33 14t12 36q0 13 -9 22.5t-23 10.5l8 38h4q17 0 27 11t10 29q0 11 -8 19.5t-20 8.5q-34 0 -37 -34h-41q2 33 23.5 53.5t57.5 20.5q27 0 46 -18.5t19 -46.5q0 -47 -32 -68
q16 -19 16 -43q0 -40 -24 -66.5t-65 -26.5z" />
    <glyph glyph-name="uni2155" unicode="&#x2155;" 
d="M71 150l434 435l32 -32l-434 -435zM418 -4q-30 0 -51 20.5t-21 49.5v11h41v-8q0 -14 9 -23.5t24 -9.5q37 0 46 41q3 17 3 19q0 14 -9.5 23.5t-24.5 9.5q-23 0 -36 -19l-36 33l51 118h117l-9 -39h-82l-24 -57q7 4 22 4q31 0 51.5 -20.5t20.5 -49.5q0 -9 -2 -21
q-17 -82 -90 -82zM145 603l-25 32l79 65h42l-48 -221h69l-9 -40h-178l9 40h67l34 158z" />
    <glyph glyph-name="uni2156" unicode="&#x2156;" 
d="M155 593l-31 -26q-17 20 -17 44q0 40 24.5 66.5t66.5 26.5q29 0 50.5 -21t21.5 -49q0 -45 -46 -83l-84 -72h99l-9 -40h-162l9 40l116 99q13 11 19 17t11.5 16t5.5 20q0 15 -9.5 24t-24.5 9q-21 0 -34 -14.5t-13 -35.5q0 -13 7 -21zM71 150l434 435l32 -32l-434 -435z
M418 -4q-30 0 -51 20.5t-21 49.5v11h41v-8q0 -14 9 -23.5t24 -9.5q37 0 46 41q3 17 3 19q0 14 -9.5 23.5t-24.5 9.5q-23 0 -36 -19l-36 33l51 118h117l-9 -39h-82l-24 -57q7 4 22 4q31 0 51.5 -20.5t20.5 -49.5q0 -9 -2 -21q-17 -82 -90 -82z" />
    <glyph glyph-name="uni2157" unicode="&#x2157;" 
d="M153 435q-29 0 -51.5 21t-22.5 49q0 5 1 11h41q-1 -3 -1 -8q0 -14 10 -23.5t26 -9.5q21 0 33 14t12 36q0 13 -9 22.5t-23 10.5l8 38h4q17 0 27 11t10 29q0 11 -8 19.5t-20 8.5q-34 0 -37 -34h-41q2 33 23.5 53.5t57.5 20.5q27 0 46 -18.5t19 -46.5q0 -47 -32 -68
q16 -19 16 -43q0 -40 -24 -66.5t-65 -26.5zM71 150l434 435l32 -32l-434 -435zM418 -4q-30 0 -51 20.5t-21 49.5v11h41v-8q0 -14 9 -23.5t24 -9.5q37 0 46 41q3 17 3 19q0 14 -9.5 23.5t-24.5 9.5q-23 0 -36 -19l-36 33l51 118h117l-9 -39h-82l-24 -57q7 4 22 4
q31 0 51.5 -20.5t20.5 -49.5q0 -9 -2 -21q-17 -82 -90 -82z" />
    <glyph glyph-name="uni2158" unicode="&#x2158;" 
d="M216 439h-42l13 63h-115l9 40l150 160l30 -26l-126 -134h61l11 53h42l-11 -53h27l-9 -40h-27zM71 150l434 435l32 -32l-434 -435zM418 -4q-30 0 -51 20.5t-21 49.5v11h41v-8q0 -14 9 -23.5t24 -9.5q37 0 46 41q3 17 3 19q0 14 -9.5 23.5t-24.5 9.5q-23 0 -36 -19l-36 33
l51 118h117l-9 -39h-82l-24 -57q7 4 22 4q31 0 51.5 -20.5t20.5 -49.5q0 -9 -2 -21q-17 -82 -90 -82z" />
    <glyph glyph-name="uni2159" unicode="&#x2159;" 
d="M71 150l434 435l32 -32l-434 -435zM425 -4q-30 0 -51 20.5t-21 49.5q0 10 2 22q8 37 28 57l111 118l31 -26l-66 -69l4 -1q23 -5 38.5 -25t15.5 -43q0 -12 -2 -21q-18 -82 -90 -82zM145 603l-25 32l79 65h42l-48 -221h69l-9 -40h-178l9 40h67l34 158zM428 36q35 0 45 41
q4 15 4 19q0 14 -9.5 23.5t-24.5 9.5q-37 0 -46 -41q-3 -16 -3 -19q0 -15 9 -24t25 -9z" />
    <glyph glyph-name="uni215A" unicode="&#x215a;" 
d="M148 435q-30 0 -51 20.5t-21 49.5v11h41v-8q0 -14 9 -23.5t24 -9.5q37 0 46 41q3 16 3 19q0 15 -9.5 24t-24.5 9q-23 0 -36 -19l-36 33l51 118h117l-9 -39h-82l-24 -57q7 4 22 4q31 0 51.5 -20.5t20.5 -49.5q0 -9 -2 -21q-17 -82 -90 -82zM71 150l434 435l32 -32
l-434 -435zM425 -4q-30 0 -51 20.5t-21 49.5q0 10 2 22q8 37 28 57l111 118l31 -26l-66 -69l4 -1q23 -5 38.5 -25t15.5 -43q0 -12 -2 -21q-18 -82 -90 -82zM428 36q35 0 45 41q4 15 4 19q0 14 -9.5 23.5t-24.5 9.5q-37 0 -46 -41q-3 -16 -3 -19q0 -15 9 -24t25 -9z" />
    <glyph glyph-name="oneeighth" unicode="&#x215b;" 
d="M421 -4q42 0 66.5 26.5t24.5 66.5q0 24 -17 43q33 24 33 68q0 28 -19.5 46.5t-45.5 18.5q-38 0 -59.5 -23t-21.5 -59q0 -21 11 -37q-44 -25 -44 -80q0 -28 21.5 -49t50.5 -21zM71 150l434 435l32 -32l-434 -435zM145 603l-25 32l79 65h42l-48 -221h69l-9 -40h-178l9 40
h67l34 158zM424 36q-16 0 -25 9t-9 24q0 21 13 35.5t34 14.5q15 0 24.5 -9.5t9.5 -23.5q0 -21 -13 -35.5t-34 -14.5zM449 158q-12 0 -19 8.5t-7 19.5q0 39 37 39q12 0 20 -8.5t8 -19.5q0 -18 -11 -28.5t-28 -10.5z" />
    <glyph glyph-name="threeeighths" unicode="&#x215c;" 
d="M153 435q-29 0 -51.5 21t-22.5 49q0 5 1 11h41q-1 -3 -1 -8q0 -14 10 -23.5t26 -9.5q21 0 33 14t12 36q0 13 -9 22.5t-23 10.5l8 38h4q17 0 27 11t10 29q0 11 -8 19.5t-20 8.5q-34 0 -37 -34h-41q2 33 23.5 53.5t57.5 20.5q27 0 46 -18.5t19 -46.5q0 -47 -32 -68
q16 -19 16 -43q0 -40 -24 -66.5t-65 -26.5zM71 150l434 435l32 -32l-434 -435zM421 -4q42 0 66.5 26.5t24.5 66.5q0 24 -17 43q33 24 33 68q0 28 -19.5 46.5t-45.5 18.5q-38 0 -59.5 -23t-21.5 -59q0 -21 11 -37q-44 -25 -44 -80q0 -28 21.5 -49t50.5 -21zM424 36
q-16 0 -25 9t-9 24q0 21 13 35.5t34 14.5q15 0 24.5 -9.5t9.5 -23.5q0 -21 -13 -35.5t-34 -14.5zM449 158q-12 0 -19 8.5t-7 19.5q0 39 37 39q12 0 20 -8.5t8 -19.5q0 -18 -11 -28.5t-28 -10.5z" />
    <glyph glyph-name="fiveeighths" unicode="&#x215d;" 
d="M148 435q-30 0 -51 20.5t-21 49.5v11h41v-8q0 -14 9 -23.5t24 -9.5q37 0 46 41q3 16 3 19q0 15 -9.5 24t-24.5 9q-23 0 -36 -19l-36 33l51 118h117l-9 -39h-82l-24 -57q7 4 22 4q31 0 51.5 -20.5t20.5 -49.5q0 -9 -2 -21q-17 -82 -90 -82zM71 150l434 435l32 -32
l-434 -435zM421 -4q42 0 66.5 26.5t24.5 66.5q0 24 -17 43q33 24 33 68q0 28 -19.5 46.5t-45.5 18.5q-38 0 -59.5 -23t-21.5 -59q0 -21 11 -37q-44 -25 -44 -80q0 -28 21.5 -49t50.5 -21zM424 36q-16 0 -25 9t-9 24q0 21 13 35.5t34 14.5q15 0 24.5 -9.5t9.5 -23.5
q0 -21 -13 -35.5t-34 -14.5zM449 158q-12 0 -19 8.5t-7 19.5q0 39 37 39q12 0 20 -8.5t8 -19.5q0 -18 -11 -28.5t-28 -10.5z" />
    <glyph glyph-name="seveneighths" unicode="&#x215e;" 
d="M81 621l16 79h160l-8 -40l-127 -223l-38 15l119 209h-72l-8 -40h-42zM71 150l434 435l32 -32l-434 -435zM421 -4q42 0 66.5 26.5t24.5 66.5q0 24 -17 43q33 24 33 68q0 28 -19.5 46.5t-45.5 18.5q-38 0 -59.5 -23t-21.5 -59q0 -21 11 -37q-44 -25 -44 -80q0 -28 21.5 -49
t50.5 -21zM424 36q-16 0 -25 9t-9 24q0 21 13 35.5t34 14.5q15 0 24.5 -9.5t9.5 -23.5q0 -21 -13 -35.5t-34 -14.5zM449 158q-12 0 -19 8.5t-7 19.5q0 39 37 39q12 0 20 -8.5t8 -19.5q0 -18 -11 -28.5t-28 -10.5z" />
    <glyph glyph-name="uni215F" unicode="&#x215f;" 
d="M71 150l434 435l32 -32l-434 -435zM145 603l-25 32l79 65h42l-48 -221h69l-9 -40h-178l9 40h67l34 158z" />
    <glyph glyph-name="uni2190" unicode="&#x2190;" 
d="M107 253l234 -233l-30 -30l-286 285l286 285l30 -30l-234 -233h476v-44h-476z" />
    <glyph glyph-name="uni2191" unicode="&#x2191;" 
d="M559 394l-233 234v-628h-44v628l-233 -234l-30 30l285 286l285 -286z" />
    <glyph glyph-name="uni2192" unicode="&#x2192;" 
d="M267 20l234 233h-476v44h476l-234 233l30 30l286 -285l-286 -285z" />
    <glyph glyph-name="uni2193" unicode="&#x2193;" 
d="M326 82l233 234l30 -30l-285 -286l-285 286l30 30l233 -234v628h44v-628z" />
    <glyph glyph-name="uni2196" unicode="&#x2196;" 
d="M461 473h-330l452 -452l-31 -31l-453 452v-330h-43v404h405v-43z" />
    <glyph glyph-name="uni2197" unicode="&#x2197;" 
d="M477 473h-330v43h405v-404h-43v330l-453 -452l-31 31z" />
    <glyph glyph-name="uni2198" unicode="&#x2198;" 
d="M147 43h330l-452 452l31 31l453 -452v330h43v-404h-405v43z" />
    <glyph glyph-name="uni2199" unicode="&#x2199;" 
d="M131 43h330v-43h-405v404h43v-330l453 452l31 -31z" />
    <glyph glyph-name="partialdiff" unicode="&#x2202;" 
d="M497 552q0 113 -128 113q-67 0 -119 -43t-64 -114l-1 -8h-45l1 8q19 104 86.5 153t151.5 49q67 0 115 -36.5t48 -112.5q0 -29 -5 -53l-61 -316q-19 -104 -86.5 -153t-151.5 -49q-67 0 -115 36.5t-48 112.5q0 15 12 89q19 104 86 153t151 49q48 0 86 -21.5t53 -53.5
l29 153q5 28 5 44zM248 35q67 0 119 43t64 114q12 67 12 80q0 53 -31.5 83t-97.5 30q-67 0 -118.5 -43t-63.5 -114q-12 -67 -12 -80q0 -113 128 -113z" />
    <glyph glyph-name="Delta" unicode="&#x2206;" 
d="M537 0h-526l263 710zM461 54l-187 505l-187 -505h374z" />
    <glyph glyph-name="product" unicode="&#x220f;" 
d="M103 0v700h442v-700h-55v647h-332v-647h-55z" />
    <glyph glyph-name="summation" unicode="&#x2211;" 
d="M68 -142l321 400l-321 400v42h512v-42h-454l321 -400l-321 -400h454v-42h-512v42z" />
    <glyph glyph-name="minus" unicode="&#x2212;" 
d="M507 258h-396v45h396v-45z" />
    <glyph glyph-name="radical" unicode="&#x221a;" 
d="M275 47l193 653h102v-42h-69l-194 -658h-64l-77 258h-68v42h102z" />
    <glyph glyph-name="infinity" unicode="&#x221e;" 
d="M92 336q0 53 36.5 89.5t88.5 36.5q67 0 104 -55q38 55 104 55q53 0 89.5 -37t36.5 -89t-36.5 -88.5t-89.5 -36.5q-66 0 -104 54q-36 -54 -104 -54q-53 0 -89 36.5t-36 88.5zM343 336q0 -35 23.5 -59t58.5 -24t59 24t24 59t-24 59.5t-59 24.5q-34 0 -57.5 -23.5
t-24.5 -57.5v-3zM135 336q0 -35 23.5 -59t58.5 -24t59 24t24 59v3q-2 34 -25.5 57.5t-57.5 23.5q-35 0 -58.5 -24.5t-23.5 -59.5z" />
    <glyph glyph-name="integral" unicode="&#x222b;" 
d="M326 597v-678q0 -53 -23 -78t-84 -25h-118v42h118q38 0 51 14t13 47v678q0 53 23 78t84 25h118v-42h-118q-38 0 -51 -14t-13 -47z" />
    <glyph glyph-name="approxequal" unicode="&#x2248;" 
d="M517 396l-159 -86l-102 73l-135 -73l-21 38l159 86l102 -73l135 73zM517 201l-159 -86l-102 73l-135 -73l-21 38l159 86l102 -73l135 73z" />
    <glyph glyph-name="notequal" unicode="&#x2260;" 
d="M507 155h-241l-65 -117l-37 22l53 95h-106v45h396v-45zM454 490l-53 -95h106v-45h-396v45h240l66 117z" />
    <glyph glyph-name="lessequal" unicode="&#x2264;" 
d="M507 0h-396v45h396v-45zM507 119l-396 180v44l396 180v-48l-338 -154l338 -154v-48z" />
    <glyph glyph-name="greaterequal" unicode="&#x2265;" 
d="M111 0h396v45h-396v-45zM507 299l-396 -180v48l338 154l-338 154v48l396 -180v-44z" />
    <glyph glyph-name="uni25A0" unicode="&#x25a0;" 
d="M46 0v516h516v-516h-516z" />
    <glyph glyph-name="uni25A1" unicode="&#x25a1;" 
d="M46 0v516h516v-516h-516zM90 472v-428h428v428h-428z" />
    <glyph glyph-name="lozenge" unicode="&#x25ca;" 
d="M580 350l-257 -360l-257 360l257 360zM122 350l201 -281l201 281l-201 281z" />
    <glyph glyph-name="uni25CB" unicode="&#x25cb;" 
d="M34 260q0 112 79 191t191 79t191 -79t79 -191t-79 -191t-191 -79t-191 79t-79 191zM77 260q0 -94 66.5 -160.5t160.5 -66.5t160.5 66.5t66.5 160.5t-66.5 160.5t-160.5 66.5t-160.5 -66.5t-66.5 -160.5z" />
    <glyph glyph-name="uni25CF" unicode="&#x25cf;" 
d="M34 260q0 112 79 191t191 79t191 -79t79 -191t-79 -191t-191 -79t-191 79t-79 191z" />
    <glyph glyph-name="apple" 
d="M175 26q-27 6 -38 24.5t-11 53.5v256q-27 0 -37 24q-24 10 -24 37q0 17 11 28q-36 18 -36 59t36 59q-11 11 -11 28q0 15 9 26.5t23 13.5q6 21 23.5 34.5t39.5 13.5q24 0 44 -17q7 19 23.5 31.5t37.5 12.5q34 0 55 -31q14 7 29 7q41 0 59 -37q12 12 28 12q27 0 37 -24
q22 -5 36.5 -23.5t14.5 -40.5q0 -38 -34 -57v-38h4q46 0 63 -18t17 -62v-215q0 -44 -17 -62t-63 -18h-4q0 -35 -11 -53t-38 -24v-26h-266v26zM441 104v406q-16 4 -29 17h-83q-19 -19 -46 -19q-34 0 -53 27q-8 -3 -16 -3q-18 0 -29 11q-6 -10 -10 -15v-424q0 -19 7 -26.5
t25 -7.5h202q18 0 25 7.5t7 26.5zM105 462v-19q-9 0 -15 -6.5t-6 -15.5t6 -15t15 -6q0 -9 6 -15t15 -6v147q19 0 32 12t15 30v4h19q0 -21 22 -21q9 0 15 6t6 15h19q0 -13 -9 -26q13 -19 38 -19q20 0 33.5 13.5t13.5 32.5h82q0 -19 13 -32.5t33 -13.5t33.5 13.5t13.5 32.5
t-13.5 33t-33.5 14q0 9 -6.5 15.5t-15.5 6.5t-15 -6t-6 -16h-19q0 20 -14 33.5t-33 13.5q-32 0 -43 -30q28 -9 28 -38h-19q0 9 -6.5 15t-15.5 6t-15 -6t-6 -15h-19q0 15 9.5 26t23.5 13q6 19 19 30q-13 23 -40 23q-19 0 -32 -13t-14 -32q7 -16 7 -29h-19q0 19 -13.5 33
t-33.5 14q-33 0 -43 -30q29 -9 29 -39h-19q0 9 -6.5 15.5t-15.5 6.5t-15 -6.5t-6 -15.5q0 -19 17 -21h4v-19h-4q-18 -2 -30 -15t-12 -32t12 -32t30 -14h4zM525 183v215q0 19 -7 26.5t-24 7.5h-4v-283h4q17 0 24 7.5t7 26.5zM216 103v375h15v-375h-15zM384 103v375h15v-375
h-15zM328 103v375h15v-375h-15zM272 103v375h15v-375h-15z" />
    <glyph glyph-name="horn" 
d="M270 398l11 50q20 0 33.5 13.5t13.5 33.5q0 4 -2 12l49 23q4 -16 4 -26q0 -46 -26.5 -76t-82.5 -30z" />
    <glyph glyph-name="commaaccent" 
d="M287 -89l-100 -100l-36 37l100 99z" />
    <glyph glyph-name="circumflex.case" 
d="M551 733l-137 72l-167 -72l13 58l157 68l145 -77z" />
    <glyph glyph-name="tilde.case" 
d="M561 797l-113 -60l-91 66l-124 -66l14 63l113 60l91 -66l124 66z" />
    <glyph glyph-name="macron.case" 
d="M554 774h-312l11 50h312z" />
    <glyph glyph-name="breve.case" 
d="M413 743h-60q-39 0 -64.5 25t-25.5 63q0 15 2 23h47q-1 -5 -1 -13q0 -21 14 -35t36 -14h55q29 0 51.5 19.5t27.5 42.5h52q-10 -48 -46.5 -79.5t-87.5 -31.5z" />
    <glyph glyph-name="dotaccent.case" 
d="M358 761l17 76h76l-17 -76h-76z" />
    <glyph glyph-name="ring.case" 
d="M290 765q0 47 33.5 81t80.5 34t81 -34t34 -81t-34 -80.5t-81 -33.5t-80.5 33.5t-33.5 80.5zM339 765q0 -27 19 -46t46 -19t46.5 19t19.5 46t-19.5 46.5t-46.5 19.5t-46 -19.5t-19 -46.5z" />
    <glyph glyph-name="cedilla.case" 
d="M126 -134h84l18 84h50l-29 -134h-134z" />
    <glyph glyph-name="hungarumlaut.case" 
d="M368 788l-126 -35l12 54l126 35zM554 788l-126 -35l12 54l126 35z" />
    <glyph glyph-name="ogonek.case" 
d="M272 -137l-10 -49q-12 -3 -26 -3q-36 0 -59.5 26t-23.5 60q0 37 19 64t47 39h83q-100 -38 -100 -96q0 -44 46 -44q12 0 24 3z" />
    <glyph glyph-name="caron.case" 
d="M258 859l137 -72l167 72l-13 -58l-157 -68l-145 77z" />
    <glyph glyph-name="grave.case" 
d="M531 739l-264 72l10 48l264 -72z" />
    <glyph glyph-name="acute.case" 
d="M530 805l-264 -72l12 54l264 72z" />
    <glyph glyph-name="dieresis.case" 
d="M240 761l17 76h76l-17 -76h-76zM476 761l17 76h76l-17 -76h-76z" />
    <glyph glyph-name="a.alt" 
d="M341 459q-59 0 -99.5 -33t-53.5 -97q-34 -161 -34 -181q0 -43 31 -65t75 -22q59 0 99.5 33t53.5 97q34 161 34 181q0 43 -31 65t-75 22zM372 0l12 55q-19 -28 -55.5 -46.5t-84.5 -18.5q-65 0 -115.5 40t-50.5 107q0 23 35 191q42 202 230 202q44 0 77 -20t49 -54l13 60
h75l-110 -516h-75z" />
    <glyph glyph-name="aacute.alt" 
d="M341 459q-59 0 -99.5 -33t-53.5 -97q-34 -161 -34 -181q0 -43 31 -65t75 -22q59 0 99.5 33t53.5 97q34 161 34 181q0 43 -31 65t-75 22zM372 0l12 55q-19 -28 -55.5 -46.5t-84.5 -18.5q-65 0 -115.5 40t-50.5 107q0 23 35 191q42 202 230 202q44 0 77 -20t49 -54l13 60
h75l-110 -516h-75zM508 651l-264 -72l12 54l264 72z" />
    <glyph glyph-name="abreve.alt" 
d="M341 459q-59 0 -99.5 -33t-53.5 -97q-34 -161 -34 -181q0 -43 31 -65t75 -22q59 0 99.5 33t53.5 97q34 161 34 181q0 43 -31 65t-75 22zM372 0l12 55q-19 -28 -55.5 -46.5t-84.5 -18.5q-65 0 -115.5 40t-50.5 107q0 23 35 191q42 202 230 202q44 0 77 -20t49 -54l13 60
h75l-110 -516h-75zM401 589h-60q-39 0 -64.5 25t-25.5 63q0 15 2 23h47q-1 -5 -1 -13q0 -21 14 -35t36 -14h55q29 0 51.5 19.5t27.5 42.5h52q-10 -48 -46.5 -79.5t-87.5 -31.5z" />
    <glyph glyph-name="acircumflex.alt" 
d="M372 0l12 55q-19 -28 -55.5 -46.5t-84.5 -18.5q-65 0 -115.5 40t-50.5 107q0 23 35 191q42 202 230 202q44 0 77 -20t49 -54l13 60h75l-110 -516h-75zM341 459q-59 0 -99.5 -33t-53.5 -97q-34 -161 -34 -181q0 -43 31 -65t75 -22q59 0 99.5 33t53.5 97q34 161 34 181
q0 43 -31 65t-75 22zM525 579l-137 72l-167 -72l13 58l157 68l145 -77z" />
    <glyph glyph-name="adieresis.alt" 
d="M341 459q-59 0 -99.5 -33t-53.5 -97q-34 -161 -34 -181q0 -43 31 -65t75 -22q59 0 99.5 33t53.5 97q34 161 34 181q0 43 -31 65t-75 22zM372 0l12 55q-19 -28 -55.5 -46.5t-84.5 -18.5q-65 0 -115.5 40t-50.5 107q0 23 35 191q42 202 230 202q44 0 77 -20t49 -54l13 60
h75l-110 -516h-75zM218 607l17 76h76l-17 -76h-76zM454 607l17 76h76l-17 -76h-76z" />
    <glyph glyph-name="agrave.alt" 
d="M341 459q-59 0 -99.5 -33t-53.5 -97q-34 -161 -34 -181q0 -43 31 -65t75 -22q59 0 99.5 33t53.5 97q34 161 34 181q0 43 -31 65t-75 22zM372 0l12 55q-19 -28 -55.5 -46.5t-84.5 -18.5q-65 0 -115.5 40t-50.5 107q0 23 35 191q42 202 230 202q44 0 77 -20t49 -54l13 60
h75l-110 -516h-75zM509 585l-264 72l10 48l264 -72z" />
    <glyph glyph-name="amacron.alt" 
d="M341 459q-59 0 -99.5 -33t-53.5 -97q-34 -161 -34 -181q0 -43 31 -65t75 -22q59 0 99.5 33t53.5 97q34 161 34 181q0 43 -31 65t-75 22zM372 0l12 55q-19 -28 -55.5 -46.5t-84.5 -18.5q-65 0 -115.5 40t-50.5 107q0 23 35 191q42 202 230 202q44 0 77 -20t49 -54l13 60
h75l-110 -516h-75zM533 620h-312l11 50h312z" />
    <glyph glyph-name="aogonek.alt" 
d="M417 -137l-10 -49q-12 -3 -26 -3q-36 0 -59.5 26t-23.5 60q0 37 20.5 64t53.5 39l12 55q-19 -28 -55.5 -46.5t-84.5 -18.5q-65 0 -115.5 40t-50.5 107q0 23 35 191q42 202 230 202q44 0 77 -20t49 -54l13 60h75l-110 -516q-100 -38 -100 -96q0 -44 46 -44q12 0 24 3z
M341 459q-59 0 -99.5 -33t-53.5 -97q-34 -161 -34 -181q0 -43 31 -65t75 -22q59 0 99.5 33t53.5 97q34 161 34 181q0 43 -31 65t-75 22z" />
    <glyph glyph-name="aring.alt" 
d="M258 595q0 47 33.5 81t80.5 34t81 -34t34 -81q0 -61 -52 -96q22 -19 34 -43l13 60h75l-110 -516h-75l12 55q-19 -28 -55.5 -46.5t-84.5 -18.5q-65 0 -115.5 40t-50.5 107q0 23 35 191q35 169 169 196q-24 32 -24 71zM341 459q-59 0 -99.5 -33t-53.5 -97
q-34 -161 -34 -181q0 -43 31 -65t75 -22q59 0 99.5 33t53.5 97q34 161 34 181q0 43 -31 65t-75 22zM307 595q0 -27 19 -46t46 -19t46.5 19t19.5 46t-19.5 46.5t-46.5 19.5t-46 -19.5t-19 -46.5z" />
    <glyph glyph-name="aringacute.alt" 
d="M258 595q0 47 33.5 81t80.5 34t81 -34t34 -81q0 -61 -52 -96q22 -19 34 -43l13 60h75l-110 -516h-75l12 55q-19 -28 -55.5 -46.5t-84.5 -18.5q-65 0 -115.5 40t-50.5 107q0 23 35 191q35 169 169 196q-24 32 -24 71zM341 459q-59 0 -99.5 -33t-53.5 -97
q-34 -161 -34 -181q0 -43 31 -65t75 -22q59 0 99.5 33t53.5 97q34 161 34 181q0 43 -31 65t-75 22zM307 595q0 -27 19 -46t46 -19t46.5 19t19.5 46t-19.5 46.5t-46.5 19.5t-46 -19.5t-19 -46.5zM541 805l-264 -72l12 54l264 72z" />
    <glyph glyph-name="atilde.alt" 
d="M372 0l12 55q-19 -28 -55.5 -46.5t-84.5 -18.5q-65 0 -115.5 40t-50.5 107q0 23 35 191q42 202 230 202q44 0 77 -20t49 -54l13 60h75l-110 -516h-75zM341 459q-59 0 -99.5 -33t-53.5 -97q-34 -161 -34 -181q0 -43 31 -65t75 -22q59 0 99.5 33t53.5 97q34 161 34 181
q0 43 -31 65t-75 22zM539 640l-113 -60l-91 66l-124 -66l14 63l113 60l91 -66l124 66z" />
    <glyph glyph-name="uni0227.alt" 
d="M341 459q-59 0 -99.5 -33t-53.5 -97q-34 -161 -34 -181q0 -43 31 -65t75 -22q59 0 99.5 33t53.5 97q34 161 34 181q0 43 -31 65t-75 22zM372 0l12 55q-19 -28 -55.5 -46.5t-84.5 -18.5q-65 0 -115.5 40t-50.5 107q0 23 35 191q42 202 230 202q44 0 77 -20t49 -54l13 60
h75l-110 -516h-75zM336 607l17 76h76l-17 -76h-76z" />
    <glyph glyph-name="uni1EA1.alt" 
d="M341 459q-59 0 -99.5 -33t-53.5 -97q-34 -161 -34 -181q0 -43 31 -65t75 -22q59 0 99.5 33t53.5 97q34 161 34 181q0 43 -31 65t-75 22zM372 0l12 55q-19 -28 -55.5 -46.5t-84.5 -18.5q-65 0 -115.5 40t-50.5 107q0 23 35 191q42 202 230 202q44 0 77 -20t49 -54l13 60
h75l-110 -516h-75zM172 -163l17 76h76l-17 -76h-76z" />
    <glyph glyph-name="zero.denominator" 
d="M261 -6q-48 0 -80.5 32t-32.5 78q0 22 34 180q27 128 141 128q47 0 79.5 -32t32.5 -78q0 -15 -34 -180q-27 -128 -140 -128zM265 55q56 0 71 66q17 77 26 124l-150 -123q-1 -8 -1 -14q0 -23 14.5 -38t39.5 -15zM372 298q0 22 -14.5 37.5t-38.5 15.5q-57 0 -72 -66
q-26 -122 -27 -125l150 123q0 3 0.5 5.5t1 4t0.5 3v2.5z" />
    <glyph glyph-name="one.denominator" 
d="M229 256l-39 49l122 101h65l-74 -345h107l-14 -61h-276l14 61h104l53 246z" />
    <glyph glyph-name="two.denominator" 
d="M257 239l-48 -41q-26 31 -26 70q0 60 38.5 102t102.5 42q46 0 79.5 -32.5t33.5 -77.5q0 -39 -16.5 -66.5t-55.5 -61.5l-131 -113h155l-14 -61h-252l13 61l180 154q23 19 32 28t17 23.5t8 31.5q0 22 -14.5 37.5t-38.5 15.5q-33 0 -53.5 -22.5t-20.5 -56.5q0 -19 11 -33z
" />
    <glyph glyph-name="three.denominator" 
d="M259 -6q-46 0 -81 32.5t-35 77.5q0 11 1 17h63q-1 -5 -1 -13q0 -21 16.5 -37t40.5 -16q32 0 51 22.5t19 56.5q0 22 -13.5 36.5t-36.5 15.5l13 59h4q25 0 41.5 17t16.5 45q0 17 -12 30.5t-31 13.5q-25 0 -40 -14.5t-17 -39.5h-63q3 51 35 83t89 32q42 0 72 -28.5t30 -72.5
q0 -72 -50 -105q25 -28 25 -67q0 -61 -36.5 -103t-100.5 -42z" />
    <glyph glyph-name="four.denominator" 
d="M342 0h-65l20 98h-179l14 61l234 250l46 -40l-197 -210h96l18 84h65l-18 -84h42l-13 -61h-43z" />
    <glyph glyph-name="five.denominator" 
d="M259 -6q-47 0 -79.5 32t-32.5 78q0 9 1 17h64q-2 -12 -2 -13q0 -22 14.5 -37.5t38.5 -15.5q57 0 72 66q5 27 5 28q0 22 -15 37t-39 15q-37 0 -56 -29l-57 51l80 183h181l-14 -61h-128l-37 -89q16 7 35 7q48 0 80.5 -32.5t32.5 -77.5q0 -16 -3 -31q-27 -128 -141 -128z
" />
    <glyph glyph-name="six.denominator" 
d="M260 -6q-48 0 -80 32t-32 78q0 16 3 31q10 54 44 91l173 183l47 -40l-102 -109q5 0 15 -2q31 -9 53.5 -39.5t22.5 -65.5q0 -16 -3 -31q-27 -128 -141 -128zM264 55q29 0 47 18.5t24 47.5q6 24 6 28q0 22 -15 37t-39 15q-29 0 -47 -18t-24 -47q-5 -21 -5 -28
q0 -22 14.5 -37.5t38.5 -15.5z" />
    <glyph glyph-name="seven.denominator" 
d="M184 283l26 123h250l-13 -61l-199 -348l-59 22l187 326h-114l-13 -62h-65z" />
    <glyph glyph-name="eight.denominator" 
d="M260 -6q-46 0 -79.5 32.5t-33.5 77.5q0 40 18 73.5t51 51.5q-17 25 -17 58q0 54 32.5 89.5t92.5 35.5q42 0 72 -28.5t30 -72.5q0 -72 -50 -105q25 -32 25 -68q0 -60 -38.5 -102t-102.5 -42zM264 55q32 0 53 22.5t21 56.5q0 22 -15 37t-39 15q-32 0 -53 -22t-21 -56
q0 -22 15 -37.5t39 -15.5zM302 247q28 0 44.5 16t16.5 44q0 17 -12 30.5t-31 13.5q-27 0 -42 -16t-15 -44q0 -18 10.5 -31t28.5 -13z" />
    <glyph glyph-name="nine.denominator" 
d="M215 -3l-47 40l102 109q-4 0 -14 2q-32 9 -54.5 39t-22.5 66q0 16 4 31q27 128 140 128q48 0 80.5 -32t32.5 -78q0 -15 -3 -31q-12 -55 -45 -91zM296 205q57 0 71 65q5 21 5 28q0 22 -14.5 37.5t-38.5 15.5q-56 0 -71 -66q-5 -20 -5 -28q0 -22 14.5 -37t38.5 -15z" />
    <glyph glyph-name="zero.numerator" 
d="M324 288q-48 0 -80.5 32t-32.5 78q0 22 34 180q27 128 141 128q47 0 79.5 -32t32.5 -78q0 -15 -34 -180q-27 -128 -140 -128zM328 349q56 0 71 66q17 77 26 124l-150 -123q-1 -8 -1 -14q0 -23 14.5 -38t39.5 -15zM435 592q0 22 -14.5 37.5t-38.5 15.5q-57 0 -72 -66
q-26 -122 -27 -125l150 123q0 3 0.5 5.5t1 4t0.5 3v2.5z" />
    <glyph glyph-name="one.numerator" 
d="M292 550l-39 49l122 101h65l-74 -345h107l-14 -61h-276l14 61h104l53 246z" />
    <glyph glyph-name="two.numerator" 
d="M320 533l-48 -41q-26 31 -26 70q0 60 38.5 102t102.5 42q46 0 79.5 -32.5t33.5 -77.5q0 -39 -16.5 -66.5t-55.5 -61.5l-131 -113h155l-14 -61h-252l13 61l180 154q23 19 32 28t17 23.5t8 31.5q0 22 -14.5 37.5t-38.5 15.5q-33 0 -53.5 -22.5t-20.5 -56.5q0 -19 11 -33z
" />
    <glyph glyph-name="three.numerator" 
d="M322 288q-46 0 -81 32.5t-35 77.5q0 11 1 17h63q-1 -5 -1 -13q0 -21 16.5 -37t40.5 -16q32 0 51 22.5t19 56.5q0 22 -13.5 36.5t-36.5 15.5l13 59h4q25 0 41.5 17t16.5 45q0 17 -12 30.5t-31 13.5q-25 0 -40 -14.5t-17 -39.5h-63q3 51 35 83t89 32q42 0 72 -28.5
t30 -72.5q0 -72 -50 -105q25 -28 25 -67q0 -61 -36.5 -103t-100.5 -42z" />
    <glyph glyph-name="four.numerator" 
d="M405 294h-65l20 98h-179l14 61l234 250l46 -40l-197 -210h96l18 84h65l-18 -84h42l-13 -61h-43z" />
    <glyph glyph-name="five.numerator" 
d="M322 288q-47 0 -79.5 32t-32.5 78q0 9 1 17h64q-2 -12 -2 -13q0 -22 14.5 -37.5t38.5 -15.5q57 0 72 66q5 27 5 28q0 22 -15 37t-39 15q-37 0 -56 -29l-57 51l80 183h181l-14 -61h-128l-37 -89q16 7 35 7q48 0 80.5 -32.5t32.5 -77.5q0 -16 -3 -31q-27 -128 -141 -128z
" />
    <glyph glyph-name="six.numerator" 
d="M323 288q-48 0 -80 32t-32 78q0 16 3 31q10 54 44 91l173 183l47 -40l-102 -109q5 0 15 -2q31 -9 53.5 -39.5t22.5 -65.5q0 -16 -3 -31q-27 -128 -141 -128zM327 349q29 0 47 18.5t24 47.5q6 24 6 28q0 22 -15 37t-39 15q-28 0 -46.5 -18t-24.5 -47q-5 -21 -5 -28
q0 -22 14.5 -37.5t38.5 -15.5z" />
    <glyph glyph-name="seven.numerator" 
d="M247 577l26 123h250l-13 -61l-199 -348l-59 22l187 326h-114l-13 -62h-65z" />
    <glyph glyph-name="eight.numerator" 
d="M323 288q-46 0 -79.5 32.5t-33.5 77.5q0 40 18 73.5t51 51.5q-17 25 -17 58q0 54 32.5 89.5t92.5 35.5q42 0 72 -28.5t30 -72.5q0 -72 -50 -105q25 -32 25 -68q0 -60 -38.5 -102t-102.5 -42zM327 349q32 0 53 22.5t21 56.5q0 22 -15 37t-39 15q-32 0 -53 -22t-21 -56
q0 -22 15 -37.5t39 -15.5zM365 541q28 0 44.5 16t16.5 44q0 17 -12 30.5t-31 13.5q-27 0 -42 -16t-15 -44q0 -18 10.5 -31t28.5 -13z" />
    <glyph glyph-name="nine.numerator" 
d="M278 291l-47 40l102 109q-4 0 -14 2q-32 9 -54.5 39t-22.5 66q0 16 4 31q27 128 140 128q48 0 80.5 -32t32.5 -78q0 -15 -3 -31q-12 -55 -45 -91zM359 499q57 0 71 65q5 21 5 28q0 22 -14.5 37.5t-38.5 15.5q-56 0 -71 -66q-5 -20 -5 -28q0 -22 14.5 -37t38.5 -15z" />
    <glyph glyph-name="a.superior" 
d="M317 395q-46 0 -73 24t-27 63q0 38 18.5 60t63.5 34q44 11 134 13q1 4 1 10q0 22 -14 35t-42 13q-45 0 -62 -40h-67q14 51 45.5 76t91.5 25q48 0 79.5 -27t31.5 -73q0 -30 -16 -96l-23 -111h-65l7 35q-25 -41 -83 -41zM325 456q80 0 94 67l1 9q-80 -3 -105 -10
q-35 -9 -35 -33q0 -33 45 -33z" />
    <glyph glyph-name="b.superior" 
d="M353 456q25 0 43 15t24 39q1 6 6 28.5l8.5 39.5t3.5 21q0 22 -14.5 35t-42.5 13q-25 0 -43 -15t-23 -39q-18 -68 -18 -88q0 -22 14.5 -35.5t41.5 -13.5zM358 395q-58 0 -76 45l-8 -39h-65l87 406h65l-29 -135q21 36 71 36q37 0 67.5 -27.5t30.5 -72.5q0 -22 -16 -96
q-26 -117 -127 -117z" />
    <glyph glyph-name="c.superior" 
d="M346 395q-48 0 -79.5 27t-31.5 74q0 28 15 95q13 59 44.5 88t95.5 29q48 0 79.5 -26.5t31.5 -73.5v-9h-62v4q0 18 -15 31t-42 13q-25 0 -43 -15t-23 -39q-19 -72 -19 -88q0 -22 14.5 -35.5t42.5 -13.5q48 0 64 48h66q-14 -55 -45 -82t-93 -27z" />
    <glyph glyph-name="d.superior" 
d="M350 456q25 0 43 15.5t23 38.5q19 76 19 89q0 22 -14.5 35t-42.5 13q-25 0 -43 -15t-23 -39q-19 -72 -19 -88q0 -22 14.5 -35.5t42.5 -13.5zM328 395q-36 0 -66.5 28t-30.5 73q0 28 15 95q25 117 127 117q59 0 76 -45l30 144h65l-86 -406h-65l7 30q-22 -36 -72 -36z" />
    <glyph glyph-name="e.superior" 
d="M344 395q-48 0 -79.5 27t-31.5 74q0 28 15 95q13 59 44.5 88t95.5 29q48 0 80 -26.5t32 -73.5q0 -31 -12 -79h-189q-3 -18 -3 -24q0 -22 14.5 -35.5t41.5 -13.5q45 0 62 40h66q-13 -51 -44.5 -76t-91.5 -25zM312 585h122q3 11 3 14q0 22 -14.5 35t-42.5 13
q-29 0 -47 -18.5t-21 -43.5z" />
    <glyph glyph-name="f.superior" 
d="M275 401l51 239h-85l13 60h85l7 33q16 74 91 74h116l-14 -61h-98q-17 0 -23.5 -6.5t-10.5 -24.5l-3 -15h126l-13 -60h-126l-51 -239h-65z" />
    <glyph glyph-name="g.superior" 
d="M356 475q25 0 43 15.5t23 38.5q14 56 14 70q0 22 -14.5 35t-42.5 13q-25 0 -42.5 -15t-23.5 -39q-14 -53 -14 -69q0 -22 14.5 -35.5t42.5 -13.5zM319 288q-48 0 -79.5 27t-31.5 74v7h63q0 -20 14 -33t42 -13q26 0 44.5 15t23.5 39l10 46q-22 -36 -71 -36
q-37 0 -67.5 27.5t-30.5 72.5q0 28 11 77q27 117 127 117q59 0 76 -45l8 37h65l-64 -294q-13 -59 -44.5 -88.5t-95.5 -29.5z" />
    <glyph glyph-name="h.superior" 
d="M208 401l86 406h65l-29 -135q9 15 28 25.5t40 10.5q42 0 72 -27.5t30 -72.5q0 -22 -16 -96l-24 -111h-65l24 109q1 9 9.5 46.5t8.5 42.5q0 22 -14.5 35t-42.5 13q-25 0 -43 -15t-23 -39l-41 -192h-65z" />
    <glyph glyph-name="i.superior" 
d="M197 401l13 60h106l38 179h-77l12 60h143l-51 -239h105l-13 -60h-276zM364 729l17 78h78l-16 -78h-79z" />
    <glyph glyph-name="j.superior" 
d="M163 294l14 62h126q17 0 23 6t10 24l54 254h-125l12 60h191l-70 -332q-16 -74 -92 -74h-143zM402 729l17 78h78l-16 -78h-79z" />
    <glyph glyph-name="k.superior" 
d="M367 807l-46 -215l123 108h86l-132 -117l85 -182h-69l-65 139l-47 -42l-21 -97h-65l86 406h65z" />
    <glyph glyph-name="l.superior" 
d="M196 401l12 60h106l60 286h-77l13 60h142l-73 -346h105l-13 -60h-275z" />
    <glyph glyph-name="m.superior" 
d="M253 401h-65l63 299h65l-2 -12q14 17 40 17q30 0 38 -21q21 24 59 24q34 0 55 -22.5t21 -53.5q0 -10 -47 -231h-65q47 224 47 226q0 19 -21 19q-23 0 -28 -24l-47 -221h-65q47 221 47 226q0 19 -20 19q-23 0 -29 -24z" />
    <glyph glyph-name="o.superior" 
d="M351 456q25 0 43 15t24 39q18 72 18 89q0 22 -14 35t-42 13q-25 0 -43 -15t-24 -39q-18 -68 -18 -88q0 -22 14.5 -35.5t41.5 -13.5zM343 395q-47 0 -79 27t-32 74q0 23 16 95q14 59 45 88t95 29q48 0 79.5 -27t31.5 -73q0 -27 -15 -96q-13 -58 -45 -87.5t-96 -29.5z" />
    <glyph glyph-name="p.superior" 
d="M353 456q25 0 43 15t24 39q1 6 6 28.5l8.5 39.5t3.5 21q0 22 -14.5 35t-42.5 13q-25 0 -43 -15t-23 -39q-18 -68 -18 -88q0 -22 14.5 -35.5t41.5 -13.5zM187 294l86 406h65l-6 -28q21 36 71 36q37 0 67.5 -27.5t30.5 -72.5q0 -22 -16 -96q-26 -117 -127 -117
q-58 0 -76 45l-30 -146h-65z" />
    <glyph glyph-name="q.superior" 
d="M350 456q25 0 43 15.5t23 38.5q19 76 19 89q0 22 -14.5 35t-42.5 13q-25 0 -43 -15t-23 -39q-19 -72 -19 -88q0 -22 14.5 -35.5t42.5 -13.5zM369 294l31 137q-22 -36 -72 -36q-36 0 -66.5 28t-30.5 73q0 28 15 95q25 117 127 117q59 0 76 -45l7 37h65l-87 -406h-65z" />
    <glyph glyph-name="r.superior" 
d="M182 401l12 60h95l38 179h-65l12 60h130l-7 -31q10 15 29 26t40 11h85l-13 -64h-91q-25 0 -43 -14t-23 -38l-27 -129h116l-12 -60h-276z" />
    <glyph glyph-name="s.superior" 
d="M356 395q-55 0 -89 25t-34 67v10h63v-4q0 -16 20 -26.5t44 -10.5q21 0 37 8t16 21q0 19 -29 29l-63 19q-59 19 -59 78q0 48 31.5 72.5t86.5 24.5q51 0 81 -26t30 -64v-5h-64v4q0 13 -15.5 21.5t-36.5 8.5t-34.5 -7.5t-13.5 -20.5q0 -21 23 -27l63 -20q64 -21 64 -75
q0 -50 -33.5 -76t-87.5 -26z" />
    <glyph glyph-name="t.superior" 
d="M464 401h-97q-38 0 -56.5 20t-18.5 45q0 29 32 174h-86l13 60h86l14 68h65l-14 -68h125l-13 -60h-125q-33 -150 -33 -159q0 -20 23 -20h98z" />
    <glyph glyph-name="u.superior" 
d="M327 395q-36 0 -65 28t-29 73q0 28 15 95l23 109h65l-22 -107q-1 -6 -6.5 -27.5t-9 -39t-3.5 -21.5q0 -22 14.5 -35.5t37.5 -13.5q27 0 45 15t24 39l40 190h65l-63 -299h-65l7 30q-7 -14 -28 -25t-45 -11z" />
    <glyph glyph-name="v.superior" 
d="M302 401l-44 299h63l27 -207l117 207h72l-171 -299h-64z" />
    <glyph glyph-name="w.superior" 
d="M235 401l15 299h64l-17 -203l63 157h55l-5 -160l68 206h67l-112 -299h-60l-1 175l-75 -175h-62z" />
    <glyph glyph-name="x.superior" 
d="M195 401l133 154l-66 145h66l41 -94l84 94h79l-131 -149l67 -150h-66l-43 98l-84 -98h-80z" />
    <glyph glyph-name="y.superior" 
d="M208 294l14 62h19q9 0 14.5 1t11 6.5t7 7.5t8 13t8.5 15l10 17l-42 284h64l28 -201l113 201h74l-208 -361q-26 -45 -77 -45h-44z" />
    <glyph glyph-name="z.superior" 
d="M489 640l-168 -179h135l-13 -60h-222l13 60l168 179h-127l13 60h214z" />
    <glyph glyph-name="a.inferior" 
d="M211 -103q-46 0 -73 24t-27 63q0 38 18.5 60t63.5 34q44 11 134 13q1 4 1 10q0 22 -14 35t-42 13q-45 0 -62 -40h-67q14 51 45.5 76t91.5 25q48 0 79.5 -27t31.5 -73q0 -30 -16 -96l-23 -111h-65l7 35q-25 -41 -83 -41zM219 -42q80 0 94 67l1 9q-80 -3 -105 -10
q-35 -9 -35 -33q0 -33 45 -33z" />
    <glyph glyph-name="b.inferior" 
d="M247 -42q25 0 43 15t24 39q1 6 6 28.5l8.5 39.5t3.5 21q0 22 -14.5 35t-42.5 13q-25 0 -43 -15t-23 -39q-18 -68 -18 -88q0 -22 14.5 -35.5t41.5 -13.5zM252 -103q-58 0 -76 45l-8 -39h-65l87 406h65l-29 -135q21 36 71 36q37 0 67.5 -27.5t30.5 -72.5q0 -22 -16 -96
q-26 -117 -127 -117z" />
    <glyph glyph-name="c.inferior" 
d="M240 -103q-48 0 -79.5 27t-31.5 74q0 27 15 95q13 59 44.5 88t95.5 29q48 0 79.5 -26.5t31.5 -73.5v-9h-62v4q0 18 -15 31t-42 13q-25 0 -43 -15t-23 -39q-19 -72 -19 -88q0 -22 14.5 -35.5t42.5 -13.5q48 0 64 48h66q-14 -55 -45 -82t-93 -27z" />
    <glyph glyph-name="d.inferior" 
d="M244 -42q25 0 43 15.5t23 38.5q19 76 19 89q0 22 -14.5 35t-42.5 13q-25 0 -43 -15t-23 -39q-19 -72 -19 -88q0 -22 14.5 -35.5t42.5 -13.5zM222 -103q-36 0 -66.5 28t-30.5 73q0 27 15 95q25 117 127 117q59 0 76 -45l30 144h65l-86 -406h-65l7 30q-22 -36 -72 -36z" />
    <glyph glyph-name="e.inferior" 
d="M238 -103q-48 0 -79.5 27t-31.5 74q0 27 15 95q13 59 44.5 88t95.5 29q48 0 80 -26.5t32 -73.5q0 -31 -12 -79h-189q-3 -18 -3 -24q0 -22 14.5 -35.5t41.5 -13.5q45 0 62 40h66q-13 -51 -44.5 -76t-91.5 -25zM206 87h122q3 11 3 14q0 22 -14.5 35t-42.5 13
q-29 0 -47 -18.5t-21 -43.5z" />
    <glyph glyph-name="f.inferior" 
d="M169 -97l51 239h-85l13 60h85l7 33q16 74 91 74h116l-14 -61h-98q-17 0 -23.5 -6.5t-10.5 -24.5l-3 -15h126l-13 -60h-126l-51 -239h-65z" />
    <glyph glyph-name="g.inferior" 
d="M250 -23q25 0 43 15.5t23 38.5q14 56 14 70q0 22 -14.5 35t-42.5 13q-25 0 -42.5 -15t-23.5 -39q-14 -53 -14 -69q0 -22 14.5 -35.5t42.5 -13.5zM213 -210q-48 0 -79.5 27t-31.5 74v7h63q0 -20 14 -33t42 -13q26 0 44.5 15t23.5 39l10 46q-22 -36 -71 -36
q-37 0 -67.5 27.5t-30.5 72.5q0 27 11 77q27 117 127 117q59 0 76 -45l8 37h65l-64 -294q-13 -59 -44.5 -88.5t-95.5 -29.5z" />
    <glyph glyph-name="h.inferior" 
d="M102 -97l86 406h65l-29 -135q9 15 28 25.5t40 10.5q42 0 72 -27.5t30 -72.5q0 -22 -16 -96l-24 -111h-65l24 109q1 9 9.5 46.5t8.5 42.5q0 22 -14.5 35t-42.5 13q-25 0 -43 -15t-23 -39l-41 -192h-65z" />
    <glyph glyph-name="i.inferior" 
d="M91 -97l13 60h106l38 179h-77l12 60h143l-51 -239h105l-13 -60h-276zM258 231l17 78h78l-16 -78h-79z" />
    <glyph glyph-name="j.inferior" 
d="M57 -204l14 62h126q17 0 23 6t10 24l54 254h-125l12 60h191l-70 -332q-16 -74 -92 -74h-143zM296 231l17 78h78l-16 -78h-79z" />
    <glyph glyph-name="k.inferior" 
d="M261 309l-46 -215l123 108h86l-132 -117l85 -182h-69l-65 139l-47 -42l-21 -97h-65l86 406h65z" />
    <glyph glyph-name="l.inferior" 
d="M90 -97l12 60h106l60 286h-77l13 60h142l-73 -346h105l-13 -60h-275z" />
    <glyph glyph-name="m.inferior" 
d="M147 -97h-65l63 299h65l-2 -12q14 17 40 17q30 0 38 -21q21 24 59 24q34 0 55 -22.5t21 -53.5q0 -10 -47 -231h-65q47 224 47 226q0 19 -21 19q-23 0 -28 -24l-47 -221h-65q47 221 47 226q0 19 -20 19q-23 0 -29 -24z" />
    <glyph glyph-name="n.inferior" 
d="M102 -97l63 299h65l-6 -28q9 15 28 25.5t40 10.5q42 0 72 -27.5t30 -72.5q0 -22 -16 -96l-24 -111h-65l24 109q1 9 9.5 46.5t8.5 42.5q0 22 -14.5 35t-42.5 13q-25 0 -43 -15t-23 -39l-41 -192h-65z" />
    <glyph glyph-name="o.inferior" 
d="M245 -42q25 0 43 15t24 39q18 72 18 89q0 22 -14 35t-42 13q-25 0 -43 -15t-24 -39q-18 -68 -18 -88q0 -22 14.5 -35.5t41.5 -13.5zM237 -103q-47 0 -79 27t-32 74q0 23 16 95q14 59 45 88t95 29q48 0 79.5 -27t31.5 -73q0 -27 -15 -96q-13 -58 -45 -87.5t-96 -29.5z" />
    <glyph glyph-name="p.inferior" 
d="M247 -42q25 0 43 15t24 39q1 6 6 28.5l8.5 39.5t3.5 21q0 22 -14.5 35t-42.5 13q-25 0 -43 -15t-23 -39q-18 -68 -18 -88q0 -22 14.5 -35.5t41.5 -13.5zM81 -204l86 406h65l-6 -28q21 36 71 36q37 0 67.5 -27.5t30.5 -72.5q0 -22 -16 -96q-26 -117 -127 -117
q-58 0 -76 45l-30 -146h-65z" />
    <glyph glyph-name="q.inferior" 
d="M244 -42q25 0 43 15.5t23 38.5q19 76 19 89q0 22 -14.5 35t-42.5 13q-25 0 -43 -15t-23 -39q-19 -72 -19 -88q0 -22 14.5 -35.5t42.5 -13.5zM263 -204l31 137q-22 -36 -72 -36q-36 0 -66.5 28t-30.5 73q0 27 15 95q25 117 127 117q59 0 76 -45l7 37h65l-87 -406h-65z" />
    <glyph glyph-name="r.inferior" 
d="M76 -97l12 60h95l38 179h-65l12 60h130l-7 -31q10 15 29 26t40 11h85l-13 -64h-91q-25 0 -43 -14t-23 -38l-27 -129h116l-12 -60h-276z" />
    <glyph glyph-name="s.inferior" 
d="M250 -103q-55 0 -89 25t-34 67v10h63v-4q0 -16 20 -26.5t44 -10.5q21 0 37 8t16 21q0 19 -29 29l-63 19q-59 19 -59 78q0 48 31.5 72.5t86.5 24.5q51 0 81 -26t30 -64v-5h-64v4q0 13 -15.5 21.5t-36.5 8.5t-34.5 -7.5t-13.5 -20.5q0 -21 23 -27l63 -20q64 -21 64 -75
q0 -50 -33.5 -76t-87.5 -26z" />
    <glyph glyph-name="t.inferior" 
d="M358 -97h-97q-38 0 -56.5 20t-18.5 45q0 29 32 174h-86l13 60h86l14 68h65l-14 -68h125l-13 -60h-125q-33 -150 -33 -159q0 -20 23 -20h98z" />
    <glyph glyph-name="u.inferior" 
d="M221 -103q-36 0 -65 28t-29 73q0 27 15 95l23 109h65l-22 -107q-1 -6 -6.5 -27.5t-9 -39t-3.5 -21.5q0 -22 14.5 -35.5t37.5 -13.5q27 0 45 15t24 39l40 190h65l-63 -299h-65l7 30q-7 -14 -28 -25t-45 -11z" />
    <glyph glyph-name="v.inferior" 
d="M196 -97l-44 299h63l27 -207l117 207h72l-171 -299h-64z" />
    <glyph glyph-name="w.inferior" 
d="M129 -97l15 299h64l-17 -203l63 157h55l-5 -160l68 206h67l-112 -299h-60l-1 175l-75 -175h-62z" />
    <glyph glyph-name="x.inferior" 
d="M89 -97l133 154l-66 145h66l41 -94l84 94h79l-131 -149l67 -150h-66l-43 98l-84 -98h-80z" />
    <glyph glyph-name="y.inferior" 
d="M102 -204l14 62h19q9 0 14.5 1t11 6.5t7 7.5t8 13t8.5 15l10 17l-42 284h64l28 -201l113 201h74l-208 -361q-26 -45 -77 -45h-44z" />
    <glyph glyph-name="z.inferior" 
d="M383 142l-168 -179h135l-13 -60h-222l13 60l168 179h-127l13 60h214z" />
    <glyph glyph-name="a.denominator" 
d="M232 -6q-46 0 -73 24t-27 63q0 38 18.5 60t63.5 34q44 11 134 13q1 4 1 10q0 22 -14 35t-42 13q-45 0 -62 -40h-67q14 51 45.5 76t91.5 25q48 0 79.5 -27t31.5 -73q0 -30 -16 -96l-23 -111h-65l7 35q-25 -41 -83 -41zM240 55q80 0 94 67l1 9q-80 -3 -105 -10
q-35 -9 -35 -33q0 -33 45 -33z" />
    <glyph glyph-name="b.denominator" 
d="M268 55q25 0 43 15t24 39q1 6 6 28.5l8.5 39.5t3.5 21q0 22 -14.5 35t-42.5 13q-25 0 -43 -15t-23 -39q-18 -68 -18 -88q0 -22 14.5 -35.5t41.5 -13.5zM273 -6q-58 0 -76 45l-8 -39h-65l87 406h65l-29 -135q21 36 71 36q37 0 67.5 -27.5t30.5 -72.5q0 -22 -16 -96
q-26 -117 -127 -117z" />
    <glyph glyph-name="c.denominator" 
d="M261 -6q-48 0 -79.5 27t-31.5 74q0 27 15 95q13 59 44.5 88t95.5 29q48 0 79.5 -26.5t31.5 -73.5v-9h-62v4q0 18 -15 31t-42 13q-25 0 -43 -15t-23 -39q-19 -72 -19 -88q0 -22 14.5 -35.5t42.5 -13.5q48 0 64 48h66q-14 -55 -45 -82t-93 -27z" />
    <glyph glyph-name="d.denominator" 
d="M265 55q25 0 43 15.5t23 38.5q19 76 19 89q0 22 -14.5 35t-42.5 13q-25 0 -43 -15t-23 -39q-19 -72 -19 -88q0 -22 14.5 -35.5t42.5 -13.5zM243 -6q-36 0 -66.5 28t-30.5 73q0 27 15 95q25 117 127 117q59 0 76 -45l30 144h65l-86 -406h-65l7 30q-22 -36 -72 -36z" />
    <glyph glyph-name="e.denominator" 
d="M259 -6q-48 0 -79.5 27t-31.5 74q0 27 15 95q13 59 44.5 88t95.5 29q48 0 80 -26.5t32 -73.5q0 -31 -12 -79h-189q-3 -18 -3 -24q0 -22 14.5 -35.5t41.5 -13.5q45 0 62 40h66q-13 -51 -44.5 -76t-91.5 -25zM227 184h122q3 11 3 14q0 22 -14.5 35t-42.5 13
q-29 0 -47 -18.5t-21 -43.5z" />
    <glyph glyph-name="f.denominator" 
d="M190 0l51 239h-85l13 60h85l7 33q16 74 91 74h116l-14 -61h-98q-17 0 -23.5 -6.5t-10.5 -24.5l-3 -15h126l-13 -60h-126l-51 -239h-65z" />
    <glyph glyph-name="g.denominator" 
d="M271 74q25 0 43 15.5t23 38.5q14 56 14 70q0 22 -14.5 35t-42.5 13q-25 0 -42.5 -15t-23.5 -39q-14 -53 -14 -69q0 -22 14.5 -35.5t42.5 -13.5zM234 -113q-48 0 -79.5 27t-31.5 74v7h63q0 -20 14 -33t42 -13q26 0 44.5 15t23.5 39l10 46q-22 -36 -71 -36
q-37 0 -67.5 27.5t-30.5 72.5q0 27 11 77q27 117 127 117q59 0 76 -45l8 37h65l-64 -294q-13 -59 -44.5 -88.5t-95.5 -29.5z" />
    <glyph glyph-name="h.denominator" 
d="M123 0l86 406h65l-29 -135q9 15 28 25.5t40 10.5q42 0 72 -27.5t30 -72.5q0 -22 -16 -96l-24 -111h-65l24 109q1 9 9.5 46.5t8.5 42.5q0 22 -14.5 35t-42.5 13q-25 0 -43 -15t-23 -39l-41 -192h-65z" />
    <glyph glyph-name="i.denominator" 
d="M112 0l13 60h106l38 179h-77l12 60h143l-51 -239h105l-13 -60h-276zM279 328l17 78h78l-16 -78h-79z" />
    <glyph glyph-name="j.denominator" 
d="M78 -107l14 62h126q17 0 23 6t10 24l54 254h-125l12 60h191l-70 -332q-16 -74 -92 -74h-143zM317 328l17 78h78l-16 -78h-79z" />
    <glyph glyph-name="k.denominator" 
d="M282 406l-46 -215l123 108h86l-132 -117l85 -182h-69l-65 139l-47 -42l-21 -97h-65l86 406h65z" />
    <glyph glyph-name="l.denominator" 
d="M111 0l12 60h106l60 286h-77l13 60h142l-73 -346h105l-13 -60h-275z" />
    <glyph glyph-name="m.denominator" 
d="M168 0h-65l63 299h65l-2 -12q14 17 40 17q30 0 38 -21q21 24 59 24q34 0 55 -22.5t21 -53.5q0 -10 -47 -231h-65q47 224 47 226q0 19 -21 19q-23 0 -28 -24l-47 -221h-65q47 221 47 226q0 19 -20 19q-23 0 -29 -24z" />
    <glyph glyph-name="n.denominator" 
d="M123 0l63 299h65l-6 -28q9 15 28 25.5t40 10.5q42 0 72 -27.5t30 -72.5q0 -22 -16 -96l-24 -111h-65l24 109q1 9 9.5 46.5t8.5 42.5q0 22 -14.5 35t-42.5 13q-25 0 -43 -15t-23 -39l-41 -192h-65z" />
    <glyph glyph-name="o.denominator" 
d="M266 55q25 0 43 15t24 39q18 72 18 89q0 22 -14 35t-42 13q-25 0 -43 -15t-24 -39q-18 -68 -18 -88q0 -22 14.5 -35.5t41.5 -13.5zM258 -6q-47 0 -79 27t-32 74q0 23 16 95q14 59 45 88t95 29q48 0 79.5 -27t31.5 -73q0 -27 -15 -96q-13 -58 -45 -87.5t-96 -29.5z" />
    <glyph glyph-name="p.denominator" 
d="M268 55q25 0 43 15t24 39q1 6 6 28.5l8.5 39.5t3.5 21q0 22 -14.5 35t-42.5 13q-25 0 -43 -15t-23 -39q-18 -68 -18 -88q0 -22 14.5 -35.5t41.5 -13.5zM102 -107l86 406h65l-6 -28q21 36 71 36q37 0 67.5 -27.5t30.5 -72.5q0 -22 -16 -96q-26 -117 -127 -117
q-58 0 -76 45l-30 -146h-65z" />
    <glyph glyph-name="q.denominator" 
d="M265 55q25 0 43 15.5t23 38.5q19 76 19 89q0 22 -14.5 35t-42.5 13q-25 0 -43 -15t-23 -39q-19 -72 -19 -88q0 -22 14.5 -35.5t42.5 -13.5zM284 -107l31 137q-22 -36 -72 -36q-36 0 -66.5 28t-30.5 73q0 27 15 95q25 117 127 117q59 0 76 -45l7 37h65l-87 -406h-65z" />
    <glyph glyph-name="r.denominator" 
d="M97 0l12 60h95l38 179h-65l12 60h130l-7 -31q10 15 29 26t40 11h85l-13 -64h-91q-25 0 -43 -14t-23 -38l-27 -129h116l-12 -60h-276z" />
    <glyph glyph-name="s.denominator" 
d="M271 -6q-55 0 -89 25t-34 67v10h63v-4q0 -16 20 -26.5t44 -10.5q21 0 37 8t16 21q0 19 -29 29l-63 19q-59 19 -59 78q0 48 31.5 72.5t86.5 24.5q51 0 81 -26t30 -64v-5h-64v4q0 13 -15.5 21.5t-36.5 8.5t-34.5 -7.5t-13.5 -20.5q0 -21 23 -27l63 -20q64 -21 64 -75
q0 -50 -33.5 -76t-87.5 -26z" />
    <glyph glyph-name="t.denominator" 
d="M379 0h-97q-38 0 -56.5 20t-18.5 45q0 29 32 174h-86l13 60h86l14 68h65l-14 -68h125l-13 -60h-125q-33 -150 -33 -159q0 -20 23 -20h98z" />
    <glyph glyph-name="u.denominator" 
d="M242 -6q-36 0 -65 28t-29 73q0 27 15 95l23 109h65l-22 -107q-1 -6 -6.5 -27.5t-9 -39t-3.5 -21.5q0 -22 14.5 -35.5t37.5 -13.5q27 0 45 15t24 39l40 190h65l-63 -299h-65l7 30q-7 -14 -28 -25t-45 -11z" />
    <glyph glyph-name="v.denominator" 
d="M217 0l-44 299h63l27 -207l117 207h72l-171 -299h-64z" />
    <glyph glyph-name="w.denominator" 
d="M150 0l15 299h64l-17 -203l63 157h55l-5 -160l68 206h67l-112 -299h-60l-1 175l-75 -175h-62z" />
    <glyph glyph-name="x.denominator" 
d="M110 0l133 154l-66 145h66l41 -94l84 94h79l-131 -149l67 -150h-66l-43 98l-84 -98h-80z" />
    <glyph glyph-name="y.denominator" 
d="M123 -107l14 62h19q9 0 14.5 1t11 6.5t7 7.5t8 13t8.5 15l10 17l-42 284h64l28 -201l113 201h74l-208 -361q-26 -45 -77 -45h-44z" />
    <glyph glyph-name="z.denominator" 
d="M404 239l-168 -179h135l-13 -60h-222l13 60l168 179h-127l13 60h214z" />
    <glyph glyph-name="a.numerator" 
d="M295 288q-46 0 -73 24t-27 63q0 38 18.5 60t63.5 34q44 11 134 13q1 4 1 10q0 22 -14 35t-42 13q-45 0 -62 -40h-67q14 51 45.5 76t91.5 25q48 0 79.5 -27t31.5 -73q0 -30 -16 -96l-23 -111h-65l7 35q-25 -41 -83 -41zM303 349q80 0 94 67l1 9q-80 -3 -105 -10
q-35 -9 -35 -33q0 -33 45 -33z" />
    <glyph glyph-name="b.numerator" 
d="M331 349q25 0 43 15t24 39q1 6 6 28.5l8.5 39.5t3.5 21q0 22 -14.5 35t-42.5 13q-25 0 -43 -15t-23 -39q-18 -68 -18 -88q0 -22 14.5 -35.5t41.5 -13.5zM336 288q-58 0 -76 45l-8 -39h-65l87 406h65l-29 -135q21 36 71 36q37 0 67.5 -27.5t30.5 -72.5q0 -22 -16 -96
q-26 -117 -127 -117z" />
    <glyph glyph-name="c.numerator" 
d="M324 288q-48 0 -79.5 27t-31.5 74q0 27 15 95q13 59 44.5 88t95.5 29q48 0 79.5 -26.5t31.5 -73.5v-9h-62v4q0 18 -15 31t-42 13q-25 0 -43 -15t-23 -39q-19 -72 -19 -88q0 -22 14.5 -35.5t42.5 -13.5q48 0 64 48h66q-14 -55 -45 -82t-93 -27z" />
    <glyph glyph-name="d.numerator" 
d="M328 349q25 0 43 15.5t23 38.5q19 76 19 89q0 22 -14.5 35t-42.5 13q-25 0 -43 -15t-23 -39q-19 -72 -19 -88q0 -22 14.5 -35.5t42.5 -13.5zM306 288q-36 0 -66.5 28t-30.5 73q0 27 15 95q25 117 127 117q59 0 76 -45l30 144h65l-86 -406h-65l7 30q-22 -36 -72 -36z" />
    <glyph glyph-name="e.numerator" 
d="M322 288q-48 0 -79.5 27t-31.5 74q0 27 15 95q13 59 44.5 88t95.5 29q48 0 80 -26.5t32 -73.5q0 -31 -12 -79h-189q-3 -18 -3 -24q0 -22 14.5 -35.5t41.5 -13.5q45 0 62 40h66q-13 -51 -44.5 -76t-91.5 -25zM290 478h122q3 11 3 14q0 22 -14.5 35t-42.5 13
q-29 0 -47 -18.5t-21 -43.5z" />
    <glyph glyph-name="f.numerator" 
d="M253 294l51 239h-85l13 60h85l7 33q16 74 91 74h116l-14 -61h-98q-17 0 -23.5 -6.5t-10.5 -24.5l-3 -15h126l-13 -60h-126l-51 -239h-65z" />
    <glyph glyph-name="g.numerator" 
d="M334 368q25 0 43 15.5t23 38.5q14 56 14 70q0 22 -14.5 35t-42.5 13q-25 0 -42.5 -15t-23.5 -39q-14 -53 -14 -69q0 -22 14.5 -35.5t42.5 -13.5zM297 181q-48 0 -79.5 27t-31.5 74v7h63q0 -20 14 -33t42 -13q26 0 44.5 15t23.5 39l10 46q-22 -36 -71 -36
q-37 0 -67.5 27.5t-30.5 72.5q0 27 11 77q27 117 127 117q59 0 76 -45l8 37h65l-64 -294q-13 -59 -44.5 -88.5t-95.5 -29.5z" />
    <glyph glyph-name="h.numerator" 
d="M186 294l86 406h65l-29 -135q9 15 28 25.5t40 10.5q42 0 72 -27.5t30 -72.5q0 -22 -16 -96l-24 -111h-65l24 109q1 9 9.5 46.5t8.5 42.5q0 22 -14.5 35t-42.5 13q-25 0 -43 -15t-23 -39l-41 -192h-65z" />
    <glyph glyph-name="i.numerator" 
d="M175 294l13 60h106l38 179h-77l12 60h143l-51 -239h105l-13 -60h-276zM342 622l17 78h78l-16 -78h-79z" />
    <glyph glyph-name="j.numerator" 
d="M141 187l14 62h126q17 0 23 6t10 24l54 254h-125l12 60h191l-70 -332q-16 -74 -92 -74h-143zM380 622l17 78h78l-16 -78h-79z" />
    <glyph glyph-name="k.numerator" 
d="M345 700l-46 -215l123 108h86l-132 -117l85 -182h-69l-65 139l-47 -42l-21 -97h-65l86 406h65z" />
    <glyph glyph-name="l.numerator" 
d="M174 294l12 60h106l60 286h-77l13 60h142l-73 -346h105l-13 -60h-275z" />
    <glyph glyph-name="m.numerator" 
d="M231 294h-65l63 299h65l-2 -12q14 17 40 17q30 0 38 -21q21 24 59 24q34 0 55 -22.5t21 -53.5q0 -10 -47 -231h-65q47 224 47 226q0 19 -21 19q-23 0 -28 -24l-47 -221h-65q47 221 47 226q0 19 -20 19q-23 0 -29 -24z" />
    <glyph glyph-name="n.numerator" 
d="M186 294l63 299h65l-6 -28q9 15 28 25.5t40 10.5q42 0 72 -27.5t30 -72.5q0 -22 -16 -96l-24 -111h-65l24 109q1 9 9.5 46.5t8.5 42.5q0 22 -14.5 35t-42.5 13q-25 0 -43 -15t-23 -39l-41 -192h-65z" />
    <glyph glyph-name="o.numerator" 
d="M329 349q25 0 43 15t24 39q18 72 18 89q0 22 -14 35t-42 13q-25 0 -43 -15t-24 -39q-18 -68 -18 -88q0 -22 14.5 -35.5t41.5 -13.5zM321 288q-47 0 -79 27t-32 74q0 23 16 95q14 59 45 88t95 29q48 0 79.5 -27t31.5 -73q0 -27 -15 -96q-13 -58 -45 -87.5t-96 -29.5z" />
    <glyph glyph-name="p.numerator" 
d="M331 349q25 0 43 15t24 39q1 6 6 28.5l8.5 39.5t3.5 21q0 22 -14.5 35t-42.5 13q-25 0 -43 -15t-23 -39q-18 -68 -18 -88q0 -22 14.5 -35.5t41.5 -13.5zM165 187l86 406h65l-6 -28q21 36 71 36q37 0 67.5 -27.5t30.5 -72.5q0 -22 -16 -96q-26 -117 -127 -117
q-58 0 -76 45l-30 -146h-65z" />
    <glyph glyph-name="q.numerator" 
d="M328 349q25 0 43 15.5t23 38.5q19 76 19 89q0 22 -14.5 35t-42.5 13q-25 0 -43 -15t-23 -39q-19 -72 -19 -88q0 -22 14.5 -35.5t42.5 -13.5zM347 187l31 137q-22 -36 -72 -36q-36 0 -66.5 28t-30.5 73q0 27 15 95q25 117 127 117q59 0 76 -45l7 37h65l-87 -406h-65z" />
    <glyph glyph-name="r.numerator" 
d="M160 294l12 60h95l38 179h-65l12 60h130l-7 -31q10 15 29 26t40 11h85l-13 -64h-91q-25 0 -43 -14t-23 -38l-27 -129h116l-12 -60h-276z" />
    <glyph glyph-name="s.numerator" 
d="M334 288q-55 0 -89 25t-34 67v10h63v-4q0 -16 20 -26.5t44 -10.5q21 0 37 8t16 21q0 19 -29 29l-63 19q-59 19 -59 78q0 48 31.5 72.5t86.5 24.5q51 0 81 -26t30 -64v-5h-64v4q0 13 -15.5 21.5t-36.5 8.5t-34.5 -7.5t-13.5 -20.5q0 -21 23 -27l63 -20q64 -21 64 -75
q0 -50 -33.5 -76t-87.5 -26z" />
    <glyph glyph-name="t.numerator" 
d="M442 294h-97q-38 0 -56.5 20t-18.5 45q0 29 32 174h-86l13 60h86l14 68h65l-14 -68h125l-13 -60h-125q-33 -150 -33 -159q0 -20 23 -20h98z" />
    <glyph glyph-name="u.numerator" 
d="M305 288q-36 0 -65 28t-29 73q0 27 15 95l23 109h65l-22 -107q-1 -6 -6.5 -27.5t-9 -39t-3.5 -21.5q0 -22 14.5 -35.5t37.5 -13.5q27 0 45 15t24 39l40 190h65l-63 -299h-65l7 30q-7 -14 -28 -25t-45 -11z" />
    <glyph glyph-name="v.numerator" 
d="M280 294l-44 299h63l27 -207l117 207h72l-171 -299h-64z" />
    <glyph glyph-name="w.numerator" 
d="M213 294l15 299h64l-17 -203l63 157h55l-5 -160l68 206h67l-112 -299h-60l-1 175l-75 -175h-62z" />
    <glyph glyph-name="x.numerator" 
d="M173 294l133 154l-66 145h66l41 -94l84 94h79l-131 -149l67 -150h-66l-43 98l-84 -98h-80z" />
    <glyph glyph-name="y.numerator" 
d="M186 187l14 62h19q9 0 14.5 1t11 6.5t7 7.5t8 13t8.5 15l10 17l-42 284h64l28 -201l113 201h74l-208 -361q-26 -45 -77 -45h-44z" />
    <glyph glyph-name="z.numerator" 
d="M467 533l-168 -179h135l-13 -60h-222l13 60l168 179h-127l13 60h214z" />
    <glyph glyph-name="zero.fractioninf" 
d="M207 183q17 82 90 82q30 0 51 -20.5t21 -49.5q0 -9 -22 -117q-17 -82 -90 -82q-30 0 -51 20.5t-21 49.5q0 9 22 117zM305 77q17 79 17 81l-95 -79q-1 -6 -1 -10q0 -15 9 -24t25 -9q36 0 45 41zM328 192q0 14 -9 23.5t-25 9.5q-36 0 -45 -41l-17 -79l95 78q1 5 1 9z" />
    <glyph glyph-name="one.fractioninf" 
d="M253 164l-25 32l79 65h42l-48 -221h69l-9 -40h-178l9 40h67l34 158z" />
    <glyph glyph-name="two.fractioninf" 
d="M263 154l-31 -26q-17 20 -17 44q0 40 24.5 66.5t66.5 26.5q29 0 50.5 -21t21.5 -49q0 -45 -46 -83l-84 -72h99l-9 -40h-162l9 40l116 99q13 11 19 17t11.5 16t5.5 20q0 14 -9.5 23.5t-24.5 9.5q-21 0 -34 -14.5t-13 -35.5q0 -13 7 -21z" />
    <glyph glyph-name="three.fractioninf" 
d="M262 -4q-29 0 -51.5 21t-22.5 49q0 5 1 11h41q-1 -3 -1 -8q0 -14 10 -23.5t26 -9.5q21 0 33 14t12 36q0 13 -9 22.5t-23 10.5l8 38h4q17 0 27 11t10 29q0 11 -8 19.5t-20 8.5q-34 0 -37 -34h-41q2 33 23.5 53.5t57.5 20.5q27 0 46 -18.5t19 -46.5q0 -47 -32 -68
q16 -19 16 -43q0 -40 -24 -66.5t-65 -26.5z" />
    <glyph glyph-name="four.fractioninf" 
d="M324 0h-42l13 63h-115l9 40l150 160l30 -26l-126 -134h61l11 53h42l-11 -53h27l-9 -40h-27z" />
    <glyph glyph-name="five.fractioninf" 
d="M256 -4q-30 0 -51 20.5t-21 49.5v11h41v-8q0 -14 9 -23.5t24 -9.5q37 0 46 41q3 17 3 19q0 14 -9.5 23.5t-24.5 9.5q-23 0 -36 -19l-36 33l51 118h117l-9 -39h-82l-24 -57q7 4 22 4q31 0 51.5 -20.5t20.5 -49.5q0 -9 -2 -21q-17 -82 -90 -82z" />
    <glyph glyph-name="six.fractioninf" 
d="M263 -4q-30 0 -51 20.5t-21 49.5q0 10 2 22q8 37 28 57l111 118l31 -26l-66 -69l4 -1q23 -5 38.5 -25t15.5 -43q0 -12 -2 -21q-18 -82 -90 -82zM266 36q35 0 45 41q4 15 4 19q0 14 -9.5 23.5t-24.5 9.5q-37 0 -46 -41q-3 -16 -3 -19q0 -15 9 -24t25 -9z" />
    <glyph glyph-name="seven.fractioninf" 
d="M189 182l16 79h160l-8 -40l-127 -223l-38 15l119 209h-72l-8 -40h-42z" />
    <glyph glyph-name="eight.fractioninf" 
d="M260 -4q-29 0 -50.5 21t-21.5 49q0 55 44 80q-11 16 -11 37q0 36 21.5 59t59.5 23q26 0 45.5 -18.5t19.5 -46.5q0 -44 -33 -68q17 -19 17 -43q0 -40 -24.5 -66.5t-66.5 -26.5zM263 36q21 0 34 14.5t13 35.5q0 14 -9.5 23.5t-24.5 9.5q-21 0 -34 -14.5t-13 -35.5
q0 -15 9.5 -24t24.5 -9zM288 158q17 0 28 10.5t11 28.5q0 11 -8 19.5t-20 8.5q-37 0 -37 -39q0 -11 7 -19.5t19 -8.5z" />
    <glyph glyph-name="nine.fractioninf" 
d="M291 265q30 0 51 -20.5t21 -49.5q0 -10 -2 -22q-8 -37 -28 -57l-111 -118l-31 26l66 69l-4 1q-23 5 -38.5 25t-15.5 43q0 12 2 21q18 82 90 82zM288 225q-35 0 -45 -41q-4 -15 -4 -19q0 -14 9.5 -23.5t24.5 -9.5q37 0 46 41q3 17 3 19q0 14 -9 23.5t-25 9.5z" />
    <glyph glyph-name="zero.fractionsup" 
d="M300 622q17 82 90 82q30 0 51 -20.5t21 -49.5q0 -9 -22 -117q-17 -82 -90 -82q-30 0 -51 20.5t-21 49.5q0 9 22 117zM398 516q17 79 17 81l-95 -79q-1 -6 -1 -10q0 -14 9.5 -23.5t24.5 -9.5q36 0 45 41zM421 631q0 15 -9.5 24t-24.5 9q-36 0 -45 -41l-17 -79l95 78
q1 5 1 9z" />
    <glyph glyph-name="one.fractionsup" 
d="M346 603l-25 32l79 65h42l-48 -221h69l-9 -40h-178l9 40h67l34 158z" />
    <glyph glyph-name="two.fractionsup" 
d="M356 593l-31 -26q-17 20 -17 44q0 40 24.5 66.5t66.5 26.5q29 0 50.5 -21t21.5 -49q0 -45 -46 -83l-84 -72h99l-9 -40h-162l9 40l116 99q13 11 19 17t11.5 16t5.5 20q0 15 -9 24t-25 9q-21 0 -34 -14.5t-13 -35.5q0 -13 7 -21z" />
    <glyph glyph-name="three.fractionsup" 
d="M355 435q-29 0 -51.5 21t-22.5 49q0 5 1 11h41q-1 -3 -1 -8q0 -14 10 -23.5t26 -9.5q21 0 33 14t12 36q0 13 -9 22.5t-23 10.5l8 38h4q17 0 27 11t10 29q0 11 -8 19.5t-20 8.5q-34 0 -37 -34h-41q2 33 23.5 53.5t57.5 20.5q27 0 46 -18.5t19 -46.5q0 -47 -32 -68
q16 -19 16 -43q0 -40 -24 -66.5t-65 -26.5z" />
    <glyph glyph-name="four.fractionsup" 
d="M417 439h-42l13 63h-115l9 40l150 160l30 -26l-126 -134h61l11 53h42l-11 -53h27l-9 -40h-27z" />
    <glyph glyph-name="five.fractionsup" 
d="M349 435q-30 0 -51 20.5t-21 49.5v11h41v-8q0 -14 9 -23.5t24 -9.5q37 0 46 41q3 16 3 19q0 15 -9 24t-25 9q-23 0 -36 -19l-36 33l51 118h117l-9 -39h-82l-24 -57q7 4 22 4q31 0 51.5 -20.5t20.5 -49.5q0 -9 -2 -21q-17 -82 -90 -82z" />
    <glyph glyph-name="six.fractionsup" 
d="M356 435q-30 0 -51 20.5t-21 49.5q0 10 2 22q8 37 28 57l111 118l31 -26l-66 -69l4 -1q23 -5 38.5 -25t15.5 -43q0 -12 -2 -21q-18 -82 -90 -82zM359 475q35 0 45 41q4 15 4 19q0 14 -9.5 23.5t-24.5 9.5q-37 0 -46 -41q-3 -17 -3 -19q0 -14 9.5 -23.5t24.5 -9.5z" />
    <glyph glyph-name="seven.fractionsup" 
d="M282 621l16 79h160l-8 -40l-127 -223l-38 15l119 209h-72l-8 -40h-42z" />
    <glyph glyph-name="eight.fractionsup" 
d="M353 435q-29 0 -50.5 21t-21.5 49q0 55 44 80q-11 16 -11 37q0 36 21.5 59t59.5 23q26 0 45.5 -18.5t19.5 -46.5q0 -44 -33 -68q17 -19 17 -43q0 -40 -24.5 -66.5t-66.5 -26.5zM356 475q21 0 34 14.5t13 35.5q0 14 -9.5 23.5t-24.5 9.5q-21 0 -34 -14.5t-13 -35.5
q0 -14 9 -23.5t25 -9.5zM381 597q17 0 28 10.5t11 28.5q0 11 -8 19.5t-20 8.5q-37 0 -37 -39q0 -11 7 -19.5t19 -8.5z" />
    <glyph glyph-name="nine.fractionsup" 
d="M384 704q30 0 51 -20.5t21 -49.5q0 -10 -2 -22q-8 -37 -28 -57l-111 -118l-31 26l66 69l-4 1q-23 5 -38.5 25t-15.5 43q0 12 2 21q18 82 90 82zM381 664q-35 0 -45 -41q-4 -15 -4 -19q0 -14 9.5 -23.5t24.5 -9.5q37 0 46 41q3 16 3 19q0 15 -9.5 24t-24.5 9z" />
    <glyph glyph-name="comma.superior" 
d="M288 305l-45 45l118 118l46 -46z" />
    <glyph glyph-name="period.superior" 
d="M293 401l17 82h82l-18 -82h-81z" />
    <glyph glyph-name="hyphen.superior" 
d="M447 551h-168l5 26h168z" />
    <glyph glyph-name="plus.inferior" 
d="M249 -49v102h-102v26h102v101h27v-101h101v-26h-101v-102h-27z" />
    <glyph glyph-name="minus.inferior" 
d="M377 53h-230v26h230v-26z" />
    <glyph glyph-name="equal.inferior" 
d="M377 106h-230v26h230v-26zM377 -7h-230v26h230v-26z" />
    <glyph glyph-name="comma.inferior" 
d="M182 -193l-45 45l118 118l46 -46z" />
    <glyph glyph-name="period.inferior" 
d="M187 -97l17 82h82l-18 -82h-81z" />
    <glyph glyph-name="hyphen.inferior" 
d="M341 53h-168l5 26h168z" />
    <glyph glyph-name="parenleft.denominator" 
d="M297 346q6 32 21.5 46t50.5 14h71l-5 -24h-69q-37 0 -44 -39q-19 -96 -38.5 -185l-27.5 -125.5t-8 -40.5q0 -21 27 -21h73l-6 -24h-72q-47 0 -47 43q0 3 0.5 7t3 14.5t5.5 24.5l9 42l13 61.5l18.5 88.5z" />
    <glyph glyph-name="parenright.denominator" 
d="M275 7q-6 -32 -21.5 -46t-50.5 -14h-71l5 24h69q37 0 44 39q19 96 38.5 185l27.5 125.5t8 40.5q0 21 -27 21h-73l6 24h72q47 0 47 -43q0 -3 -0.5 -7t-3 -14.5t-5.5 -24.5l-9 -42l-13 -61.5l-18.5 -88.5z" />
    <glyph glyph-name="plus.denominator" 
d="M270 48v102h-102v26h102v101h27v-101h101v-26h-101v-102h-27z" />
    <glyph glyph-name="minus.denominator" 
d="M398 150h-230v26h230v-26z" />
    <glyph glyph-name="equal.denominator" 
d="M398 203h-230v26h230v-26zM398 90h-230v26h230v-26z" />
    <glyph glyph-name="comma.denominator" 
d="M203 -96l-45 45l118 118l46 -46z" />
    <glyph glyph-name="period.denominator" 
d="M208 0l17 82h82l-18 -82h-81z" />
    <glyph glyph-name="hyphen.denominator" 
d="M362 150h-168l5 26h168z" />
    <glyph glyph-name="parenleft.numerator" 
d="M360 640q6 32 21.5 46t50.5 14h71l-5 -24h-69q-37 0 -44 -39q-19 -96 -38.5 -185l-27.5 -125.5t-8 -40.5q0 -21 27 -21h73l-6 -24h-72q-47 0 -47 43q0 3 0.5 7t3 14.5t5.5 24.5l9 42l13 61.5l18.5 88.5z" />
    <glyph glyph-name="parenright.numerator" 
d="M338 301q-6 -32 -21.5 -46t-50.5 -14h-71l5 24h69q37 0 44 39q19 96 38.5 185l27.5 125.5t8 40.5q0 21 -27 21h-73l6 24h72q47 0 47 -43q0 -3 -0.5 -7t-3 -14.5t-5.5 -24.5l-9 -42l-13 -61.5l-18.5 -88.5z" />
    <glyph glyph-name="plus.numerator" 
d="M333 342v102h-102v26h102v101h27v-101h101v-26h-101v-102h-27z" />
    <glyph glyph-name="minus.numerator" 
d="M461 444h-230v26h230v-26z" />
    <glyph glyph-name="equal.numerator" 
d="M461 497h-230v26h230v-26zM461 384h-230v26h230v-26z" />
    <glyph glyph-name="comma.numerator" 
d="M266 198l-45 45l118 118l46 -46z" />
    <glyph glyph-name="period.numerator" 
d="M271 294l17 82h82l-18 -82h-81z" />
    <glyph glyph-name="hyphen.numerator" 
d="M425 444h-168l5 26h168z" />
    <glyph glyph-name="Gtilde" 
d="M463 297h-148l16 74h226q-9 -43 -32 -144q-26 -119 -89.5 -178t-176.5 -59q-83 0 -138 45.5t-55 133.5q0 9 0.5 15l1 12.5t2.5 17.5l4 22.5t7.5 35l10.5 47l14.5 67l19.5 87.5q26 119 89.5 178t176.5 59q83 0 138 -45.5t55 -133.5q0 -23 -2 -38h-78q3 18 3 32
q0 111 -127 111q-68 0 -114 -42t-64 -121q-60 -270 -60 -298q0 -111 127 -111q68 0 114 42t64 121l8 37.5zM577 797l-113 -60l-91 66l-124 -66l14 63l113 60l91 -66l124 66z" />
    <glyph glyph-name="gtilde" 
d="M117 -17q-1 -7 -1 -19q0 -43 31 -65t75 -22q59 0 99.5 33t53.5 97l14 68q-19 -28 -55.5 -46.5t-84.5 -18.5q-65 0 -115.5 40t-50.5 107q0 23 31 171q42 202 230 202q44 0 77 -20t49 -54l13 60h75l-108 -508q-23 -108 -81 -155t-156 -47q-71 0 -122 39.5t-51 107.5
q0 12 3 30h74zM342 459q-59 0 -99.5 -33t-53.5 -97q-30 -142 -30 -161q0 -43 31 -65t75 -22q59 0 99.5 33t53.5 97q30 143 30 161q0 43 -31 65t-75 22zM541 640l-113 -60l-91 66l-124 -66l14 63l113 60l91 -66l124 66z" />
    <glyph glyph-name="Mcircumflex" 
d="M303 264l242 436h79l-149 -700h-74l110 516l-183 -328h-78l-41 338l-112 -526h-74l149 700h79zM561 733l-137 72l-167 -72l13 58l157 68l145 -77z" />
    <glyph glyph-name="mcircumflex" 
d="M287 0h-75q85 400 85 410q0 49 -54 49q-60 0 -76 -72l-82 -387h-75l110 516h75l-6 -29q27 43 79 43q27 0 48.5 -15t29.5 -39q32 54 100 54q63 0 95.5 -31t32.5 -82q0 -15 -85 -417h-75q85 400 85 410q0 49 -54 49q-60 0 -76 -72zM528 579l-137 72l-167 -72l13 58l157 68
l145 -77z" />
    <glyph glyph-name="Mmacron" 
d="M303 264l242 436h79l-149 -700h-74l110 516l-183 -328h-78l-41 338l-112 -526h-74l149 700h79zM569 774h-312l11 50h312z" />
    <glyph glyph-name="mmacron" 
d="M287 0h-75q85 400 85 410q0 49 -54 49q-60 0 -76 -72l-82 -387h-75l110 516h75l-6 -29q27 43 79 43q27 0 48.5 -15t29.5 -39q32 54 100 54q63 0 95.5 -31t32.5 -82q0 -15 -85 -417h-75q85 400 85 410q0 49 -54 49q-60 0 -76 -72zM537 620h-312l11 50h312z" />
    <glyph glyph-name="Ncircumflex" 
d="M624 700l-149 -700h-77l-178 565l-120 -565h-77l149 700h77l178 -565l120 565h77zM561 733l-137 72l-167 -72l13 58l157 68l145 -77z" />
    <glyph glyph-name="ncircumflex" 
d="M362 530q65 0 115.5 -40t50.5 -107q0 -24 -35 -191l-41 -192h-75l41 191q34 149 34 181q0 43 -31 65t-75 22q-59 0 -99.5 -33t-53.5 -97l-70 -329h-75l110 516h75l-11 -51q19 28 55.5 46.5t84.5 18.5zM530 579l-137 72l-167 -72l13 58l157 68l145 -77z" />
    <glyph glyph-name="Ndieresis" 
d="M624 700l-149 -700h-77l-178 565l-120 -565h-77l149 700h77l178 -565l120 565h77zM255 761l17 76h76l-17 -76h-76zM491 761l17 76h76l-17 -76h-76z" />
    <glyph glyph-name="ndieresis" 
d="M362 530q65 0 115.5 -40t50.5 -107q0 -24 -35 -191l-41 -192h-75l41 191q34 149 34 181q0 43 -31 65t-75 22q-59 0 -99.5 -33t-53.5 -97l-70 -329h-75l110 516h75l-11 -51q19 28 55.5 46.5t84.5 18.5zM222 607l17 76h76l-17 -76h-76zM458 607l17 76h76l-17 -76h-76z" />
    <glyph glyph-name="Nmacron" 
d="M624 700l-149 -700h-77l-178 565l-120 -565h-77l149 700h77l178 -565l120 565h77zM569 774h-312l11 50h312z" />
    <glyph glyph-name="nmacron" 
d="M362 530q65 0 115.5 -40t50.5 -107q0 -24 -35 -191l-41 -192h-75l41 191q34 149 34 181q0 43 -31 65t-75 22q-59 0 -99.5 -33t-53.5 -97l-70 -329h-75l110 516h75l-11 -51q19 28 55.5 46.5t84.5 18.5zM538 620h-312l11 50h312z" />
    <glyph glyph-name="Pmacron" 
d="M607 511q0 -104 -70 -171t-195 -67h-160l-58 -273h-77l149 700h226q82 0 133.5 -55.5t51.5 -133.5zM354 347q74 0 124 45t50 113q0 50 -28.5 85.5t-93.5 35.5h-149l-59 -279h156zM573 774h-312l11 50h312z" />
    <glyph glyph-name="pmacron" 
d="M268 61q59 0 99.5 33t53.5 97q34 161 34 181q0 43 -31 65t-75 22q-59 0 -99.5 -33t-53.5 -97q-34 -161 -34 -181q0 -43 31 -65t75 -22zM236 516l-11 -51q19 28 55.5 46.5t84.5 18.5q65 0 115.5 -40t50.5 -107q0 -24 -35 -191q-42 -202 -230 -202q-44 0 -77 20t-49 54
l-53 -248h-75l149 700h75zM541 620h-312l11 50h312z" />
    <glyph glyph-name="zero.case" 
d="M265 -10q-77 0 -128 50.5t-51 117.5q0 25 10.5 78t59.5 278q19 89 76.5 142.5t149.5 53.5q77 0 128 -50.5t51 -117.5q0 -25 -10.5 -78t-59.5 -278q-19 -89 -76.5 -142.5t-149.5 -53.5zM272 64q53 0 92.5 36.5t51.5 93.5l53 248l-307 -254q-2 -12 -2 -20q0 -44 30 -74
t82 -30zM487 532q0 44 -30 74t-82 30q-53 0 -92.5 -36.5t-51.5 -93.5l-54 -248l307 254q3 18 3 20z" />
    <glyph glyph-name="one.case" 
d="M224 477l-44 61l196 162h77l-133 -626h181l-15 -74h-441l15 74h183l107 505z" />
    <glyph glyph-name="two.case" 
d="M261 408l-54 -51q-52 49 -52 116q0 102 63 169.5t164 67.5q77 0 128 -50.5t51 -117.5q0 -65 -29.5 -116t-84.5 -102l-276 -250h297l-15 -74h-406l16 74l331 302q44 41 68.5 77.5t24.5 78.5q0 44 -30 73.5t-82 29.5q-63 0 -104.5 -48.5t-41.5 -104.5q0 -45 32 -74z" />
    <glyph glyph-name="three.case" 
d="M258 -10q-77 0 -128.5 49.5t-51.5 116.5q0 18 3 38h74q-3 -15 -3 -29q0 -44 30 -72.5t83 -28.5q63 0 104 47.5t41 102.5q0 42 -27.5 73.5t-74.5 34.5l16 72h12q62 0 100.5 45t38.5 100q0 43 -27 70t-78 27q-55 0 -92 -36t-45 -85h-74q10 87 68 141t150 54q76 0 124 -47
t48 -114q0 -70 -30.5 -123.5t-85.5 -81.5q51 -51 51 -119q0 -101 -62.5 -168t-163.5 -67z" />
    <glyph glyph-name="four.case" 
d="M399 0h-77l39 187h-320l16 74l418 444l55 -49l-373 -395h220l34 158h77l-34 -158h73l-16 -74h-73z" />
    <glyph glyph-name="five.case" 
d="M264 -10q-77 0 -128 50.5t-51 117.5q0 15 3 36h75q-4 -17 -4 -26q0 -44 30 -73t82 -29q53 0 92.5 35.5t51.5 92.5q15 71 15 73q0 44 -30 74t-82 30q-77 0 -123 -73l-68 50l153 352h280l-16 -74h-213l-87 -198q32 17 81 17q77 0 128 -50.5t51 -117.5q0 -27 -14 -91
q-18 -89 -76 -142.5t-150 -53.5z" />
    <glyph glyph-name="six.case" 
d="M253 -10q-77 0 -128 50.5t-51 117.5q0 27 14 91q18 85 63 131l308 325l54 -49l-200 -212h6q71 0 122 -51t51 -116q0 -31 -13 -91q-18 -89 -76 -142.5t-150 -53.5zM260 64q53 0 92.5 36.5t51.5 93.5q14 66 14 73q0 45 -30 74.5t-81 29.5q-53 0 -93 -36.5t-51 -93.5
q-15 -71 -15 -73q0 -44 30 -74t82 -30z" />
    <glyph glyph-name="seven.case" 
d="M158 509l40 191h400l-15 -74l-358 -631l-69 27l342 604h-239l-24 -117h-77z" />
    <glyph glyph-name="eight.case" 
d="M266 -10q-77 0 -128 50.5t-51 117.5q0 71 32 127t89 84q-45 45 -45 111q0 102 62.5 166t157.5 64q76 0 124 -47t48 -114q0 -70 -31 -123t-84 -81q53 -50 53 -118q0 -102 -63 -169.5t-164 -67.5zM273 64q63 0 104.5 48.5t41.5 103.5q0 44 -30 74t-82 30q-63 0 -104.5 -49
t-41.5 -105q0 -44 30 -73t82 -29zM342 393q63 0 101 45.5t38 100.5q0 43 -27 70t-78 27q-63 0 -101 -45.5t-38 -100.5q0 -43 27 -70t78 -27z" />
    <glyph glyph-name="nine.case" 
d="M394 710q77 0 128 -50.5t51 -117.5q0 -27 -14 -91q-18 -85 -63 -131l-308 -325l-54 49l200 212h-6q-71 0 -122 51t-51 116q0 31 13 91q18 89 76 142.5t150 53.5zM387 636q-53 0 -92.5 -36.5t-51.5 -93.5q-14 -66 -14 -73q0 -45 29.5 -74.5t81.5 -29.5q53 0 93 36.5
t51 93.5q15 71 15 73q0 44 -30 74t-82 30z" />
    <glyph glyph-name="emdash.case" 
d="M546 315h-459l9 45h459z" />
    <glyph glyph-name="endash.case" 
d="M515 315h-396l9 45h396z" />
    <glyph glyph-name="guillemotleft.case" 
d="M230 105l-165 210l254 210l29 -34l-221 -182l137 -176zM455 105l-165 210l254 210l29 -34l-221 -182l137 -176z" />
    <glyph glyph-name="guillemotright.case" 
d="M378 525l165 -210l-254 -210l-29 34l221 182l-137 176zM153 525l165 -210l-254 -210l-29 34l221 182l-137 176z" />
    <glyph glyph-name="guilsinglleft.case" 
d="M337 105l-165 210l254 210l29 -34l-221 -182l137 -176z" />
    <glyph glyph-name="guilsinglright.case" 
d="M271 525l165 -210l-254 -210l-29 34l221 182l-137 176z" />
    <glyph glyph-name="hyphen.case" 
d="M462 315h-290l9 45h290z" />
    <glyph glyph-name="braceleft.case" 
d="M266 293q0 19 -12 27.5t-42 8.5h-10l9 42h10q38 0 54 14t23 47l35 165q12 54 37.5 78.5t86.5 24.5h123l-9 -42h-119q-35 0 -52 -15.5t-25 -51.5l-34 -159q-15 -70 -50 -86q18 -14 18 -45q0 -20 -20.5 -115t-20.5 -108q0 -36 47 -36h125l-9 -42h-125q-81 0 -81 75
q0 17 20.5 111t20.5 107z" />
    <glyph glyph-name="braceright.case" 
d="M381 407q0 -19 12 -27.5t42 -8.5h10l-9 -42h-10q-38 0 -54 -14t-23 -47l-35 -165q-12 -54 -37.5 -78.5t-86.5 -24.5h-123l9 42h119q35 0 52 15.5t25 51.5l34 159q15 70 50 86q-18 14 -18 45q0 20 20.5 115t20.5 108q0 36 -47 36h-125l9 42h125q81 0 81 -75
q0 -17 -20.5 -111t-20.5 -107z" />
    <glyph glyph-name="bracketleft.case" 
d="M205 0l149 700h225l-9 -42h-182l-131 -616h182l-9 -42h-225z" />
    <glyph glyph-name="bracketright.case" 
d="M442 700l-149 -700h-225l9 42h182l131 616h-182l9 42h225z" />
    <glyph glyph-name="parenleft.case" 
d="M333 597q12 54 37.5 78.5t86.5 24.5h123l-9 -42h-119q-35 0 -52 -15.5t-25 -51.5q-107 -501 -107 -513q0 -36 47 -36h125l-9 -42h-125q-81 0 -81 75q0 15 108 522z" />
    <glyph glyph-name="parenright.case" 
d="M315 103q-12 -54 -37.5 -78.5t-86.5 -24.5h-123l9 42h119q35 0 52 15.5t25 51.5q107 501 107 513q0 36 -47 36h-125l9 42h125q81 0 81 -75q0 -15 -108 -522z" />
    <glyph glyph-name="periodcentered.case" 
d="M240 295l22 105h105l-22 -105h-105z" />
    <glyph glyph-name="less.case" 
d="M449 556l-239 -239l239 -239l-32 -31l-270 270l270 270z" />
    <glyph glyph-name="greater.case" 
d="M398 317l-239 239l32 31l270 -270l-270 -270l-32 31z" />
    <glyph glyph-name="plus.case" 
d="M298 139v176h-176v45h176v175h45v-175h175v-45h-175v-176h-45z" />
    <glyph glyph-name="equal.case" 
d="M518 212h-396v45h396v-45zM518 407h-396v45h396v-45z" />
    <glyph glyph-name="notequal.case" 
d="M518 212h-241l-65 -117l-37 22l53 95h-106v45h396v-45zM465 547l-53 -95h106v-45h-396v45h240l66 117z" />
    <glyph glyph-name="lessequal.case" 
d="M518 57h-396v45h396v-45zM518 176l-396 180v44l396 180v-48l-338 -154l338 -154v-48z" />
    <glyph glyph-name="greaterequal.case" 
d="M122 57h396v45h-396v-45zM518 356l-396 -180v48l338 154l-338 154v48l396 -180v-44z" />
    <glyph glyph-name="divide.case" 
d="M278 536q0 17 12.5 29.5t29.5 12.5t29.5 -12.5t12.5 -29.5t-12.5 -29.5t-29.5 -12.5t-29.5 12.5t-12.5 29.5zM278 139q0 17 12.5 29.5t29.5 12.5t29.5 -12.5t12.5 -29.5t-12.5 -29.5t-29.5 -12.5t-29.5 12.5t-12.5 29.5zM518 315h-396v45h396v-45z" />
    <glyph glyph-name="plusminus.case" 
d="M298 286v121h-176v45h176v121h45v-121h175v-45h-175v-121h-45zM518 212h-396v45h396v-45z" />
    <glyph glyph-name="question.case" 
d="M282 380h50q63 0 104.5 48.5t41.5 103.5q0 45 -30 74t-82 29q-56 0 -95.5 -39t-48.5 -89h-74q11 89 72 146t153 57q77 0 128 -50t51 -117q0 -96 -57.5 -162t-151.5 -73l-16 -78h-77zM187 0l22 105h105l-22 -105h-105z" />
    <glyph glyph-name="exclam.case" 
d="M435 700l-99 -470h-77l99 470h77zM196 0l22 105h105l-22 -105h-105z" />
    <glyph glyph-name="questiondown.case" 
d="M358 320h-57q-60 -3 -99.5 -50.5t-39.5 -101.5q0 -45 30 -74t82 -29q56 0 95.5 39t48.5 89h74q-11 -89 -72 -146t-153 -57q-77 0 -128 50t-51 117q0 96 57 162t151 73l17 78h77zM453 700l-22 -105h-105l22 105h105z" />
    <glyph glyph-name="exclamdown.case" 
d="M210 0l99 470h77l-99 -470h-77zM449 700l-22 -105h-105l22 105h105z" />
    <glyph glyph-name="arrow90topleft" 
d="M107 253l234 -233l-30 -30l-286 285l286 285l30 -30l-234 -233h418v-481h-44v437h-374z" />
    <glyph glyph-name="arrow90topright" 
d="M127 253v-437h-44v481h418l-234 233l30 30l286 -285l-286 -285l-30 30l234 233h-374z" />
    <glyph glyph-name="arrow90downright" 
d="M127 700v-403h374l-234 233l30 30l286 -285l-286 -285l-30 30l234 233h-418v447h44z" />
    <glyph glyph-name="arrow90downleft" 
d="M107 253l234 -233l-30 -30l-286 285l286 285l30 -30l-234 -233h374v403h44v-447h-418z" />
    <glyph glyph-name="published" 
d="M544 249v202q0 98 -58.5 157.5t-162.5 59.5t-162.5 -59.5t-58.5 -157.5v-202q0 -98 58.5 -157.5t162.5 -59.5t162.5 59.5t58.5 157.5zM587 451v-202q0 -118 -70 -188.5t-194 -70.5t-194 70.5t-70 188.5v202q0 118 70 188.5t194 70.5t194 -70.5t70 -188.5zM186 141v418
h165q69 0 105.5 -40t36.5 -99t-36.5 -99t-105.5 -40h-97v-140h-68zM254 349h97q36 0 54.5 20.5t18.5 51.5t-18.5 51.5t-54.5 20.5h-97v-144z" />
    <glyph glyph-name="brokenbar.case" 
d="M302 0v289h43v-289h-43zM302 411v289h43v-289h-43z" />
    <glyph glyph-name="ampersand.case" 
d="M213 -10q-83 0 -136 53t-53 126q0 95 61.5 165t180.5 72h7l-78 220l16 74h339l-16 -74h-259l140 -397l107 139l63 -42l-141 -180l40 -114l-66 -36l-28 79q-73 -85 -177 -85zM219 65q77 0 141 94l-59 166q-18 6 -38 6q-68 0 -114.5 -42.5t-46.5 -108.5q0 -51 32.5 -83
t84.5 -32z" />
    <glyph glyph-name="bar.case" 
d="M302 0v700h43v-700h-43z" />
    <glyph glyph-name="at.case" 
d="M428 130q-36 -50 -107 -50q-67 0 -106 39t-39 106v30q0 67 39 106t106 39h70v75q0 34 -18.5 53.5t-51.5 19.5t-51.5 -19.5t-18.5 -53.5v-27h-75v27q0 67 39 106t106 39t106 -39t39 -106v-312q0 -18 10.5 -29.5t28.5 -11.5t28.5 11.5t10.5 29.5v308q0 98 -58.5 157.5
t-162.5 59.5t-162.5 -59.5t-58.5 -157.5v-242q0 -98 58.5 -157.5t162.5 -59.5v-42q-124 0 -194 70.5t-70 188.5v242q0 118 70 188.5t194 70.5t194 -70.5t70 -188.5v-308q0 -39 -23 -61t-59 -22q-62 0 -77 50zM251 255v-30q0 -34 18.5 -53.5t51.5 -19.5t51.5 19.5t18.5 53.5
v103h-70q-33 0 -51.5 -19.5t-18.5 -53.5z" />
    <glyph glyph-name="at.alt" 
d="M372 492v24h75v-443q0 -18 10.5 -29.5t28.5 -11.5t28.5 11.5t10.5 29.5v378q0 98 -58.5 157.5t-162.5 59.5t-162.5 -59.5t-58.5 -157.5v-381q0 -98 58.5 -157.5t162.5 -59.5v-42q-124 0 -194 70.5t-70 188.5v381q0 118 70 188.5t194 70.5t194 -70.5t70 -188.5v-378
q0 -39 -23 -61t-59 -22q-62 0 -77 50q-36 -50 -107 -50q-68 0 -106.5 39t-38.5 106v250q0 67 37 106t98 39q52 0 80 -38zM302 458q-33 0 -51.5 -19.5t-18.5 -53.5v-250q0 -34 18.5 -53.5t51.5 -19.5t51.5 19.5t18.5 53.5v250q0 34 -18.5 53.5t-51.5 19.5z" />
    <glyph glyph-name="at_alt.case" 
d="M391 582v24h75v-443q0 -18 10.5 -29.5t28.5 -11.5t28.5 11.5t10.5 29.5v308q0 98 -58.5 157.5t-162.5 59.5t-162.5 -59.5t-58.5 -157.5v-242q0 -98 58.5 -157.5t162.5 -59.5v-42q-124 0 -194 70.5t-70 188.5v242q0 118 70 188.5t194 70.5t194 -70.5t70 -188.5v-308
q0 -39 -23 -61t-59 -22q-62 0 -77 50q-36 -50 -107 -50q-67 0 -106 39t-39 106v250q0 67 37 106t98 39q52 0 80 -38zM321 548q-33 0 -51.5 -19.5t-18.5 -53.5v-250q0 -34 18.5 -53.5t51.5 -19.5t51.5 19.5t18.5 53.5v250q0 34 -18.5 53.5t-51.5 19.5z" />
    <glyph glyph-name="multiply.case" 
d="M492 476l-140 -139l140 -139l-32 -32l-140 139l-139 -139l-32 32l139 139l-139 139l32 32l139 -139l140 139z" />
    <glyph glyph-name="minus.case" 
d="M518 315h-396v45h396v-45z" />
    <glyph glyph-name="zero.alt" 
d="M490 188q-23 -103 -79 -150.5t-150 -47.5q-84 0 -128.5 50t-44.5 114q0 65 67 358q23 103 79 150.5t150 47.5q84 0 128.5 -50t44.5 -114q0 -65 -67 -358zM415 187q4 20 24.5 114l30.5 142l-308 -254q-2 -22 -2 -24q0 -48 29.5 -76t82.5 -28q51 0 90.5 33t52.5 93z
M230 513q-50 -229 -55 -256l307 254q3 15 3 24q0 48 -29.5 76t-82.5 28q-51 0 -91 -33t-52 -93z" />
    <glyph glyph-name="one.alt" 
d="M249 71l113 526l-159 -115l21 103l159 115h75l-134 -629h164l-15 -71h-404l15 71h165z" />
    <glyph glyph-name="two.alt" 
d="M222 490h-75q22 115 78.5 167.5t155.5 52.5q84 0 128.5 -50t44.5 -114q0 -57 -22 -106.5t-47 -77t-71 -69.5l-247 -222h295l-15 -71h-403l15 71l307 275q51 46 83.5 91t32.5 98q0 48 -29.5 76t-82.5 28q-57 0 -98 -39t-50 -110z" />
    <glyph glyph-name="three.alt" 
d="M90 200h71q-4 -21 -4 -35q0 -48 29.5 -76t82.5 -28q62 0 104 47.5t42 106.5q0 43 -28 72.5t-75 29.5h-50l16 71h50q63 0 108.5 46t45.5 101q0 48 -29.5 76t-82.5 28q-56 0 -97 -39t-51 -110h-75q22 114 78.5 167t155.5 53q84 0 128.5 -50t44.5 -114q0 -74 -35 -126
t-92 -77q61 -41 61 -121q0 -100 -59.5 -166t-170.5 -66q-84 0 -128.5 50t-44.5 114q0 28 5 46z" />
    <glyph glyph-name="four.alt" 
d="M511 189h-73l-40 -189h-75l40 189h-320l15 69l414 442h75l-94 -442h73zM152 258h226l67 313z" />
    <glyph glyph-name="five.alt" 
d="M435 194q11 52 11 84q0 41 -28 68t-83 27q-38 0 -71 -20t-53 -57h-77l86 404h368l-15 -71h-293l-50 -233q38 48 118 48q84 0 128.5 -50t44.5 -115q0 -19 -15 -91q-22 -102 -78.5 -150t-150.5 -48q-84 0 -128.5 50t-44.5 114q0 23 5 46h71q-4 -21 -4 -35q0 -48 29.5 -76
t82.5 -28q51 0 92.5 35t54.5 98z" />
    <glyph glyph-name="six.alt" 
d="M207 386q17 22 52.5 36.5t72.5 14.5q84 0 128.5 -50t44.5 -115q0 -32 -11 -84q-22 -102 -78.5 -150t-150.5 -48q-84 0 -128.5 50t-44.5 114q0 65 67 358q23 103 79 150.5t150 47.5q84 0 128.5 -50t44.5 -114q0 -21 -5 -46h-71q4 21 4 35q0 48 -29.5 76t-82.5 28
q-51 0 -90.5 -33t-52.5 -93q-3 -11 -11.5 -55t-15.5 -72zM319 366q-51 0 -90.5 -33t-52.5 -93q-12 -57 -12 -75q0 -48 29.5 -76t82.5 -28q51 0 90.5 33t52.5 93q11 52 11 84q0 41 -28 68t-83 27z" />
    <glyph glyph-name="seven.alt" 
d="M573 629l-355 -629h-84l355 629h-314l15 71h398z" />
    <glyph glyph-name="eight.alt" 
d="M495 218q0 -104 -56 -166t-164 -62q-88 0 -135.5 53t-47.5 119q0 75 30 129t88 78q-42 46 -42 109q0 102 59 167t166 65q74 0 119 -49.5t45 -111.5q0 -72 -29.5 -126.5t-85.5 -81.5q53 -50 53 -123zM164 172q0 -49 31.5 -80t90.5 -31q56 0 96.5 40.5t40.5 105.5
q0 49 -31.5 80t-90.5 31q-55 0 -96 -41t-41 -105zM485 538q0 46 -30 73.5t-75 27.5q-60 0 -100 -44.5t-40 -105.5q0 -46 30 -73.5t75 -27.5q60 0 100 44.5t40 105.5z" />
    <glyph glyph-name="nine.alt" 
d="M435 314q-17 -22 -52.5 -36.5t-72.5 -14.5q-84 0 -128.5 50t-44.5 115q0 32 11 84q22 102 78.5 150t150.5 48q84 0 128.5 -50t44.5 -114q0 -65 -67 -358q-23 -103 -79 -150.5t-150 -47.5q-84 0 -128.5 50t-44.5 114q0 21 5 46h71q-4 -21 -4 -35q0 -48 29.5 -76t82.5 -28
q51 0 90.5 33t52.5 93q3 11 11.5 55t15.5 72zM323 334q51 0 90.5 33t52.5 93q12 57 12 75q0 48 -29.5 76t-82.5 28q-51 0 -90.5 -33t-52.5 -93q-11 -52 -11 -84q0 -41 28 -68t83 -27z" />
  </font>
</defs>
</svg>
